<?xml version="1.0" encoding="UTF-8" standalone="no"?>
<!-- Created with Inkscape (http://www.inkscape.org/) -->

<svg
   xmlns:dc="http://purl.org/dc/elements/1.1/"
   xmlns:cc="http://creativecommons.org/ns#"
   xmlns:rdf="http://www.w3.org/1999/02/22-rdf-syntax-ns#"
   xmlns:svg="http://www.w3.org/2000/svg"
   xmlns="http://www.w3.org/2000/svg"
   xmlns:sodipodi="http://sodipodi.sourceforge.net/DTD/sodipodi-0.dtd"
   xmlns:inkscape="http://www.inkscape.org/namespaces/inkscape"
   id="svg2"
   version="1.1"
   inkscape:version="0.48.4 r9939"
   width="386.98459"
   height="492.7312"
   xml:space="preserve"
   sodipodi:docname="arbore_vida.svg"><metadata
     id="metadata8"><rdf:RDF><cc:Work
         rdf:about=""><dc:format>image/svg+xml</dc:format><dc:type
           rdf:resource="http://purl.org/dc/dcmitype/StillImage" /><dc:title /></cc:Work></rdf:RDF></metadata><defs
     id="defs6" /><sodipodi:namedview
     pagecolor="#ffffff"
     bordercolor="#666666"
     borderopacity="1"
     objecttolerance="10"
     gridtolerance="10"
     guidetolerance="10"
     inkscape:pageopacity="0"
     inkscape:pageshadow="2"
     inkscape:window-width="1366"
     inkscape:window-height="714"
     id="namedview4"
     showgrid="false"
     inkscape:zoom="1.1125227"
     inkscape:cx="148.74321"
     inkscape:cy="192.45298"
     inkscape:window-x="-2"
     inkscape:window-y="-3"
     inkscape:window-maximized="1"
     inkscape:current-layer="g12"
     fit-margin-top="0"
     fit-margin-left="0"
     fit-margin-right="0"
     fit-margin-bottom="0" /><g
     id="g10"
     inkscape:groupmode="layer"
     inkscape:label="arbore_vida"
     transform="matrix(1.25,0,0,-1.25,-0.0975,424.16375)"><g
       id="g12"><path
         d="M 278.21049,274.54408 C 213.39219,215.35766 204.75091,139.00603 205.89425,60.099326 236.39028,100.05463 310.4866,127.71439 308.21269,177.78198 321.69691,121.13786 237.70211,92.674048 206.11618,49.101654 c 0.87145,-34.703382 3.18717,-69.765799 3.05471,-103.955606 l -32.91052,0 c -0.46245,24.849047 -1.83352,49.9351288 -2.61434,74.78069 C 134.8666,71.560611 35.788775,105.77831 51.888485,173.32017 49.16492,113.96178 135.65671,80.782854 173.27421,33.855963 c -0.78546,35.140266 0.18127,69.620557 6.92627,102.182497 -19.77606,25.394 -52.3868,49.32745 -39.92859,77.6402 -5.927,-25.69841 22.91677,-47.91104 41.34382,-71.17289 11.81915,50.70781 38.6888,96.40886 96.59478,132.03831 M 152.91254,181.74881 c 0,0 11.08366,2.98616 15.00517,10.27496 3.89944,7.276 1.63949,24.90481 1.63949,24.90481 -16.03116,-11.4055 -16.16826,-15.40023 -16.64466,-35.17977 m -17.47428,9.63125 c 0,0 -5.78177,9.93102 -13.82464,11.81451 -8.05683,1.90556 -24.491177,-4.86617 -24.491177,-4.86617 15.191077,-12.52212 19.076577,-11.61931 38.315817,-6.94834 m 94.38014,10.88845 c 0,0 8.37403,-7.82096 16.64349,-7.28531 8.24739,0.52635 22.03137,11.7692 22.03137,11.7692 -18.17375,7.56184 -21.63166,5.58308 -38.67486,-4.48389 m 54.56543,-68.50859 c 0,0 5.6098,15.24569 0.39854,25.72979 -5.2194,10.48526 -27.4634,22.30441 -27.4634,22.30441 0.0766,-27.87355 4.56174,-31.28614 27.06486,-48.0342 M 100.2399,102.2472 c 0,0 12.50005,7.28414 14.90061,17.45568 2.35638,10.16224 -6.19077,30.91432 -6.19077,30.91432 -15.785995,-19.19509 -14.641494,-24.08333 -8.70984,-48.37 m -31.879887,4.05281 c 0,0 -13.930385,14.5648 -28.440575,14.46022 C 25.390658,120.67426 0.078,102.3692 0.078,102.3692 31.159643,87.246672 37.423611,90.38737 68.360013,106.30001 M 254.82199,86.401949 c 0,0 4.67561,-13.031051 13.84789,-17.016473 9.16414,-3.988908 30.13815,0.468258 30.13815,0.468258 -15.3096,18.164464 -20.12929,17.932079 -43.98604,16.548215 M 243.36651,250.82908 c 0,0 7.31203,31.6626 -5.69229,51.15631 -12.99388,19.48093 -60.08808,37.34561 -60.08808,37.34561 7.18421,-55.29628 16.94327,-60.94326 65.78037,-88.50192"
         style="fill:#eeeeee;fill-opacity:1;fill-rule:evenodd;stroke:none"
         id="path14"
         inkscape:connector-curvature="0" /></g></g></svg>