<?xml version="1.0" encoding="UTF-8" standalone="no"?>
<!-- Created with Inkscape (http://www.inkscape.org/) -->

<svg
   xmlns:dc="http://purl.org/dc/elements/1.1/"
   xmlns:cc="http://creativecommons.org/ns#"
   xmlns:rdf="http://www.w3.org/1999/02/22-rdf-syntax-ns#"
   xmlns:svg="http://www.w3.org/2000/svg"
   xmlns="http://www.w3.org/2000/svg"
   xmlns:sodipodi="http://sodipodi.sourceforge.net/DTD/sodipodi-0.dtd"
   xmlns:inkscape="http://www.inkscape.org/namespaces/inkscape"
   id="svg2"
   version="1.1"
   inkscape:version="0.48.4 r9939"
   width="693.75"
   height="101.25"
   xml:space="preserve"
   sodipodi:docname="citius-horizontal.svg"
   inkscape:export-filename="/home/maxwell/Dropbox/Proyectos-personales/citius-html5-slides/citius_images/vector/svg/citius-horizontal.png"
   inkscape:export-xdpi="44.647068"
   inkscape:export-ydpi="44.647068"><metadata
     id="metadata8"><rdf:RDF><cc:Work
         rdf:about=""><dc:format>image/svg+xml</dc:format><dc:type
           rdf:resource="http://purl.org/dc/dcmitype/StillImage" /><dc:title></dc:title></cc:Work></rdf:RDF></metadata><defs
     id="defs6"><clipPath
       clipPathUnits="userSpaceOnUse"
       id="clipPath18"><path
         d="M 0,806.324 0,0 l 5542.76,0 0,806.324 -5542.76,0 z"
         id="path20" /></clipPath></defs><sodipodi:namedview
     pagecolor="#ffffff"
     bordercolor="#666666"
     borderopacity="1"
     objecttolerance="10"
     gridtolerance="10"
     guidetolerance="10"
     inkscape:pageopacity="0"
     inkscape:pageshadow="2"
     inkscape:window-width="640"
     inkscape:window-height="480"
     id="namedview4"
     showgrid="false"
     inkscape:zoom="0.61261261"
     inkscape:cx="346.875"
     inkscape:cy="50.625"
     inkscape:window-x="0"
     inkscape:window-y="0"
     inkscape:window-maximized="0"
     inkscape:current-layer="g10" /><g
     id="g10"
     inkscape:groupmode="layer"
     inkscape:label="logo_CiTIUS_horizontal"
     transform="matrix(1.25,0,0,-1.25,0,101.25)"><g
       id="g12"
       transform="scale(0.1,0.1)"><g
         id="g14"><g
           id="g16"
           clip-path="url(#clipPath18)"><path
             d="m 732.18,0 806.332,0 0,806.324 -806.332,0 0,-806.324 z"
             style="fill:#f36126;fill-opacity:1;fill-rule:nonzero;stroke:none"
             id="path22" /><path
             d="m 290.957,590.758 c -27.273,0 -52.449,-4.504 -75.496,-13.508 -23.066,-8.992 -42.832,-22.117 -59.316,-39.285 -16.528,-17.168 -29.434,-38.399 -38.696,-63.645 -9.273,-25.242 -13.902,-54.101 -13.902,-86.523 0,-32.207 4.207,-60.516 12.676,-84.93 8.465,-24.426 20.601,-44.824 36.441,-61.191 15.793,-16.379 35.102,-28.731 57.895,-37.063 22.769,-8.289 48.613,-12.441 77.539,-12.441 20.742,0 41.863,1.621 63.433,4.883 21.543,3.281 41.762,8.078 60.547,14.328 l 0,-86.34 c -19.082,-5.457 -39.668,-9.766 -61.785,-12.891 -22.078,-3.125 -45.012,-4.726 -68.738,-4.726 -46.391,0 -87.16,6.672 -122.344,19.883 -35.219,13.214 -64.6133,31.925 -88.1954,56.054 C 47.4102,207.484 29.668,236.441 17.8125,270.141 5.9375,303.824 0,340.973 0,381.637 c 0,41.746 6.35547,80.496 19.0312,116.211 12.6954,35.742 30.9688,66.707 54.8243,92.91 23.8672,26.199 53.7495,46.785 89.6285,61.785 35.879,15.012 76.465,22.668 121.758,22.922 23.176,0 45.141,-1.563 65.879,-4.688 20.734,-3.164 39.414,-7.597 56.067,-13.312 l 0,-85.125 c -21.844,6.797 -42.149,11.59 -60.989,14.336 -18.804,2.703 -37.222,4.082 -55.242,4.082"
             style="fill:#231f1d;fill-opacity:1;fill-rule:nonzero;stroke:none"
             id="path24" /><path
             d="m 528.035,514.215 97.004,0 0,-396.504 -97.004,0 0,396.504 z m -2.449,196.043 101.894,0 0,-105.176 -101.894,0 0,105.176"
             style="fill:#231f1d;fill-opacity:1;fill-rule:nonzero;stroke:none"
             id="path26" /><path
             d="m 1871.46,103.246 c -28.59,0 -54.41,2.813 -77.33,8.399 -22.92,5.585 -43.09,13.664 -60.55,24.16 -17.47,10.5 -32.33,23.3 -44.62,38.488 -12.28,15.098 -22.11,32.207 -29.46,51.328 -6.02,15.281 -10.3,32.168 -12.89,50.75 -2.61,18.547 -3.9,39.289 -3.9,62.207 l 0,322.461 100.26,0 0,-313.465 c 0,-38.781 4.66,-69.035 13.91,-90.84 10.38,-24.316 25.54,-41.836 45.45,-52.629 19.89,-10.75 43.38,-16.152 70.38,-16.152 27.01,0 50.49,5.402 70.38,16.152 19.92,10.793 35.07,28.313 45.45,52.629 9.25,21.805 13.92,52.059 13.92,90.84 l 0,313.465 100.22,0 0,-322.461 c 0,-22.918 -1.27,-43.66 -3.89,-62.207 -2.59,-18.582 -6.87,-35.469 -12.87,-50.75 -7.38,-19.121 -17.27,-36.23 -29.68,-51.328 -12.38,-15.188 -27.55,-27.988 -45.42,-38.488 -17.87,-10.496 -38.4,-18.575 -61.57,-24.16 -23.21,-5.586 -49.08,-8.399 -77.79,-8.399"
             style="fill:#231f1d;fill-opacity:1;fill-rule:nonzero;stroke:none"
             id="path28" /><path
             d="m 2500.88,270.66 c 0,13.875 -3.42,25.145 -10.22,33.731 -6.82,8.593 -16.08,15.644 -27.83,21.062 -11.75,5.5 -24.89,9.902 -39.48,13.313 -14.58,3.418 -29.97,6.765 -46.06,10.027 -21.28,4.629 -41.62,10.176 -60.96,16.594 -19.38,6.386 -36.42,15.293 -51.16,26.59 -14.71,11.328 -26.46,25.722 -35.21,43.156 -8.71,17.449 -13.08,39.285 -13.08,65.515 0,28.887 5.04,54.075 15.16,75.489 10.09,21.418 23.78,39.133 41.1,53.203 17.34,14.043 37.67,24.512 60.97,31.504 23.36,6.965 49.6,10.441 78.8,10.441 29.18,0 58.55,-2.871 87.97,-8.586 29.49,-5.75 54.86,-13.125 76.12,-22.09 l 0,-85.984 c -28.38,11.199 -55.59,19.316 -81.65,24.355 -26.03,5.04 -50.52,7.598 -73.44,7.598 -33.03,0 -58.47,-6.035 -76.34,-18.039 -17.85,-12 -26.78,-29.969 -26.78,-54.004 0,-13.887 2.91,-25.34 8.78,-34.375 5.87,-9.031 13.85,-16.433 23.96,-22.273 10.06,-5.91 21.68,-10.598 34.77,-14.141 13.08,-3.547 27.03,-6.828 41.75,-9.836 23.16,-4.91 45.35,-10.566 66.51,-17.012 21.12,-6.375 39.89,-15.32 56.24,-26.777 16.37,-11.453 29.33,-26.394 38.87,-44.812 9.58,-18.411 14.33,-41.934 14.33,-70.567 0,-29.465 -5.46,-54.992 -16.37,-76.574 -10.91,-21.543 -26.4,-39.316 -46.44,-53.367 -20.05,-14.074 -44.39,-24.473 -73.06,-31.309 -28.63,-6.828 -60,-10.246 -94.13,-10.246 -29.74,0 -58.98,2.942 -87.73,8.809 -28.83,5.84 -52.73,14.113 -71.85,24.765 l 0,84.68 c 27.01,-11.711 53.33,-20.234 79,-25.566 25.62,-5.293 52.09,-7.981 79.37,-7.981 15.8,0 31.38,1.348 46.66,3.926 15.3,2.559 28.99,6.992 41.12,13.281 12.13,6.262 21.89,14.778 29.26,25.567 7.38,10.793 11.05,24.062 11.05,39.933"
             style="fill:#231f1d;fill-opacity:1;fill-rule:nonzero;stroke:none"
             id="path30" /><path
             d="m 3039.5,696.113 c -7.68,0 -14.86,-1.211 -21.54,-3.644 -6.68,-2.418 -12.48,-6.043 -17.39,-10.867 -4.92,-4.817 -8.79,-10.801 -11.63,-17.942 -2.84,-7.148 -4.26,-15.469 -4.26,-24.969 0,-9.433 1.32,-17.617 3.94,-24.558 2.64,-6.938 6.37,-12.68 11.21,-17.231 4.85,-4.539 10.69,-7.91 17.5,-10.097 6.81,-2.188 14.41,-3.282 22.78,-3.282 2.28,0 4.7,0.118 7.26,0.364 2.56,0.234 5.14,0.578 7.74,1.023 2.6,0.442 5.11,0.957 7.58,1.535 2.46,0.586 4.64,1.211 6.59,1.903 l 0,-14.762 c -4.04,-1.582 -8.72,-2.793 -14.06,-3.645 -5.33,-0.859 -10.8,-1.281 -16.4,-1.281 -11.41,0 -21.53,1.582 -30.35,4.766 -8.81,3.176 -16.21,7.734 -22.19,13.691 -6,5.938 -10.52,13.203 -13.59,21.789 -3.08,8.574 -4.61,18.301 -4.61,29.168 0,10.664 1.62,20.473 4.86,29.438 3.24,8.941 7.93,16.636 14.04,23.062 6.13,6.43 13.54,11.438 22.27,15.02 8.71,3.594 18.49,5.39 29.37,5.39 2.87,0 5.71,-0.125 8.51,-0.359 2.8,-0.246 5.48,-0.586 8.06,-1.027 2.55,-0.45 4.93,-0.977 7.11,-1.59 2.19,-0.617 4.08,-1.27 5.64,-1.946 l 0,-14.761 c -4.14,1.355 -8.68,2.508 -13.59,3.426 -4.93,0.925 -9.87,1.386 -14.85,1.386"
             style="fill:#4e5259;fill-opacity:1;fill-rule:nonzero;stroke:none"
             id="path32" /><path
             d="m 3126.47,657.559 c -3.67,0 -7.07,-0.715 -10.22,-2.161 -3.15,-1.425 -5.91,-3.378 -8.25,-5.839 -2.37,-2.461 -4.26,-5.348 -5.71,-8.661 -1.46,-3.32 -2.36,-6.855 -2.71,-10.617 l 49.84,0 c 0,3.828 -0.5,7.403 -1.5,10.715 -1.02,3.32 -2.48,6.199 -4.41,8.66 -1.95,2.461 -4.34,4.395 -7.17,5.805 -2.84,1.394 -6.13,2.098 -9.87,2.098 z m 8.38,-75.059 c 5.28,0 10.07,0.43 14.42,1.277 4.33,0.86 8.66,2.071 12.97,3.645 l 0,-13.234 c -3.49,-1.708 -7.8,-3.055 -12.92,-4.043 -5.13,-0.997 -10.64,-1.485 -16.52,-1.485 -6.97,0 -13.51,0.891 -19.63,2.656 -6.12,1.778 -11.41,4.653 -15.89,8.614 -4.48,3.965 -7.97,9.152 -10.51,15.539 -2.53,6.394 -3.79,14.101 -3.79,23.125 0,8.886 1.22,16.59 3.67,23.125 2.46,6.523 5.73,11.972 9.82,16.355 4.1,4.367 8.8,7.649 14.13,9.848 5.31,2.176 10.87,3.277 16.67,3.277 5.45,0 10.55,-0.906 15.28,-2.722 4.74,-1.805 8.85,-4.661 12.33,-8.567 3.48,-3.887 6.22,-8.914 8.24,-15.066 2.01,-6.153 3.01,-13.535 3.01,-22.149 0,-0.82 0,-1.523 0,-2.101 0,-0.582 -0.03,-1.895 -0.1,-3.946 l -67.27,0 c 0,-6.226 0.94,-11.503 2.82,-15.847 1.89,-4.336 4.45,-7.863 7.7,-10.559 3.24,-2.703 7.06,-4.668 11.43,-5.898 4.38,-1.231 9.08,-1.844 14.14,-1.844"
             style="fill:#4e5259;fill-opacity:1;fill-rule:nonzero;stroke:none"
             id="path34" /><path
             d="m 3202.18,655.098 0.31,0 c 1.78,2.254 3.75,4.355 5.9,6.308 2.15,1.942 4.56,3.653 7.23,5.125 2.66,1.465 5.58,2.617 8.76,3.438 3.19,0.824 6.65,1.23 10.41,1.23 4.44,0 8.62,-0.625 12.5,-1.855 3.91,-1.231 7.29,-3.211 10.16,-5.938 2.87,-2.742 5.14,-6.308 6.82,-10.722 1.68,-4.403 2.52,-9.825 2.52,-16.25 l 0,-65.215 -15.9,0 0,62.66 c 0,8.394 -1.62,14.449 -4.86,18.141 -3.27,3.695 -7.99,5.539 -14.21,5.539 -5.47,0 -10.78,-1.524 -15.89,-4.563 -5.14,-3.047 -9.54,-7.226 -13.23,-12.558 l 0,-69.219 -15.89,0 0,97.414 12.3,0 3.07,-13.535"
             style="fill:#4e5259;fill-opacity:1;fill-rule:nonzero;stroke:none"
             id="path36" /><path
             d="m 3342.61,571.016 c -1.37,-0.547 -3.45,-1.055 -6.25,-1.536 -2.81,-0.476 -6.15,-0.75 -10.05,-0.82 -5.13,0 -9.57,0.625 -13.33,1.895 -3.76,1.261 -6.9,3.078 -9.39,5.429 -2.49,2.364 -4.35,5.215 -5.58,8.567 -1.23,3.347 -1.85,7.082 -1.85,11.179 l 0,59.258 -18.77,0 0,13.645 18.77,0 0,26.66 15.9,0 0,-26.66 29.12,0 0,-13.645 -29.12,0 0,-56.797 c 0,-2.265 0.31,-4.343 0.97,-6.257 0.65,-1.914 1.67,-3.575 3.07,-4.969 1.41,-1.41 3.21,-2.5 5.39,-3.285 2.19,-0.789 4.82,-1.18 7.89,-1.18 2.12,0 4.36,0.168 6.72,0.516 2.36,0.332 4.53,0.785 6.51,1.328 l 0,-13.328"
             style="fill:#4e5259;fill-opacity:1;fill-rule:nonzero;stroke:none"
             id="path38" /><path
             d="m 3411.27,655.715 -1.23,0 c -3.76,0 -7.45,-0.344 -11.08,-1.027 -3.62,-0.684 -7.02,-1.727 -10.2,-3.126 -3.18,-1.406 -6.05,-3.136 -8.61,-5.183 -2.56,-2.055 -4.7,-4.477 -6.41,-7.277 l 0,-67.883 -15.9,0 0,97.414 12.31,0 3.08,-15.481 0.31,0 c 1.57,2.524 3.5,4.883 5.79,7.071 2.28,2.187 4.87,4.101 7.74,5.746 2.87,1.636 6.02,2.918 9.43,3.843 3.42,0.918 7.01,1.387 10.78,1.387 0.68,0 1.38,-0.019 2.09,-0.058 0.72,-0.028 1.35,-0.086 1.9,-0.157 l 0,-15.269"
             style="fill:#4e5259;fill-opacity:1;fill-rule:nonzero;stroke:none"
             id="path40" /><path
             d="m 3492.13,619.824 c 0,6.016 -0.73,11.367 -2.2,16.043 -1.48,4.688 -3.53,8.653 -6.15,11.895 -2.64,3.254 -5.76,5.715 -9.4,7.383 -3.61,1.679 -7.57,2.523 -11.89,2.523 -4.3,0 -8.26,-0.844 -11.89,-2.523 -3.62,-1.668 -6.75,-4.129 -9.38,-7.383 -2.64,-3.242 -4.69,-7.207 -6.15,-11.895 -1.48,-4.676 -2.21,-10.027 -2.21,-16.043 0,-5.945 0.73,-11.262 2.21,-15.945 1.46,-4.68 3.53,-8.637 6.2,-11.836 2.67,-3.227 5.81,-5.664 9.43,-7.336 3.63,-1.68 7.59,-2.512 11.9,-2.512 4.3,0 8.25,0.832 11.84,2.512 3.6,1.672 6.7,4.109 9.34,7.336 2.62,3.199 4.67,7.156 6.15,11.836 1.47,4.683 2.2,10 2.2,15.945 z m 16.61,0 c 0,-7.656 -1.09,-14.629 -3.28,-20.918 -2.19,-6.289 -5.27,-11.672 -9.28,-16.152 -4,-4.473 -8.84,-7.942 -14.51,-10.402 -5.67,-2.461 -12.03,-3.692 -19.07,-3.692 -7.25,0 -13.72,1.231 -19.43,3.692 -5.72,2.46 -10.56,5.929 -14.57,10.402 -4,4.48 -7.05,9.863 -9.18,16.152 -2.11,6.289 -3.17,13.262 -3.17,20.918 0,7.727 1.09,14.727 3.28,21.024 2.19,6.281 5.28,11.679 9.29,16.195 3.98,4.508 8.85,8.008 14.55,10.469 5.7,2.457 12.09,3.687 19.12,3.687 7.19,0 13.64,-1.23 19.39,-3.687 5.74,-2.461 10.59,-5.961 14.56,-10.469 3.96,-4.516 7.01,-9.914 9.12,-16.195 2.13,-6.297 3.18,-13.297 3.18,-21.024"
             style="fill:#4e5259;fill-opacity:1;fill-rule:nonzero;stroke:none"
             id="path42" /><path
             d="m 3573.55,672.117 c 0,-4.031 0.82,-7.359 2.46,-10 1.64,-2.625 3.83,-4.805 6.6,-6.504 2.75,-1.718 5.95,-3.113 9.61,-4.207 3.64,-1.094 7.44,-2.121 11.4,-3.078 5.32,-1.297 10.55,-2.734 15.69,-4.305 5.15,-1.574 9.73,-3.742 13.76,-6.511 4.01,-2.766 7.27,-6.379 9.75,-10.824 2.5,-4.442 3.74,-10.145 3.74,-17.118 0,-7.109 -1.35,-13.242 -4.04,-18.41 -2.7,-5.152 -6.42,-9.394 -11.18,-12.715 -4.75,-3.308 -10.37,-5.769 -16.88,-7.383 -6.48,-1.597 -13.59,-2.402 -21.33,-2.402 -3.55,0 -7.18,0.219 -10.91,0.664 -3.73,0.442 -7.28,1.047 -10.67,1.797 -3.38,0.742 -6.44,1.602 -9.18,2.559 -2.73,0.957 -4.88,1.914 -6.45,2.871 l 0,15.273 c 2.46,-1.23 5.22,-2.351 8.31,-3.379 3.06,-1.023 6.25,-1.894 9.53,-2.617 3.28,-0.711 6.6,-1.277 9.94,-1.687 3.36,-0.411 6.51,-0.618 9.43,-0.618 4.79,0 9.36,0.411 13.7,1.235 4.33,0.816 8.15,2.183 11.43,4.097 3.28,1.915 5.88,4.532 7.79,7.844 1.92,3.321 2.88,7.473 2.88,12.461 0,4.102 -0.84,7.488 -2.51,10.145 -1.68,2.675 -3.92,4.875 -6.72,6.621 -2.81,1.742 -6.04,3.156 -9.69,4.258 -3.66,1.086 -7.5,2.113 -11.54,3.07 -5.34,1.226 -10.55,2.613 -15.64,4.156 -5.09,1.535 -9.64,3.676 -13.63,6.406 -4,2.735 -7.22,6.25 -9.64,10.571 -2.43,4.293 -3.64,9.801 -3.64,16.5 0,6.972 1.28,12.968 3.82,18 2.55,5.019 6,9.168 10.36,12.453 4.35,3.277 9.36,5.711 15.05,7.281 5.66,1.574 11.72,2.363 18.14,2.363 7.32,0 14.13,-0.703 20.46,-2.109 6.32,-1.395 12.12,-3.223 17.37,-5.488 l 0,-15.477 c -5.66,2.391 -11.53,4.336 -17.58,5.852 -6.05,1.492 -12.52,2.285 -19.43,2.351 -5.19,0 -9.71,-0.566 -13.53,-1.687 -3.83,-1.133 -7.02,-2.738 -9.54,-4.828 -2.53,-2.078 -4.41,-4.61 -5.64,-7.586 -1.23,-2.969 -1.85,-6.27 -1.85,-9.895"
             style="fill:#4e5259;fill-opacity:1;fill-rule:nonzero;stroke:none"
             id="path44" /><path
             d="m 3668.77,571.219 0,97.414 15.89,0 0,-97.414 -15.89,0 z m -0.41,120.082 0,17.73 15.89,0 0,-17.73 -15.89,0"
             style="fill:#4e5259;fill-opacity:1;fill-rule:nonzero;stroke:none"
             id="path46" /><path
             d="m 3725.54,655.098 0.3,0 c 1.78,2.254 3.74,4.355 5.89,6.308 2.17,1.942 4.57,3.653 7.23,5.125 2.67,1.465 5.6,2.617 8.76,3.438 3.19,0.824 6.66,1.23 10.41,1.23 4.46,0 8.62,-0.625 12.52,-1.855 3.89,-1.231 7.28,-3.211 10.15,-5.938 2.87,-2.742 5.15,-6.308 6.83,-10.722 1.66,-4.403 2.5,-9.825 2.5,-16.25 l 0,-65.215 -15.89,0 0,62.66 c 0,8.394 -1.63,14.449 -4.87,18.141 -3.25,3.695 -7.98,5.539 -14.2,5.539 -5.47,0 -10.77,-1.524 -15.9,-4.563 -5.12,-3.047 -9.53,-7.226 -13.23,-12.558 l 0,-69.219 -15.89,0 0,97.414 12.3,0 3.09,-13.535"
             style="fill:#4e5259;fill-opacity:1;fill-rule:nonzero;stroke:none"
             id="path48" /><path
             d="m 3825.57,619.305 c 0,-7.657 0.92,-13.907 2.76,-18.758 1.86,-4.856 4.19,-8.633 7.03,-11.328 2.83,-2.707 5.93,-4.551 9.28,-5.539 3.35,-0.996 6.52,-1.485 9.53,-1.485 4.92,0 9.54,0.989 13.85,2.973 4.3,1.98 8.1,4.676 11.38,8.102 l 0,50.957 c -0.89,1.234 -2.12,2.628 -3.69,4.199 -1.58,1.574 -3.41,3.027 -5.49,4.367 -2.09,1.328 -4.46,2.461 -7.12,3.379 -2.67,0.926 -5.57,1.387 -8.72,1.387 -4.72,0 -8.86,-0.938 -12.46,-2.825 -3.59,-1.875 -6.6,-4.492 -9.02,-7.839 -2.43,-3.348 -4.26,-7.364 -5.49,-12.051 -1.23,-4.676 -1.84,-9.864 -1.84,-15.539 z m 26.76,51.894 c 4.24,-0.078 7.93,-0.625 11.08,-1.64 3.14,-1.036 5.84,-2.313 8.09,-3.844 2.26,-1.543 4.06,-3.07 5.38,-4.574 1.33,-1.504 2.25,-2.696 2.72,-3.582 l 0.41,0 3.28,11.074 12,0 0,-103.156 c 0,-7.516 -1.23,-14.059 -3.69,-19.637 -2.46,-5.567 -5.91,-10.203 -10.36,-13.899 -4.43,-3.687 -9.78,-6.433 -16.03,-8.25 -6.27,-1.804 -13.19,-2.714 -20.78,-2.714 -6.42,0 -12.16,0.566 -17.22,1.691 -5.06,1.133 -9.03,2.477 -11.9,4.051 l 0,13.426 c 2.33,-0.946 4.58,-1.758 6.77,-2.403 2.19,-0.652 4.44,-1.199 6.77,-1.64 2.32,-0.45 4.69,-0.77 7.12,-0.973 2.43,-0.207 5.11,-0.317 8.05,-0.317 11.42,0 20.17,2.676 26.25,8.008 6.09,5.332 9.13,13.469 9.13,24.399 l 0,13.023 -0.31,0 c -3.48,-3.824 -7.54,-6.719 -12.15,-8.66 -4.61,-1.953 -9.9,-2.922 -15.84,-2.922 -2.73,0 -5.68,0.305 -8.82,0.918 -3.15,0.617 -6.29,1.66 -9.44,3.125 -3.14,1.477 -6.15,3.418 -9.02,5.852 -2.87,2.422 -5.39,5.468 -7.58,9.121 -2.19,3.664 -3.95,7.976 -5.29,12.976 -1.33,4.985 -1.99,10.766 -1.99,17.325 0,9.093 1.23,16.972 3.69,23.632 2.46,6.672 5.7,12.192 9.74,16.567 4.03,4.375 8.65,7.633 13.84,9.793 5.2,2.148 10.56,3.23 16.1,3.23"
             style="fill:#4e5259;fill-opacity:1;fill-rule:nonzero;stroke:none"
             id="path50" /><path
             d="m 3958.41,568.66 c -5.06,0 -9.61,0.551 -13.63,1.641 -4.05,1.086 -7.58,2.629 -10.63,4.609 -3.04,1.985 -5.61,4.356 -7.73,7.133 -2.12,2.762 -3.79,5.789 -5.02,9.07 -0.96,2.461 -1.64,5.157 -2.05,8.098 -0.41,2.937 -0.63,6.148 -0.63,9.644 l 0,59.778 15.9,0 0,-59.68 c 0,-5.398 0.72,-9.91 2.15,-13.531 1.64,-4.106 4.29,-7.336 7.95,-9.692 3.65,-2.363 8.32,-3.535 14,-3.535 6.02,0 10.84,1.289 14.51,3.891 3.65,2.594 6.27,6.082 7.83,10.465 1.18,3.34 1.75,7.48 1.75,12.402 l 0,59.68 15.89,0 0,-59.883 c 0,-3.281 -0.18,-6.34 -0.57,-9.18 -0.37,-2.832 -0.96,-5.449 -1.78,-7.843 -1.23,-3.348 -2.92,-6.446 -5.07,-9.278 -2.17,-2.84 -4.81,-5.281 -7.95,-7.332 -3.14,-2.051 -6.8,-3.644 -10.92,-4.765 -4.14,-1.133 -8.81,-1.692 -14,-1.692"
             style="fill:#4e5259;fill-opacity:1;fill-rule:nonzero;stroke:none"
             id="path52" /><path
             d="m 4023.17,571.219 15.8867,0 0,148.477 -15.8867,0 0,-148.477 z"
             style="fill:#4e5259;fill-opacity:1;fill-rule:nonzero;stroke:none"
             id="path54" /><path
             d="m 4120.74,613.973 c -2.92,0.824 -6.39,1.613 -10.41,2.367 -4.01,0.75 -8.44,1.16 -13.27,1.226 -6.74,0 -12.01,-1.433 -15.82,-4.304 -3.81,-2.871 -5.72,-7.278 -5.72,-13.235 0,-3.007 0.48,-5.632 1.43,-7.89 0.95,-2.254 2.26,-4.121 3.94,-5.586 1.66,-1.473 3.63,-2.567 5.92,-3.281 2.27,-0.719 4.7,-1.075 7.29,-1.075 3.41,0 6.57,0.489 9.49,1.485 2.92,0.988 5.53,2.168 7.81,3.539 2.28,1.367 4.22,2.73 5.82,4.097 1.6,1.368 2.77,2.422 3.52,3.188 l 0,19.469 z m 0.82,-31.993 -0.41,0 c -1.3,-1.636 -2.94,-3.261 -4.92,-4.863 -1.98,-1.609 -4.27,-3.047 -6.86,-4.305 -2.6,-1.269 -5.44,-2.277 -8.52,-3.027 -3.08,-0.754 -6.36,-1.125 -9.84,-1.125 -4.72,0 -9.05,0.695 -12.97,2.102 -3.94,1.394 -7.33,3.449 -10.16,6.152 -2.83,2.695 -5.04,5.996 -6.61,9.891 -1.57,3.898 -2.35,8.3 -2.35,13.222 0,4.856 0.87,9.2 2.6,13.028 1.75,3.832 4.19,7.074 7.34,9.746 3.14,2.66 6.92,4.711 11.33,6.152 4.41,1.43 9.27,2.149 14.6,2.149 5.06,-0.067 9.75,-0.508 14.06,-1.329 4.3,-0.82 8.13,-1.851 11.48,-3.085 l 0.41,0 0,6.781 c 0,2.652 -0.16,5.015 -0.52,7.066 -0.33,2.055 -0.91,3.86 -1.73,5.434 -1.78,3.277 -4.61,6.004 -8.52,8.152 -3.89,2.156 -9.16,3.231 -15.78,3.231 -4.92,0 -9.56,-0.457 -13.9,-1.383 -4.34,-0.918 -8.66,-2.207 -12.98,-3.852 l 0,13.344 c 1.65,0.816 3.58,1.582 5.81,2.301 2.21,0.715 4.56,1.332 7.02,1.847 2.46,0.508 5.06,0.899 7.79,1.184 2.73,0.262 5.47,0.406 8.2,0.406 9.85,0 17.89,-1.746 24.15,-5.23 6.25,-3.489 10.75,-8.11 13.48,-13.852 1.03,-2.187 1.76,-4.59 2.21,-7.226 0.45,-2.625 0.66,-5.516 0.66,-8.661 l 0,-65.011 -13.32,0 -1.75,10.761"
             style="fill:#4e5259;fill-opacity:1;fill-rule:nonzero;stroke:none"
             id="path56" /><path
             d="m 4214.52,655.715 -1.23,0 c -3.76,0 -7.45,-0.344 -11.07,-1.027 -3.63,-0.684 -7.03,-1.727 -10.2,-3.126 -3.18,-1.406 -6.05,-3.136 -8.61,-5.183 -2.58,-2.055 -4.71,-4.477 -6.42,-7.277 l 0,-67.883 -15.89,0 0,97.414 12.31,0 3.06,-15.481 0.32,0 c 1.57,2.524 3.49,4.883 5.8,7.071 2.28,2.187 4.86,4.101 7.73,5.746 2.87,1.636 6.02,2.918 9.44,3.843 3.41,0.918 7.01,1.387 10.76,1.387 0.68,0 1.38,-0.019 2.11,-0.058 0.72,-0.028 1.34,-0.086 1.89,-0.157 l 0,-15.269"
             style="fill:#4e5259;fill-opacity:1;fill-rule:nonzero;stroke:none"
             id="path58" /><path
             d="m 4271.85,618.895 c 0,-5.602 0.63,-10.672 1.9,-15.223 1.26,-4.539 3.1,-8.41 5.48,-11.582 2.4,-3.184 5.33,-5.625 8.83,-7.332 3.47,-1.711 7.48,-2.563 11.99,-2.563 3.35,0 6.39,0.442 9.12,1.328 2.73,0.891 5.19,2.012 7.33,3.379 2.16,1.368 4.01,2.825 5.54,4.368 1.54,1.531 2.75,2.949 3.64,4.246 l 0,50.968 c -3.28,3.352 -7.08,6.036 -11.37,8.047 -4.32,2.02 -8.97,3.028 -13.95,3.028 -3.01,0 -6.17,-0.567 -9.49,-1.692 -3.32,-1.133 -6.39,-3.164 -9.23,-6.101 -2.84,-2.942 -5.18,-6.883 -7.02,-11.844 -1.85,-4.953 -2.77,-11.301 -2.77,-19.027 z m -16.61,-0.196 c 0,6.762 0.67,12.766 2,17.989 1.33,5.238 3.09,9.796 5.28,13.695 2.19,3.894 4.76,7.156 7.69,9.793 2.94,2.625 5.98,4.765 9.13,6.406 3.14,1.641 6.33,2.82 9.59,3.535 3.24,0.723 6.29,1.082 9.17,1.082 5.95,0 11.11,-0.996 15.48,-2.976 4.38,-1.985 8.3,-4.895 11.8,-8.719 l 0.3,0 0,60.191 15.89,0 0,-148.476 -11.99,0 -3.28,10.871 -0.41,0 c -1.23,-1.574 -2.67,-3.164 -4.31,-4.766 -1.64,-1.609 -3.57,-3.066 -5.79,-4.363 -2.23,-1.301 -4.78,-2.336 -7.69,-3.125 -2.91,-0.785 -6.27,-1.176 -10.1,-1.176 -5.33,0 -10.57,0.899 -15.69,2.719 -5.13,1.805 -9.69,4.715 -13.69,8.711 -4,4.004 -7.22,9.156 -9.68,15.484 -2.47,6.321 -3.7,14.024 -3.7,23.125"
             style="fill:#4e5259;fill-opacity:1;fill-rule:nonzero;stroke:none"
             id="path60" /><path
             d="m 4404.93,657.559 c -3.67,0 -7.08,-0.715 -10.23,-2.161 -3.15,-1.425 -5.9,-3.378 -8.25,-5.839 -2.36,-2.461 -4.25,-5.348 -5.72,-8.661 -1.44,-3.32 -2.34,-6.855 -2.69,-10.617 l 49.83,0 c 0,3.828 -0.5,7.403 -1.5,10.715 -1.01,3.32 -2.47,6.199 -4.42,8.66 -1.94,2.461 -4.32,4.395 -7.16,5.805 -2.85,1.394 -6.13,2.098 -9.86,2.098 z m 8.38,-75.059 c 5.26,0 10.06,0.43 14.41,1.277 4.34,0.86 8.66,2.071 12.97,3.645 l 0,-13.234 c -3.49,-1.708 -7.79,-3.055 -12.93,-4.043 -5.11,-0.997 -10.62,-1.485 -16.5,-1.485 -6.97,0 -13.52,0.891 -19.63,2.656 -6.13,1.778 -11.42,4.653 -15.9,8.614 -4.47,3.965 -7.97,9.152 -10.51,15.539 -2.53,6.394 -3.79,14.101 -3.79,23.125 0,8.886 1.22,16.59 3.68,23.125 2.46,6.523 5.72,11.972 9.82,16.355 4.08,4.367 8.79,7.649 14.11,9.848 5.33,2.176 10.88,3.277 16.67,3.277 5.46,0 10.56,-0.906 15.3,-2.722 4.74,-1.805 8.84,-4.661 12.32,-8.567 3.48,-3.887 6.23,-8.914 8.24,-15.066 2.01,-6.153 3.01,-13.535 3.01,-22.149 0,-0.82 0,-1.523 0,-2.101 0,-0.582 -0.03,-1.895 -0.1,-3.946 l -67.26,0 c 0,-6.226 0.93,-11.503 2.81,-15.847 1.88,-4.336 4.45,-7.863 7.69,-10.559 3.25,-2.703 7.07,-4.668 11.44,-5.898 4.38,-1.231 9.09,-1.844 14.15,-1.844"
             style="fill:#4e5259;fill-opacity:1;fill-rule:nonzero;stroke:none"
             id="path62" /><path
             d="m 4503.04,571.219 16.7227,0 0,137.199 -16.7227,0 0,-137.199 z"
             style="fill:#4e5259;fill-opacity:1;fill-rule:nonzero;stroke:none"
             id="path64" /><path
             d="m 4561.65,655.098 0.31,0 c 1.78,2.254 3.74,4.355 5.89,6.308 2.16,1.942 4.56,3.653 7.24,5.125 2.65,1.465 5.58,2.617 8.76,3.438 3.18,0.824 6.65,1.23 10.41,1.23 4.44,0 8.61,-0.625 12.51,-1.855 3.89,-1.231 7.28,-3.211 10.15,-5.938 2.87,-2.742 5.14,-6.308 6.82,-10.722 1.67,-4.403 2.51,-9.825 2.51,-16.25 l 0,-65.215 -15.89,0 0,62.66 c 0,8.394 -1.63,14.449 -4.87,18.141 -3.25,3.695 -7.98,5.539 -14.21,5.539 -5.47,0 -10.76,-1.524 -15.89,-4.563 -5.13,-3.047 -9.54,-7.226 -13.23,-12.558 l 0,-69.219 -15.89,0 0,97.414 12.3,0 3.08,-13.535"
             style="fill:#4e5259;fill-opacity:1;fill-rule:nonzero;stroke:none"
             id="path66" /><path
             d="m 4683.57,587.312 c 2.36,7.114 5.54,16.172 9.56,27.18 l 19.52,54.141 15.89,0 -36.83,-97.414 -16.48,0 -36.82,97.414 15.9,0 19.37,-54.141 c 3.85,-10.664 7.01,-19.726 9.48,-27.18 l 0.41,0"
             style="fill:#4e5259;fill-opacity:1;fill-rule:nonzero;stroke:none"
             id="path68" /><path
             d="m 4779.28,657.559 c -3.66,0 -7.08,-0.715 -10.23,-2.161 -3.15,-1.425 -5.9,-3.378 -8.26,-5.839 -2.34,-2.461 -4.25,-5.348 -5.7,-8.661 -1.46,-3.32 -2.36,-6.855 -2.7,-10.617 l 49.83,0 c 0,3.828 -0.5,7.403 -1.51,10.715 -0.99,3.32 -2.47,6.199 -4.41,8.66 -1.93,2.461 -4.32,4.395 -7.16,5.805 -2.84,1.394 -6.12,2.098 -9.86,2.098 z m 8.39,-75.059 c 5.25,0 10.05,0.43 14.4,1.277 4.34,0.86 8.66,2.071 12.97,3.645 l 0,-13.234 c -3.49,-1.708 -7.79,-3.055 -12.92,-4.043 -5.13,-0.997 -10.63,-1.485 -16.5,-1.485 -6.98,0 -13.53,0.891 -19.64,2.656 -6.13,1.778 -11.42,4.653 -15.89,8.614 -4.47,3.965 -7.98,9.152 -10.51,15.539 -2.54,6.394 -3.81,14.101 -3.81,23.125 0,8.886 1.23,16.59 3.69,23.125 2.45,6.523 5.73,11.972 9.82,16.355 4.09,4.367 8.8,7.649 14.11,9.848 5.32,2.176 10.88,3.277 16.68,3.277 5.45,0 10.55,-0.906 15.29,-2.722 4.74,-1.805 8.85,-4.661 12.33,-8.567 3.47,-3.887 6.22,-8.914 8.23,-15.066 2.01,-6.153 3.02,-13.535 3.02,-22.149 0,-0.82 0,-1.523 0,-2.101 0,-0.582 -0.04,-1.895 -0.1,-3.946 l -67.27,0 c 0,-6.226 0.94,-11.503 2.81,-15.847 1.88,-4.336 4.45,-7.863 7.7,-10.559 3.24,-2.703 7.05,-4.668 11.43,-5.898 4.37,-1.231 9.1,-1.844 14.16,-1.844"
             style="fill:#4e5259;fill-opacity:1;fill-rule:nonzero;stroke:none"
             id="path70" /><path
             d="m 4850.99,642.684 c 0,-2.657 0.56,-4.852 1.7,-6.563 1.13,-1.707 2.65,-3.086 4.56,-4.148 1.9,-1.055 4.11,-1.934 6.61,-2.61 2.51,-0.691 5.1,-1.308 7.77,-1.851 3.67,-0.824 7.15,-1.719 10.43,-2.715 3.27,-0.988 6.3,-2.485 9.07,-4.453 2.78,-1.996 5.01,-4.668 6.71,-8.059 1.71,-3.379 2.56,-7.773 2.56,-13.176 0,-4.921 -0.96,-9.273 -2.87,-13.074 -1.91,-3.789 -4.61,-6.973 -8.1,-9.531 -3.48,-2.57 -7.65,-4.512 -12.51,-5.852 -4.85,-1.328 -10.18,-1.992 -15.99,-1.992 -3.56,0 -6.79,0.188 -9.69,0.559 -2.91,0.379 -5.47,0.859 -7.7,1.433 -2.22,0.586 -4.12,1.184 -5.68,1.797 -1.58,0.617 -2.87,1.192 -3.9,1.739 l 0,13.339 c 4.03,-1.64 8.02,-2.949 11.98,-3.906 3.96,-0.953 8.33,-1.426 13.09,-1.426 3.75,0 7.15,0.332 10.16,1.02 3.03,0.68 5.62,1.695 7.81,3.023 2.18,1.34 3.86,3.008 5.03,5.032 1.18,2.011 1.77,4.355 1.77,7.023 0,2.73 -0.55,4.988 -1.62,6.766 -1.08,1.777 -2.51,3.242 -4.32,4.406 -1.82,1.16 -3.91,2.117 -6.3,2.871 -2.38,0.75 -4.88,1.441 -7.5,2.051 -3.42,0.75 -6.89,1.636 -10.42,2.672 -3.51,1.015 -6.72,2.461 -9.61,4.296 -2.89,1.86 -5.21,4.368 -6.99,7.54 -1.78,3.183 -2.67,7.265 -2.67,12.257 0,5.125 0.92,9.571 2.77,13.328 1.84,3.762 4.33,6.875 7.48,9.336 3.14,2.461 6.81,4.297 10.98,5.528 4.17,1.23 8.57,1.855 13.22,1.855 5.41,0 10.41,-0.515 15.03,-1.543 4.61,-1.023 8.8,-2.32 12.56,-3.894 l 0,-13.535 c -4.01,1.574 -8.06,2.851 -12.16,3.847 -4.1,0.985 -8.32,1.516 -12.66,1.594 -3.67,0 -6.8,-0.383 -9.4,-1.137 -2.61,-0.75 -4.74,-1.797 -6.41,-3.125 -1.67,-1.336 -2.88,-2.91 -3.64,-4.715 -0.78,-1.816 -1.15,-3.82 -1.15,-6.007"
             style="fill:#4e5259;fill-opacity:1;fill-rule:nonzero;stroke:none"
             id="path72" /><path
             d="m 4969.58,571.016 c -1.37,-0.547 -3.46,-1.055 -6.26,-1.536 -2.8,-0.476 -6.15,-0.75 -10.05,-0.82 -5.13,0 -9.57,0.625 -13.33,1.895 -3.76,1.261 -6.88,3.078 -9.38,5.429 -2.5,2.364 -4.36,5.215 -5.59,8.567 -1.23,3.347 -1.84,7.082 -1.84,11.179 l 0,59.258 -18.76,0 0,13.645 18.76,0 0,26.66 15.88,0 0,-26.66 29.12,0 0,-13.645 -29.12,0 0,-56.797 c 0,-2.265 0.34,-4.343 0.98,-6.257 0.64,-1.914 1.68,-3.575 3.08,-4.969 1.39,-1.41 3.19,-2.5 5.38,-3.285 2.18,-0.789 4.82,-1.18 7.9,-1.18 2.12,0 4.35,0.168 6.72,0.516 2.35,0.332 4.52,0.785 6.51,1.328 l 0,-13.328"
             style="fill:#4e5259;fill-opacity:1;fill-rule:nonzero;stroke:none"
             id="path74" /><path
             d="m 4985.83,571.219 0,97.414 15.9,0 0,-97.414 -15.9,0 z m -0.41,120.082 0,17.73 15.9,0 0,-17.73 -15.9,0"
             style="fill:#4e5259;fill-opacity:1;fill-rule:nonzero;stroke:none"
             id="path76" /><path
             d="m 5038.19,619.305 c 0,-7.657 0.92,-13.907 2.77,-18.758 1.84,-4.856 4.19,-8.633 7.02,-11.328 2.83,-2.707 5.94,-4.551 9.28,-5.539 3.36,-0.996 6.53,-1.485 9.54,-1.485 4.92,0 9.54,0.989 13.83,2.973 4.32,1.98 8.11,4.676 11.39,8.102 l 0,50.957 c -0.89,1.234 -2.12,2.628 -3.69,4.199 -1.57,1.574 -3.4,3.027 -5.49,4.367 -2.09,1.328 -4.45,2.461 -7.13,3.379 -2.65,0.926 -5.56,1.387 -8.71,1.387 -4.71,0 -8.87,-0.938 -12.46,-2.825 -3.58,-1.875 -6.6,-4.492 -9.02,-7.839 -2.42,-3.348 -4.26,-7.364 -5.49,-12.051 -1.23,-4.676 -1.84,-9.864 -1.84,-15.539 z m 26.76,51.894 c 4.24,-0.078 7.93,-0.625 11.08,-1.64 3.14,-1.036 5.84,-2.313 8.1,-3.844 2.25,-1.543 4.04,-3.07 5.38,-4.574 1.33,-1.504 2.24,-2.696 2.72,-3.582 l 0.41,0 3.28,11.074 12,0 0,-103.156 c 0,-7.516 -1.23,-14.059 -3.69,-19.637 -2.46,-5.567 -5.92,-10.203 -10.36,-13.899 -4.45,-3.687 -9.8,-6.433 -16.05,-8.25 -6.26,-1.804 -13.18,-2.714 -20.76,-2.714 -6.43,0 -12.17,0.566 -17.23,1.691 -5.05,1.133 -9.02,2.477 -11.89,4.051 l 0,13.426 c 2.32,-0.946 4.57,-1.758 6.76,-2.403 2.18,-0.652 4.45,-1.199 6.77,-1.64 2.33,-0.45 4.69,-0.77 7.12,-0.973 2.44,-0.207 5.11,-0.317 8.06,-0.317 11.41,0 20.16,2.676 26.25,8.008 6.07,5.332 9.12,13.469 9.12,24.399 l 0,13.023 -0.31,0 c -3.48,-3.824 -7.53,-6.719 -12.15,-8.66 -4.61,-1.953 -9.89,-2.922 -15.84,-2.922 -2.73,0 -5.67,0.305 -8.82,0.918 -3.14,0.617 -6.29,1.66 -9.43,3.125 -3.15,1.477 -6.15,3.418 -9.02,5.852 -2.88,2.422 -5.41,5.468 -7.59,9.121 -2.19,3.664 -3.95,7.976 -5.29,12.976 -1.32,4.985 -2,10.766 -2,17.325 0,9.093 1.23,16.972 3.69,23.632 2.46,6.672 5.72,12.192 9.75,16.567 4.03,4.375 8.65,7.633 13.85,9.793 5.19,2.148 10.55,3.23 16.09,3.23"
             style="fill:#4e5259;fill-opacity:1;fill-rule:nonzero;stroke:none"
             id="path78" /><path
             d="m 5188.56,613.973 c -2.93,0.824 -6.39,1.613 -10.41,2.367 -4.02,0.75 -8.43,1.16 -13.27,1.226 -6.74,0 -12.01,-1.433 -15.82,-4.304 -3.82,-2.871 -5.71,-7.278 -5.71,-13.235 0,-3.007 0.47,-5.632 1.43,-7.89 0.95,-2.254 2.26,-4.121 3.92,-5.586 1.67,-1.473 3.64,-2.567 5.92,-3.281 2.28,-0.719 4.72,-1.075 7.3,-1.075 3.4,0 6.57,0.489 9.5,1.485 2.93,0.988 5.52,2.168 7.81,3.539 2.27,1.367 4.22,2.73 5.82,4.097 1.59,1.368 2.76,2.422 3.51,3.188 l 0,19.469 z m 0.82,-31.993 -0.41,0 c -1.29,-1.636 -2.93,-3.261 -4.92,-4.863 -1.98,-1.609 -4.27,-3.047 -6.87,-4.305 -2.6,-1.269 -5.43,-2.277 -8.51,-3.027 -3.07,-0.754 -6.36,-1.125 -9.84,-1.125 -4.72,0 -9.04,0.695 -12.97,2.102 -3.94,1.394 -7.32,3.449 -10.16,6.152 -2.84,2.695 -5.04,5.996 -6.61,9.891 -1.57,3.898 -2.36,8.3 -2.36,13.222 0,4.856 0.88,9.2 2.62,13.028 1.74,3.832 4.19,7.074 7.33,9.746 3.14,2.66 6.92,4.711 11.33,6.152 4.41,1.43 9.28,2.149 14.62,2.149 5.06,-0.067 9.73,-0.508 14.04,-1.329 4.31,-0.82 8.13,-1.851 11.48,-3.085 l 0.41,0 0,6.781 c 0,2.652 -0.17,5.015 -0.5,7.066 -0.35,2.055 -0.93,3.86 -1.75,5.434 -1.78,3.277 -4.62,6.004 -8.51,8.152 -3.9,2.156 -9.16,3.231 -15.8,3.231 -4.92,0 -9.55,-0.457 -13.88,-1.383 -4.35,-0.918 -8.68,-2.207 -12.97,-3.852 l 0,13.344 c 1.64,0.816 3.56,1.582 5.79,2.301 2.21,0.715 4.56,1.332 7.02,1.847 2.46,0.508 5.06,0.899 7.79,1.184 2.74,0.262 5.47,0.406 8.21,0.406 9.84,0 17.89,-1.746 24.15,-5.23 6.25,-3.489 10.75,-8.11 13.48,-13.852 1.02,-2.187 1.76,-4.59 2.2,-7.226 0.44,-2.625 0.67,-5.516 0.67,-8.661 l 0,-65.011 -13.34,0 -1.74,10.761"
             style="fill:#4e5259;fill-opacity:1;fill-rule:nonzero;stroke:none"
             id="path80" /><path
             d="m 5270.75,671.199 c 4.73,0 9.24,-0.496 13.54,-1.492 4.31,-0.988 8,-2.371 11.07,-4.152 l 0,-13.219 c -4.3,1.637 -8.26,2.867 -11.89,3.687 -3.62,0.821 -7.31,1.235 -11.08,1.235 -3.96,0 -7.89,-0.656 -11.78,-1.957 -3.9,-1.297 -7.39,-3.438 -10.46,-6.406 -3.08,-2.977 -5.56,-6.903 -7.44,-11.797 -1.88,-4.879 -2.82,-10.957 -2.82,-18.203 0,-5.262 0.71,-10.118 2.11,-14.551 1.39,-4.453 3.48,-8.289 6.25,-11.543 2.78,-3.242 6.23,-5.77 10.41,-7.586 4.16,-1.809 8.99,-2.715 14.46,-2.715 3.96,0 7.96,0.43 11.99,1.277 4.04,0.86 7.97,2.071 11.79,3.645 l 0,-13.234 c -1.16,-0.68 -2.68,-1.368 -4.57,-2.051 -1.87,-0.684 -3.94,-1.278 -6.19,-1.785 -2.26,-0.516 -4.65,-0.926 -7.18,-1.231 -2.52,-0.312 -5.06,-0.461 -7.58,-0.461 -6.57,0 -12.78,0.988 -18.62,2.973 -5.84,1.98 -10.95,5.015 -15.33,9.121 -4.37,4.098 -7.83,9.297 -10.35,15.586 -2.54,6.289 -3.8,13.75 -3.8,22.359 0,6.418 0.68,12.199 2,17.324 1.33,5.129 3.17,9.641 5.49,13.536 2.33,3.898 5.04,7.207 8.15,9.945 3.1,2.73 6.42,4.976 9.94,6.715 3.52,1.75 7.17,3.008 10.93,3.801 3.75,0.781 7.41,1.179 10.96,1.179"
             style="fill:#4e5259;fill-opacity:1;fill-rule:nonzero;stroke:none"
             id="path82" /><path
             d="m 5315.73,571.219 0,97.414 15.89,0 0,-97.414 -15.89,0 z m -0.41,120.082 0,17.73 15.89,0 0,-17.73 -15.89,0"
             style="fill:#4e5259;fill-opacity:1;fill-rule:nonzero;stroke:none"
             id="path84" /><path
             d="m 5421.81,722.254 -16.51,-35.781 -13.33,0 12.61,35.781 17.23,0 z m 5.54,-102.43 c 0,6.016 -0.74,11.367 -2.2,16.043 -1.48,4.688 -3.53,8.653 -6.16,11.895 -2.63,3.254 -5.76,5.715 -9.38,7.383 -3.62,1.679 -7.59,2.523 -11.9,2.523 -4.3,0 -8.27,-0.844 -11.89,-2.523 -3.62,-1.668 -6.75,-4.129 -9.38,-7.383 -2.64,-3.242 -4.69,-7.207 -6.16,-11.895 -1.46,-4.676 -2.2,-10.027 -2.2,-16.043 0,-5.945 0.74,-11.262 2.2,-15.945 1.47,-4.68 3.54,-8.637 6.21,-11.836 2.66,-3.227 5.8,-5.664 9.44,-7.336 3.61,-1.68 7.58,-2.512 11.89,-2.512 4.3,0 8.25,0.832 11.84,2.512 3.59,1.672 6.7,4.109 9.33,7.336 2.63,3.199 4.68,7.156 6.16,11.836 1.46,4.683 2.2,10 2.2,15.945 z m 16.61,0 c 0,-7.656 -1.1,-14.629 -3.29,-20.918 -2.18,-6.289 -5.27,-11.672 -9.27,-16.152 -4,-4.473 -8.83,-7.942 -14.52,-10.402 -5.66,-2.461 -12.03,-3.692 -19.06,-3.692 -7.24,0 -13.73,1.231 -19.43,3.692 -5.71,2.46 -10.57,5.929 -14.56,10.402 -4.01,4.48 -7.06,9.863 -9.18,16.152 -2.12,6.289 -3.18,13.262 -3.18,20.918 0,7.727 1.1,14.727 3.29,21.024 2.18,6.281 5.27,11.679 9.27,16.195 4,4.508 8.85,8.008 14.56,10.469 5.71,2.457 12.08,3.687 19.12,3.687 7.18,0 13.65,-1.23 19.39,-3.687 5.74,-2.461 10.59,-5.961 14.55,-10.469 3.97,-4.516 7.01,-9.914 9.13,-16.195 2.12,-6.297 3.18,-13.297 3.18,-21.024"
             style="fill:#4e5259;fill-opacity:1;fill-rule:nonzero;stroke:none"
             id="path86" /><path
             d="m 5478.16,655.098 0.31,0 c 1.77,2.254 3.75,4.355 5.9,6.308 2.15,1.942 4.57,3.653 7.22,5.125 2.68,1.465 5.6,2.617 8.77,3.438 3.18,0.824 6.65,1.23 10.41,1.23 4.44,0 8.61,-0.625 12.51,-1.855 3.9,-1.231 7.28,-3.211 10.15,-5.938 2.87,-2.742 5.14,-6.308 6.82,-10.722 1.67,-4.403 2.51,-9.825 2.51,-16.25 l 0,-65.215 -15.89,0 0,62.66 c 0,8.394 -1.63,14.449 -4.87,18.141 -3.25,3.695 -7.99,5.539 -14.2,5.539 -5.47,0 -10.77,-1.524 -15.9,-4.563 -5.12,-3.047 -9.53,-7.226 -13.22,-12.558 l 0,-69.219 -15.9,0 0,97.414 12.31,0 3.07,-13.535"
             style="fill:#4e5259;fill-opacity:1;fill-rule:nonzero;stroke:none"
             id="path88" /><path
             d="m 3009.01,417.559 c -3.67,0 -7.08,-0.715 -10.23,-2.161 -3.15,-1.425 -5.9,-3.378 -8.25,-5.839 -2.36,-2.461 -4.25,-5.348 -5.72,-8.661 -1.44,-3.32 -2.34,-6.855 -2.69,-10.617 l 49.83,0 c 0,3.828 -0.49,7.403 -1.5,10.715 -1.01,3.32 -2.47,6.199 -4.41,8.66 -1.95,2.461 -4.33,4.395 -7.16,5.805 -2.85,1.394 -6.14,2.098 -9.87,2.098 z m 8.38,-75.059 c 5.27,0 10.06,0.43 14.42,1.277 4.33,0.86 8.65,2.071 12.97,3.645 l 0,-13.234 c -3.5,-1.708 -7.8,-3.055 -12.93,-4.043 -5.12,-0.997 -10.63,-1.485 -16.51,-1.485 -6.97,0 -13.51,0.891 -19.63,2.656 -6.13,1.778 -11.42,4.653 -15.9,8.614 -4.47,3.965 -7.96,9.152 -10.5,15.539 -2.54,6.394 -3.8,14.101 -3.8,23.125 0,8.886 1.22,16.59 3.68,23.125 2.46,6.523 5.72,11.972 9.82,16.355 4.09,4.367 8.79,7.649 14.12,9.848 5.32,2.176 10.87,3.277 16.66,3.277 5.46,0 10.56,-0.906 15.3,-2.722 4.74,-1.805 8.85,-4.661 12.32,-8.567 3.48,-3.887 6.23,-8.914 8.24,-15.066 2.02,-6.153 3.01,-13.535 3.01,-22.149 0,-0.82 0,-1.523 0,-2.101 0,-0.582 -0.03,-1.895 -0.1,-3.946 l -67.26,0 c 0,-6.226 0.94,-11.503 2.81,-15.847 1.89,-4.336 4.45,-7.863 7.7,-10.559 3.24,-2.703 7.06,-4.668 11.43,-5.898 4.38,-1.231 9.09,-1.844 14.15,-1.844"
             style="fill:#4e5259;fill-opacity:1;fill-rule:nonzero;stroke:none"
             id="path90" /><path
             d="m 3084.72,415.098 0.31,0 c 1.78,2.254 3.74,4.355 5.89,6.308 2.16,1.942 4.56,3.653 7.23,5.125 2.66,1.465 5.59,2.617 8.76,3.438 3.19,0.824 6.65,1.23 10.41,1.23 4.45,0 8.62,-0.625 12.51,-1.855 3.9,-1.231 7.29,-3.211 10.16,-5.938 2.87,-2.742 5.14,-6.308 6.82,-10.722 1.67,-4.403 2.51,-9.825 2.51,-16.25 l 0,-65.215 -15.89,0 0,62.66 c 0,8.394 -1.63,14.449 -4.88,18.141 -3.25,3.695 -7.97,5.539 -14.2,5.539 -5.47,0 -10.77,-1.524 -15.89,-4.563 -5.13,-3.047 -9.54,-7.226 -13.24,-12.558 l 0,-69.219 -15.88,0 0,97.414 12.3,0 3.08,-13.535"
             style="fill:#4e5259;fill-opacity:1;fill-rule:nonzero;stroke:none"
             id="path92" /><path
             d="m 3266.63,331.219 -25.12,0 0,116.172 -44.29,0 0,21.027 113.61,0 0,-21.027 -44.2,0 0,-116.172"
             style="fill:#4e5259;fill-opacity:1;fill-rule:nonzero;stroke:none"
             id="path94" /><path
             d="m 3349.03,414.07 c -3.08,0 -5.82,-0.562 -8.2,-1.687 -2.4,-1.133 -4.47,-2.664 -6.21,-4.621 -1.74,-1.942 -3.13,-4.215 -4.15,-6.817 -1.03,-2.597 -1.71,-5.371 -2.05,-8.3 l 39.07,0 c 0,2.929 -0.4,5.703 -1.19,8.3 -0.78,2.602 -1.93,4.875 -3.48,6.817 -1.54,1.957 -3.45,3.488 -5.74,4.621 -2.29,1.125 -4.98,1.687 -8.05,1.687 z m 9.74,-65.828 c 4.72,0 9.64,0.477 14.77,1.434 5.12,0.961 10.32,2.328 15.58,4.101 l 0,-19.375 c -3.14,-1.375 -7.96,-2.675 -14.46,-3.906 -6.49,-1.23 -13.22,-1.836 -20.2,-1.836 -7.04,0 -13.73,0.899 -20.04,2.719 -6.32,1.805 -11.85,4.723 -16.56,8.766 -4.73,4.027 -8.46,9.257 -11.23,15.683 -2.77,6.43 -4.16,14.223 -4.16,23.383 0,9.019 1.31,16.91 3.91,23.687 2.59,6.758 6.07,12.364 10.45,16.821 4.37,4.429 9.39,7.769 15.02,9.988 5.64,2.227 11.47,3.328 17.49,3.328 6.29,0 12.08,-0.957 17.37,-2.867 5.3,-1.914 9.88,-4.926 13.75,-9.027 3.86,-4.098 6.87,-9.375 9.02,-15.84 2.15,-6.453 3.23,-14.102 3.23,-22.91 -0.06,-3.426 -0.17,-6.329 -0.31,-8.719 l -65.11,0 c 0.34,-4.578 1.37,-8.496 3.07,-11.738 1.72,-3.254 3.95,-5.879 6.72,-7.903 2.77,-2.011 6,-3.484 9.69,-4.402 3.69,-0.93 7.69,-1.387 12,-1.387"
             style="fill:#4e5259;fill-opacity:1;fill-rule:nonzero;stroke:none"
             id="path96" /><path
             d="m 3480.54,333.367 c -3.07,-1.297 -6.84,-2.398 -11.27,-3.328 -4.46,-0.918 -9.13,-1.379 -14.06,-1.379 -7.17,0 -13.87,1.016 -20.09,3.067 -6.22,2.05 -11.65,5.168 -16.3,9.335 -4.65,4.172 -8.31,9.454 -10.98,15.84 -2.66,6.399 -4,13.86 -4,22.403 0,9.574 1.54,17.773 4.62,24.613 3.07,6.836 7.06,12.391 11.94,16.668 4.88,4.266 10.39,7.41 16.5,9.434 6.13,2.011 12.16,3.015 18.11,3.015 4.44,0 8.71,-0.39 12.81,-1.172 4.1,-0.789 7.83,-1.863 11.18,-3.23 l 0,-19.793 c -3,1.297 -6.2,2.34 -9.58,3.133 -3.39,0.781 -7.03,1.179 -10.92,1.179 -3.9,0 -7.63,-0.601 -11.19,-1.797 -3.55,-1.199 -6.69,-3.093 -9.43,-5.691 -2.73,-2.598 -4.9,-6.035 -6.5,-10.305 -1.61,-4.273 -2.42,-9.421 -2.42,-15.429 0,-4.383 0.62,-8.496 1.85,-12.364 1.23,-3.855 3.03,-7.156 5.39,-9.89 2.34,-2.735 5.35,-4.942 9.02,-6.614 3.66,-1.675 7.97,-2.515 12.97,-2.515 4.44,0 8.48,0.445 12.09,1.336 3.64,0.887 7.05,1.98 10.26,3.281 l 0,-19.797"
             style="fill:#4e5259;fill-opacity:1;fill-rule:nonzero;stroke:none"
             id="path98" /><path
             d="m 3517.62,416.738 0.41,0 c 1.43,2.051 3.25,4.063 5.44,6.043 2.18,1.985 4.67,3.731 7.48,5.235 2.8,1.504 5.9,2.714 9.27,3.644 3.39,0.918 7,1.375 10.82,1.375 3.63,0 7.13,-0.406 10.51,-1.23 3.39,-0.821 6.49,-2.098 9.28,-3.836 2.81,-1.75 5.28,-4.004 7.44,-6.77 2.15,-2.773 3.85,-6.07 5.08,-9.898 0.68,-2.121 1.13,-4.426 1.38,-6.914 0.24,-2.5 0.36,-5.395 0.36,-8.672 l 0,-64.496 -24.3,0 0,60.707 c 0,2.664 -0.11,4.949 -0.31,6.875 -0.21,1.902 -0.59,3.582 -1.13,5.015 -1.23,3.149 -3.09,5.403 -5.59,6.77 -2.5,1.367 -5.52,2.051 -9.07,2.051 -4.72,0 -9.25,-1.114 -13.59,-3.332 -4.34,-2.227 -8.18,-5.457 -11.54,-9.688 l 0,-68.398 -24.3,0 0,99.355 20.1,0 2.26,-13.836"
             style="fill:#4e5259;fill-opacity:1;fill-rule:nonzero;stroke:none"
             id="path100" /><path
             d="m 3675.07,380.848 c 0,5.265 -0.62,9.914 -1.85,13.949 -1.23,4.031 -2.94,7.41 -5.12,10.152 -2.19,2.727 -4.83,4.778 -7.89,6.153 -3.09,1.359 -6.43,2.05 -10.06,2.05 -3.56,0 -6.86,-0.691 -9.89,-2.05 -3.04,-1.375 -5.66,-3.426 -7.85,-6.153 -2.19,-2.742 -3.89,-6.121 -5.12,-10.152 -1.24,-4.035 -1.85,-8.684 -1.85,-13.949 0,-5.262 0.61,-9.91 1.85,-13.946 1.23,-4.031 2.95,-7.398 5.18,-10.097 2.21,-2.703 4.84,-4.754 7.89,-6.153 3.04,-1.406 6.37,-2.105 10,-2.105 3.61,0 6.93,0.699 9.94,2.105 3.01,1.399 5.61,3.45 7.8,6.153 2.18,2.699 3.89,6.066 5.12,10.097 1.23,4.036 1.85,8.684 1.85,13.946 z m 25.12,0 c 0,-7.793 -1.16,-14.903 -3.48,-21.328 -2.33,-6.426 -5.67,-11.93 -10,-16.504 -4.35,-4.59 -9.59,-8.125 -15.74,-10.614 -6.16,-2.5 -13.03,-3.742 -20.61,-3.742 -7.79,0 -14.78,1.242 -20.98,3.742 -6.19,2.489 -11.42,6.024 -15.74,10.614 -4.29,4.574 -7.6,10.078 -9.88,16.504 -2.3,6.425 -3.44,13.535 -3.44,21.328 0,7.793 1.15,14.906 3.48,21.328 2.32,6.426 5.66,11.926 10,16.504 4.33,4.582 9.59,8.125 15.74,10.617 6.15,2.5 13.03,3.738 20.61,3.738 7.79,0 14.78,-1.238 20.97,-3.738 6.18,-2.492 11.43,-6.035 15.75,-10.617 4.29,-4.578 7.59,-10.078 9.88,-16.504 2.29,-6.422 3.44,-13.535 3.44,-21.328"
             style="fill:#4e5259;fill-opacity:1;fill-rule:nonzero;stroke:none"
             id="path102" /><path
             d="m 3716.46,331.219 24.2891,0 0,148.477 -24.2891,0 0,-148.477 z"
             style="fill:#4e5259;fill-opacity:1;fill-rule:nonzero;stroke:none"
             id="path104" /><path
             d="m 3831.77,380.848 c 0,5.265 -0.63,9.914 -1.86,13.949 -1.23,4.031 -2.93,7.41 -5.12,10.152 -2.18,2.727 -4.82,4.778 -7.9,6.153 -3.07,1.359 -6.42,2.05 -10.04,2.05 -3.56,0 -6.86,-0.691 -9.9,-2.05 -3.04,-1.375 -5.65,-3.426 -7.84,-6.153 -2.19,-2.742 -3.9,-6.121 -5.14,-10.152 -1.23,-4.035 -1.83,-8.684 -1.83,-13.949 0,-5.262 0.6,-9.91 1.83,-13.946 1.24,-4.031 2.96,-7.398 5.19,-10.097 2.22,-2.703 4.85,-4.754 7.89,-6.153 3.04,-1.406 6.38,-2.105 10,-2.105 3.62,0 6.94,0.699 9.95,2.105 3.01,1.399 5.61,3.45 7.79,6.153 2.19,2.699 3.89,6.066 5.12,10.097 1.23,4.036 1.86,8.684 1.86,13.946 z m 25.11,0 c 0,-7.793 -1.16,-14.903 -3.48,-21.328 -2.33,-6.426 -5.66,-11.93 -10,-16.504 -4.35,-4.59 -9.58,-8.125 -15.73,-10.614 -6.16,-2.5 -13.03,-3.742 -20.62,-3.742 -7.79,0 -14.78,1.242 -20.97,3.742 -6.19,2.489 -11.43,6.024 -15.74,10.614 -4.3,4.574 -7.61,10.078 -9.89,16.504 -2.3,6.425 -3.44,13.535 -3.44,21.328 0,7.793 1.16,14.906 3.49,21.328 2.32,6.426 5.65,11.926 10,16.504 4.33,4.582 9.59,8.125 15.74,10.617 6.15,2.5 13.02,3.738 20.61,3.738 7.79,0 14.78,-1.238 20.96,-3.738 6.18,-2.492 11.44,-6.035 15.74,-10.617 4.31,-4.578 7.61,-10.078 9.9,-16.504 2.28,-6.422 3.43,-13.535 3.43,-21.328"
             style="fill:#4e5259;fill-opacity:1;fill-rule:nonzero;stroke:none"
             id="path106" /><path
             d="m 3910.26,365.77 -25.63,-34.551 -27.89,0 39.27,50.656 -36.92,48.699 28.62,0 23.17,-32.812 23.58,32.812 28.71,0 -37.94,-48.594 38.97,-50.761 -28.41,0 -25.53,34.551"
             style="fill:#4e5259;fill-opacity:1;fill-rule:nonzero;stroke:none"
             id="path108" /><path
             d="m 4010.6,482.258 -16.92,-35.785 -18.87,0 12.21,35.785 23.58,0 z m -37.74,-51.684 24.31,0 0,-99.355 -24.31,0 0,99.355"
             style="fill:#4e5259;fill-opacity:1;fill-rule:nonzero;stroke:none"
             id="path110" /><path
             d="m 4074.64,373.562 c -2.33,0.547 -4.98,1.047 -7.99,1.497 -3.01,0.437 -6.05,0.664 -9.13,0.664 -5.95,0 -10.65,-1.18 -14.1,-3.535 -3.45,-2.364 -5.18,-5.969 -5.18,-10.821 0,-2.258 0.39,-4.219 1.18,-5.898 0.79,-1.668 1.85,-3.059 3.18,-4.153 1.34,-1.093 2.89,-1.914 4.67,-2.461 1.77,-0.546 3.66,-0.82 5.63,-0.82 2.46,0 4.79,0.324 6.97,0.977 2.19,0.644 4.21,1.465 6.06,2.461 1.84,0.988 3.49,2.101 4.97,3.332 1.47,1.23 2.72,2.422 3.74,3.582 l 0,15.175 z m 1.95,-31.777 -0.41,0 c -1.37,-1.441 -3.01,-2.906 -4.92,-4.414 -1.91,-1.504 -4.1,-2.918 -6.56,-4.258 -2.46,-1.328 -5.2,-2.398 -8.21,-3.222 -3,-0.821 -6.25,-1.231 -9.74,-1.231 -4.71,0 -9.12,0.735 -13.22,2.199 -4.11,1.477 -7.62,3.594 -10.57,6.36 -2.93,2.769 -5.25,6.121 -6.92,10.047 -1.67,3.933 -2.51,8.32 -2.51,13.172 0,5.332 0.97,10.117 2.93,14.359 1.94,4.234 4.66,7.832 8.14,10.769 3.5,2.942 7.66,5.176 12.52,6.719 4.84,1.531 10.21,2.305 16.09,2.305 4.31,0 8.27,-0.274 11.9,-0.82 3.62,-0.547 6.79,-1.204 9.53,-1.946 l 0,3.996 c 0,2.325 -0.39,4.563 -1.17,6.719 -0.79,2.149 -2.05,4.063 -3.8,5.742 -1.74,1.668 -4.02,3.008 -6.82,3.992 -2.8,0.997 -6.22,1.489 -10.25,1.489 -4.92,0 -9.85,-0.547 -14.77,-1.645 -4.92,-1.094 -10.25,-2.73 -15.99,-4.922 l 0,18.977 c 4.99,2.187 10.28,3.855 15.88,5.027 5.61,1.153 11.49,1.77 17.64,1.836 7.25,0 13.6,-0.887 19.02,-2.652 5.44,-1.789 9.99,-4.231 13.65,-7.336 3.65,-3.117 6.38,-6.785 8.2,-11.027 1.81,-4.239 2.72,-8.856 2.72,-13.844 l 0,-37.422 c 0,-6.566 0.06,-12.207 0.2,-16.914 0.14,-4.731 0.27,-8.93 0.41,-12.621 l -21.94,0 -1.03,10.566"
             style="fill:#4e5259;fill-opacity:1;fill-rule:nonzero;stroke:none"
             id="path112" /><path
             d="m 4163.92,360.027 c 0,2.121 -0.61,3.868 -1.8,5.235 -1.2,1.371 -2.79,2.511 -4.77,3.437 -1.99,0.918 -4.25,1.723 -6.82,2.403 -2.56,0.683 -5.25,1.367 -8.05,2.05 -3.55,0.957 -6.97,2.071 -10.25,3.34 -3.28,1.262 -6.18,2.922 -8.67,4.973 -2.5,2.051 -4.48,4.629 -5.94,7.746 -1.48,3.101 -2.21,6.91 -2.21,11.426 0,5.543 0.99,10.34 2.98,14.414 1.97,4.058 4.66,7.429 8.05,10.094 3.37,2.667 7.3,4.652 11.78,5.949 4.49,1.297 9.21,1.941 14.21,1.941 6.08,0 11.79,-0.484 17.12,-1.484 5.33,-0.985 10.15,-2.274 14.46,-3.848 l 0,-19.781 c -2.26,0.75 -4.63,1.453 -7.13,2.098 -2.5,0.656 -5.02,1.21 -7.58,1.691 -2.57,0.477 -5.11,0.879 -7.65,1.18 -2.52,0.312 -4.92,0.457 -7.17,0.457 -2.87,0 -5.3,-0.274 -7.28,-0.821 -1.99,-0.547 -3.6,-1.277 -4.83,-2.195 -1.23,-0.93 -2.11,-1.984 -2.65,-3.184 -0.55,-1.191 -0.82,-2.441 -0.82,-3.742 0,-2.254 0.58,-4.101 1.78,-5.535 1.2,-1.437 2.86,-2.598 4.97,-3.484 2.13,-0.891 4.35,-1.625 6.67,-2.211 2.33,-0.574 4.58,-1.141 6.77,-1.688 3.42,-0.82 6.84,-1.816 10.26,-2.976 3.41,-1.164 6.49,-2.785 9.22,-4.867 2.74,-2.09 4.97,-4.786 6.72,-8.102 1.74,-3.313 2.61,-7.539 2.61,-12.656 0,-5.617 -1.05,-10.5 -3.17,-14.668 -2.12,-4.172 -5.08,-7.641 -8.87,-10.414 -3.8,-2.762 -8.35,-4.813 -13.64,-6.153 -5.3,-1.328 -11.13,-1.992 -17.48,-1.992 -6.29,0 -11.95,0.488 -16.98,1.485 -5.02,0.988 -9.18,2.238 -12.46,3.742 l 0,19.582 c 5.33,-1.985 10.26,-3.332 14.77,-4.043 4.51,-0.727 8.72,-1.078 12.62,-1.078 3,0 5.81,0.214 8.4,0.664 2.6,0.441 4.84,1.144 6.72,2.101 1.88,0.957 3.37,2.168 4.47,3.645 1.09,1.461 1.64,3.219 1.64,5.269"
             style="fill:#4e5259;fill-opacity:1;fill-rule:nonzero;stroke:none"
             id="path114" /><path
             d="m 4251.39,378.895 c 0,-5.602 0.63,-10.672 1.9,-15.223 1.25,-4.539 3.09,-8.41 5.48,-11.582 2.39,-3.184 5.33,-5.625 8.82,-7.332 3.48,-1.711 7.48,-2.563 11.99,-2.563 3.36,0 6.4,0.442 9.13,1.328 2.74,0.891 5.19,2.012 7.33,3.379 2.15,1.368 4.01,2.825 5.53,4.368 1.55,1.531 2.76,2.949 3.65,4.246 l 0,50.968 c -3.28,3.352 -7.08,6.036 -11.38,8.047 -4.31,2.02 -8.96,3.028 -13.95,3.028 -3.01,0 -6.17,-0.567 -9.49,-1.692 -3.31,-1.133 -6.39,-3.164 -9.22,-6.101 -2.84,-2.942 -5.17,-6.883 -7.03,-11.844 -1.84,-4.953 -2.76,-11.301 -2.76,-19.027 z m -16.61,-0.196 c 0,6.762 0.66,12.766 1.99,17.989 1.35,5.238 3.1,9.796 5.29,13.695 2.19,3.894 4.75,7.156 7.69,9.793 2.94,2.625 5.98,4.765 9.13,6.406 3.14,1.641 6.33,2.82 9.59,3.535 3.24,0.723 6.3,1.082 9.17,1.082 5.94,0 11.1,-0.996 15.48,-2.976 4.37,-1.985 8.31,-4.895 11.79,-8.719 l 0.31,0 0,60.191 15.89,0 0,-148.476 -12,0 -3.28,10.871 -0.41,0 c -1.23,-1.574 -2.66,-3.164 -4.3,-4.766 -1.64,-1.609 -3.57,-3.066 -5.8,-4.363 -2.22,-1.301 -4.78,-2.336 -7.69,-3.125 -2.9,-0.785 -6.27,-1.176 -10.1,-1.176 -5.33,0 -10.56,0.899 -15.68,2.719 -5.13,1.805 -9.69,4.715 -13.7,8.711 -4,4.004 -7.22,9.156 -9.68,15.484 -2.46,6.321 -3.69,14.024 -3.69,23.125"
             style="fill:#4e5259;fill-opacity:1;fill-rule:nonzero;stroke:none"
             id="path116" /><path
             d="m 4402.79,373.973 c -2.92,0.824 -6.39,1.613 -10.41,2.367 -4.01,0.75 -8.43,1.16 -13.27,1.226 -6.74,0 -12.01,-1.433 -15.82,-4.304 -3.81,-2.871 -5.72,-7.278 -5.72,-13.235 0,-3.007 0.48,-5.632 1.43,-7.89 0.95,-2.254 2.26,-4.121 3.94,-5.586 1.66,-1.473 3.63,-2.567 5.92,-3.281 2.27,-0.719 4.7,-1.075 7.29,-1.075 3.41,0 6.57,0.489 9.49,1.485 2.92,0.988 5.53,2.168 7.81,3.539 2.28,1.367 4.22,2.73 5.82,4.097 1.6,1.368 2.77,2.422 3.52,3.188 l 0,19.469 z m 0.82,-31.993 -0.41,0 c -1.3,-1.636 -2.94,-3.261 -4.92,-4.863 -1.98,-1.609 -4.27,-3.047 -6.86,-4.305 -2.6,-1.269 -5.44,-2.277 -8.52,-3.027 -3.08,-0.754 -6.36,-1.125 -9.84,-1.125 -4.72,0 -9.05,0.695 -12.97,2.102 -3.94,1.394 -7.33,3.449 -10.16,6.152 -2.83,2.695 -5.04,5.996 -6.61,9.891 -1.57,3.898 -2.35,8.3 -2.35,13.222 0,4.856 0.87,9.2 2.6,13.028 1.75,3.832 4.19,7.074 7.34,9.746 3.14,2.66 6.92,4.711 11.33,6.152 4.41,1.43 9.27,2.149 14.61,2.149 5.05,-0.067 9.74,-0.508 14.05,-1.329 4.31,-0.82 8.13,-1.851 11.48,-3.085 l 0.41,0 0,6.781 c 0,2.652 -0.16,5.015 -0.51,7.066 -0.34,2.055 -0.92,3.86 -1.74,5.434 -1.78,3.277 -4.61,6.004 -8.52,8.152 -3.89,2.156 -9.16,3.231 -15.78,3.231 -4.92,0 -9.56,-0.457 -13.9,-1.383 -4.34,-0.918 -8.66,-2.207 -12.97,-3.852 l 0,13.344 c 1.64,0.816 3.57,1.582 5.8,2.301 2.21,0.715 4.56,1.332 7.02,1.847 2.46,0.508 5.06,0.899 7.79,1.184 2.73,0.262 5.47,0.406 8.2,0.406 9.85,0 17.89,-1.746 24.15,-5.23 6.25,-3.489 10.75,-8.11 13.48,-13.852 1.04,-2.187 1.76,-4.59 2.21,-7.226 0.45,-2.625 0.66,-5.516 0.66,-8.661 l 0,-65.011 -13.32,0 -1.75,10.761"
             style="fill:#4e5259;fill-opacity:1;fill-rule:nonzero;stroke:none"
             id="path118" /><path
             d="m 2972.18,91.2188 25.1094,0 0,137.199 -25.1094,0 0,-137.199 z"
             style="fill:#4e5259;fill-opacity:1;fill-rule:nonzero;stroke:none"
             id="path120" /><path
             d="m 3043.09,176.738 0.41,0 c 1.43,2.051 3.25,4.063 5.44,6.043 2.18,1.985 4.67,3.731 7.48,5.235 2.8,1.504 5.89,2.714 9.27,3.644 3.39,0.918 7,1.375 10.82,1.375 3.63,0 7.13,-0.406 10.51,-1.23 3.39,-0.821 6.49,-2.098 9.28,-3.836 2.81,-1.75 5.28,-4.004 7.44,-6.77 2.15,-2.773 3.85,-6.07 5.08,-9.898 0.68,-2.121 1.13,-4.426 1.38,-6.914 0.24,-2.5 0.36,-5.395 0.36,-8.672 l 0,-64.4962 -24.3,0 0,60.7072 c 0,2.664 -0.11,4.949 -0.31,6.875 -0.21,1.902 -0.59,3.582 -1.14,5.015 -1.23,3.149 -3.08,5.403 -5.58,6.77 -2.5,1.367 -5.52,2.051 -9.07,2.051 -4.72,0 -9.25,-1.114 -13.59,-3.332 -4.34,-2.227 -8.18,-5.457 -11.54,-9.688 l 0,-68.3982 -24.3,0 0,99.3552 20.1,0 2.26,-13.836"
             style="fill:#4e5259;fill-opacity:1;fill-rule:nonzero;stroke:none"
             id="path122" /><path
             d="m 3193.15,220.012 c -2.65,0.679 -5.41,1.25 -8.25,1.687 -2.84,0.449 -5.52,0.672 -8.04,0.672 -2.74,0 -5.17,-0.328 -7.28,-0.976 -2.13,-0.653 -3.93,-1.727 -5.39,-3.231 -1.47,-1.504 -2.58,-3.457 -3.33,-5.852 -0.75,-2.39 -1.12,-5.292 -1.12,-8.71 l 0,-13.028 27.57,0 0,-19.988 -27.57,0 0,-79.3672 -24.31,0 0,79.3672 -16.82,0 0,19.988 16.82,0 0,11.797 c 0,6.973 0.98,12.973 2.92,18 1.95,5.02 4.67,9.16 8.15,12.402 3.49,3.25 7.59,5.645 12.31,7.176 4.72,1.543 9.84,2.309 15.38,2.309 3.42,0 6.82,-0.285 10.2,-0.871 3.38,-0.578 6.3,-1.282 8.76,-2.102 l 0,-19.273"
             style="fill:#4e5259;fill-opacity:1;fill-rule:nonzero;stroke:none"
             id="path124" /><path
             d="m 3263.14,140.848 c 0,5.265 -0.61,9.914 -1.84,13.949 -1.23,4.031 -2.94,7.41 -5.13,10.152 -2.19,2.727 -4.81,4.778 -7.9,6.153 -3.06,1.359 -6.42,2.05 -10.04,2.05 -3.55,0 -6.85,-0.691 -9.9,-2.05 -3.05,-1.375 -5.65,-3.426 -7.84,-6.153 -2.19,-2.742 -3.9,-6.121 -5.13,-10.152 -1.23,-4.035 -1.84,-8.684 -1.84,-13.949 0,-5.262 0.61,-9.91 1.84,-13.946 1.23,-4.031 2.95,-7.398 5.18,-10.097 2.22,-2.703 4.85,-4.754 7.89,-6.153 3.04,-1.402 6.38,-2.105 10,-2.105 3.63,0 6.94,0.703 9.95,2.105 3.01,1.399 5.6,3.45 7.79,6.153 2.19,2.699 3.9,6.066 5.13,10.097 1.23,4.036 1.84,8.684 1.84,13.946 z m 25.13,0 c 0,-7.793 -1.17,-14.903 -3.49,-21.328 -2.33,-6.426 -5.66,-11.93 -10,-16.504 -4.34,-4.5902 -9.58,-8.1254 -15.74,-10.6137 -6.15,-2.5 -13.01,-3.7421 -20.61,-3.7421 -7.8,0 -14.79,1.2421 -20.96,3.7421 -6.19,2.4883 -11.44,6.0235 -15.74,10.6137 -4.32,4.574 -7.62,10.078 -9.9,16.504 -2.29,6.425 -3.44,13.535 -3.44,21.328 0,7.793 1.17,14.906 3.49,21.328 2.33,6.426 5.65,11.926 10,16.504 4.34,4.582 9.58,8.125 15.74,10.617 6.15,2.5 13.01,3.738 20.61,3.738 7.8,0 14.78,-1.238 20.96,-3.738 6.19,-2.492 11.44,-6.035 15.74,-10.617 4.32,-4.578 7.61,-10.078 9.9,-16.504 2.29,-6.422 3.44,-13.535 3.44,-21.328"
             style="fill:#4e5259;fill-opacity:1;fill-rule:nonzero;stroke:none"
             id="path126" /><path
             d="m 3362.57,171.301 -2.05,0 c -7.46,0 -14.01,-1.106 -19.65,-3.332 -5.63,-2.215 -9.99,-5.625 -13.07,-10.207 l 0,-66.5432 -24.29,0 0,99.3552 20.09,0 2.25,-13.836 0.41,0 c 2.87,5.059 6.82,9.043 11.86,11.942 5.01,2.914 11.05,4.355 18.08,4.355 2.46,0 4.59,-0.137 6.37,-0.406 l 0,-21.328"
             style="fill:#4e5259;fill-opacity:1;fill-rule:nonzero;stroke:none"
             id="path128" /><path
             d="m 3498.58,151.719 c 0,2.121 -0.05,4.101 -0.19,5.949 -0.14,1.844 -0.38,3.445 -0.72,4.82 -0.76,3 -2.23,5.434 -4.42,7.278 -2.19,1.843 -5.25,2.8 -9.22,2.871 -2.13,0 -4.31,-0.301 -6.56,-0.926 -2.26,-0.609 -4.5,-1.488 -6.72,-2.609 -2.22,-1.133 -4.34,-2.5 -6.37,-4.102 -2.01,-1.613 -3.83,-3.406 -5.47,-5.383 l 0,-68.3982 -24.31,0 0,60.5002 c 0,2.121 -0.06,4.101 -0.2,5.949 -0.13,1.844 -0.38,3.445 -0.72,4.82 -0.75,3 -2.21,5.434 -4.35,7.278 -2.15,1.843 -5.26,2.8 -9.28,2.871 -2.13,0 -4.32,-0.301 -6.56,-0.926 -2.27,-0.609 -4.51,-1.488 -6.72,-2.609 -2.23,-1.133 -4.35,-2.5 -6.37,-4.102 -2.01,-1.613 -3.84,-3.406 -5.48,-5.383 l 0,-68.3982 -24.3,0 0,99.3552 20.09,0 2.27,-13.836 0.41,0 c 1.42,2.051 3.24,4.063 5.43,6.043 2.19,1.985 4.67,3.731 7.44,5.235 2.75,1.504 5.8,2.714 9.12,3.644 3.31,0.918 6.82,1.375 10.51,1.375 6.56,0 12.46,-1.441 17.69,-4.355 5.22,-2.899 9.2,-7.43 11.94,-13.582 l 0.41,0 c 1.91,2.664 4.06,5.086 6.4,7.273 2.37,2.188 4.98,4.074 7.86,5.645 2.87,1.574 5.95,2.804 9.27,3.695 3.32,0.887 6.86,1.324 10.62,1.324 7.11,-0.066 13.07,-1.551 17.9,-4.449 4.8,-2.91 8.51,-6.898 11.11,-11.953 0.69,-1.301 1.27,-2.715 1.75,-4.25 0.48,-1.543 0.87,-3.274 1.18,-5.188 0.31,-1.914 0.53,-4.031 0.67,-6.347 0.13,-2.332 0.2,-5 0.2,-8.004 l 0,-61.6252 -24.31,0 0,60.5002"
             style="fill:#4e5259;fill-opacity:1;fill-rule:nonzero;stroke:none"
             id="path130" /><path
             d="m 3599.76,133.562 c -2.33,0.547 -5,1.047 -8.01,1.497 -3.01,0.441 -6.05,0.664 -9.12,0.664 -5.95,0 -10.65,-1.18 -14.1,-3.535 -3.46,-2.364 -5.18,-5.969 -5.18,-10.821 0,-2.258 0.39,-4.219 1.18,-5.898 0.78,-1.668 1.85,-3.059 3.18,-4.153 1.33,-1.093 2.89,-1.914 4.66,-2.461 1.78,-0.546 3.66,-0.82 5.65,-0.82 2.46,0 4.78,0.324 6.97,0.977 2.19,0.644 4.2,1.465 6.05,2.461 1.84,0.988 3.5,2.101 4.97,3.332 1.46,1.23 2.71,2.422 3.75,3.582 l 0,15.175 z m 1.94,-31.777 -0.41,0 c -1.37,-1.441 -3.01,-2.9061 -4.92,-4.41 -1.92,-1.5078 -4.1,-2.9219 -6.57,-4.2617 -2.46,-1.3281 -5.19,-2.3985 -8.2,-3.2227 -3.01,-0.8203 -6.26,-1.2304 -9.73,-1.2304 -4.73,0 -9.14,0.7343 -13.24,2.1992 -4.1,1.4765 -7.62,3.5937 -10.55,6.3594 -2.95,2.7695 -5.26,6.1212 -6.93,10.0472 -1.68,3.933 -2.51,8.32 -2.51,13.172 0,5.332 0.97,10.117 2.92,14.359 1.95,4.234 4.66,7.832 8.16,10.769 3.47,2.942 7.65,5.176 12.5,6.719 4.86,1.531 10.22,2.305 16.1,2.305 4.31,0 8.27,-0.274 11.89,-0.82 3.63,-0.547 6.81,-1.204 9.55,-1.946 l 0,3.996 c 0,2.325 -0.4,4.563 -1.19,6.719 -0.79,2.149 -2.05,4.063 -3.79,5.742 -1.74,1.668 -4.02,3.008 -6.82,3.992 -2.8,0.997 -6.22,1.489 -10.25,1.489 -4.93,0 -9.85,-0.547 -14.77,-1.645 -4.92,-1.094 -10.25,-2.73 -16,-4.922 l 0,18.977 c 4.99,2.187 10.3,3.855 15.9,5.027 5.61,1.153 11.49,1.77 17.64,1.836 7.24,0 13.58,-0.887 19.01,-2.652 5.44,-1.789 9.98,-4.231 13.64,-7.336 3.66,-3.117 6.39,-6.785 8.21,-11.027 1.8,-4.239 2.71,-8.856 2.71,-13.844 l 0,-37.422 c 0,-6.566 0.07,-12.207 0.21,-16.914 0.13,-4.7306 0.27,-8.9298 0.41,-12.6212 l -21.95,0 -1.02,10.5662"
             style="fill:#4e5259;fill-opacity:1;fill-rule:nonzero;stroke:none"
             id="path132" /><path
             d="m 3716.59,93.3672 c -3.06,-1.2969 -6.83,-2.3984 -11.27,-3.3281 -4.45,-0.918 -9.13,-1.3789 -14.05,-1.3789 -7.18,0 -13.88,1.0156 -20.1,3.0664 -6.22,2.0507 -11.65,5.1679 -16.3,9.3354 -4.65,4.172 -8.31,9.454 -10.97,15.84 -2.67,6.399 -4.01,13.86 -4.01,22.403 0,9.574 1.55,17.773 4.62,24.613 3.08,6.836 7.06,12.391 11.95,16.668 4.88,4.266 10.39,7.41 16.5,9.434 6.12,2.011 12.16,3.015 18.1,3.015 4.45,0 8.72,-0.39 12.82,-1.172 4.1,-0.789 7.83,-1.863 11.18,-3.23 l 0,-19.793 c -3.01,1.297 -6.2,2.34 -9.58,3.133 -3.4,0.781 -7.03,1.179 -10.93,1.179 -3.9,0 -7.63,-0.601 -11.18,-1.797 -3.56,-1.199 -6.7,-3.093 -9.43,-5.691 -2.74,-2.598 -4.91,-6.035 -6.51,-10.305 -1.61,-4.273 -2.41,-9.421 -2.41,-15.429 0,-4.383 0.61,-8.496 1.85,-12.364 1.23,-3.855 3.02,-7.156 5.39,-9.89 2.34,-2.735 5.35,-4.942 9.02,-6.614 3.65,-1.675 7.97,-2.515 12.97,-2.515 4.43,0 8.47,0.445 12.09,1.336 3.63,0.887 7.05,1.98 10.25,3.281 l 0,-19.7968"
             style="fill:#4e5259;fill-opacity:1;fill-rule:nonzero;stroke:none"
             id="path134" /><path
             d="m 3731.93,190.574 24.31,0 0,-99.3552 -24.31,0 0,99.3552 z m -0.61,49.121 25.53,0 0,-26.347 -25.53,0 0,26.347"
             style="fill:#4e5259;fill-opacity:1;fill-rule:nonzero;stroke:none"
             id="path136" /><path
             d="m 3848.48,242.258 -16.93,-35.785 -18.86,0 12.2,35.785 23.59,0 z m -1.64,-101.41 c 0,5.265 -0.62,9.914 -1.85,13.949 -1.23,4.031 -2.94,7.41 -5.13,10.152 -2.18,2.727 -4.81,4.778 -7.9,6.153 -3.06,1.359 -6.42,2.05 -10.04,2.05 -3.55,0 -6.85,-0.691 -9.9,-2.05 -3.05,-1.375 -5.65,-3.426 -7.84,-6.153 -2.19,-2.742 -3.9,-6.121 -5.13,-10.152 -1.23,-4.035 -1.84,-8.684 -1.84,-13.949 0,-5.262 0.61,-9.91 1.84,-13.946 1.23,-4.031 2.95,-7.398 5.18,-10.097 2.23,-2.703 4.85,-4.754 7.89,-6.153 3.05,-1.402 6.39,-2.105 10,-2.105 3.63,0 6.94,0.703 9.95,2.105 3.01,1.399 5.61,3.45 7.79,6.153 2.19,2.699 3.9,6.066 5.13,10.097 1.23,4.036 1.85,8.684 1.85,13.946 z m 25.12,0 c 0,-7.793 -1.17,-14.903 -3.49,-21.328 -2.33,-6.426 -5.66,-11.93 -10,-16.504 -4.34,-4.5902 -9.58,-8.1254 -15.74,-10.6137 -6.15,-2.5 -13.01,-3.7421 -20.61,-3.7421 -7.79,0 -14.79,1.2421 -20.96,3.7421 -6.19,2.4883 -11.44,6.0235 -15.74,10.6137 -4.32,4.574 -7.62,10.078 -9.9,16.504 -2.29,6.425 -3.44,13.535 -3.44,21.328 0,7.793 1.17,14.906 3.5,21.328 2.32,6.426 5.64,11.926 10,16.504 4.33,4.582 9.58,8.125 15.73,10.617 6.15,2.5 13.02,3.738 20.61,3.738 7.8,0 14.78,-1.238 20.96,-3.738 6.19,-2.492 11.45,-6.035 15.74,-10.617 4.32,-4.578 7.61,-10.078 9.91,-16.504 2.28,-6.422 3.43,-13.535 3.43,-21.328"
             style="fill:#4e5259;fill-opacity:1;fill-rule:nonzero;stroke:none"
             id="path138" /><path
             d="m 3909.54,176.738 0.41,0 c 1.45,2.051 3.25,4.063 5.44,6.043 2.19,1.985 4.68,3.731 7.49,5.235 2.79,1.504 5.9,2.714 9.28,3.644 3.38,0.918 6.99,1.375 10.82,1.375 3.61,0 7.13,-0.406 10.51,-1.23 3.38,-0.821 6.47,-2.098 9.27,-3.836 2.81,-1.75 5.28,-4.004 7.45,-6.77 2.14,-2.773 3.83,-6.07 5.06,-9.898 0.69,-2.121 1.15,-4.426 1.38,-6.914 0.24,-2.5 0.37,-5.395 0.37,-8.672 l 0,-64.4962 -24.31,0 0,60.7072 c 0,2.664 -0.1,4.949 -0.3,6.875 -0.21,1.902 -0.58,3.582 -1.13,5.015 -1.23,3.149 -3.1,5.403 -5.59,6.77 -2.5,1.367 -5.52,2.051 -9.08,2.051 -4.71,0 -9.24,-1.114 -13.57,-3.332 -4.36,-2.227 -8.2,-5.457 -11.55,-9.688 l 0,-68.3982 -24.29,0 0,99.3552 20.09,0 2.25,-13.836"
             style="fill:#4e5259;fill-opacity:1;fill-rule:nonzero;stroke:none"
             id="path140" /><path
             d="m 1310.93,693.336 0,-102.785 -173.65,0 0,-477.567 -122.04,0 0,477.567 -174.42,0 0,102.785 470.11,0"
             style="fill:#ffffff;fill-opacity:1;fill-rule:nonzero;stroke:none"
             id="path142" /><path
             d="m 1310.93,112.984 113.781,0 0,477.426 -113.781,0 0,-477.426 z"
             style="fill:#ffffff;fill-opacity:1;fill-rule:nonzero;stroke:none"
             id="path144" /></g></g></g></g></svg>