<?xml version="1.0" encoding="UTF-8" standalone="no"?>
<!-- Created with Inkscape (http://www.inkscape.org/) -->

<svg
   xmlns:dc="http://purl.org/dc/elements/1.1/"
   xmlns:cc="http://creativecommons.org/ns#"
   xmlns:rdf="http://www.w3.org/1999/02/22-rdf-syntax-ns#"
   xmlns:svg="http://www.w3.org/2000/svg"
   xmlns="http://www.w3.org/2000/svg"
   xmlns:sodipodi="http://sodipodi.sourceforge.net/DTD/sodipodi-0.dtd"
   xmlns:inkscape="http://www.inkscape.org/namespaces/inkscape"
   id="svg2"
   version="1.1"
   inkscape:version="0.48.4 r9939"
   width="414.88751"
   height="196.83624"
   xml:space="preserve"
   sodipodi:docname="logo_CiTIUS.pdf"><metadata
     id="metadata8"><rdf:RDF><cc:Work
         rdf:about=""><dc:format>image/svg+xml</dc:format><dc:type
           rdf:resource="http://purl.org/dc/dcmitype/StillImage" /><dc:title></dc:title></cc:Work></rdf:RDF></metadata><defs
     id="defs6"><clipPath
       clipPathUnits="userSpaceOnUse"
       id="clipPath18"><path
         d="m 0,498.319 331.918,0 0,-158.238 -331.918,0 0,158.238 z"
         id="path20"
         inkscape:connector-curvature="0" /></clipPath><clipPath
       clipPathUnits="userSpaceOnUse"
       id="clipPath28"><path
         d="M 0,1 332,1 332,160 0,160 0,1 z"
         id="path30"
         inkscape:connector-curvature="0" /></clipPath><clipPath
       clipPathUnits="userSpaceOnUse"
       id="clipPath38"><path
         d="m 73,159.043 81,0 0,-80.043 -81,0 0,80.043 z"
         id="path40"
         inkscape:connector-curvature="0" /></clipPath><clipPath
       clipPathUnits="userSpaceOnUse"
       id="clipPath114"><path
         d="m 323,60 8.918,0 0,-11 -8.918,0 0,11 z"
         id="path116"
         inkscape:connector-curvature="0" /></clipPath></defs><sodipodi:namedview
     pagecolor="#ffffff"
     bordercolor="#666666"
     borderopacity="1"
     objecttolerance="10"
     gridtolerance="10"
     guidetolerance="10"
     inkscape:pageopacity="0"
     inkscape:pageshadow="2"
     inkscape:window-width="640"
     inkscape:window-height="480"
     id="namedview4"
     showgrid="false"
     fit-margin-top="0"
     fit-margin-left="0"
     fit-margin-right="0"
     fit-margin-bottom="0"
     inkscape:zoom="0.44853766"
     inkscape:cx="427.41845"
     inkscape:cy="-69.672646"
     inkscape:window-x="259"
     inkscape:window-y="73"
     inkscape:window-maximized="0"
     inkscape:current-layer="g10" /><g
     id="g10"
     inkscape:groupmode="layer"
     inkscape:label="logo_CiTIUS"
     transform="matrix(1.25,0,0,-1.25,0,622.89824)"><g
       id="g12" /><g
       id="g14"><g
         id="g16"
         clip-path="url(#clipPath18)"><g
           id="g22"
           transform="translate(0,339.27559)"><g
             id="g24"><g
               id="g26"
               clip-path="url(#clipPath28)"><g
                 id="g32" /><g
                 id="g34"><g
                   id="g36"
                   clip-path="url(#clipPath38)"><path
                     d="m 73.219,159.805 80.633,0 0,-80.633 -80.633,0 0,80.633 z"
                     style="fill:#f36126;fill-opacity:1;fill-rule:nonzero;stroke:none"
                     id="path42"
                     inkscape:connector-curvature="0" /></g></g><g
                 id="g44"><path
                   d="m 29.098,138.246 c -2.731,0 -5.246,-0.449 -7.551,-1.348 -2.309,-0.902 -4.285,-2.21 -5.934,-3.929 -1.652,-1.719 -2.941,-3.84 -3.867,-6.364 -0.93,-2.527 -1.391,-5.41 -1.391,-8.652 0,-3.223 0.422,-6.051 1.266,-8.496 0.848,-2.441 2.063,-4.48 3.645,-6.117 1.582,-1.637 3.511,-2.875 5.789,-3.707 2.277,-0.828 4.863,-1.242 7.754,-1.242 2.074,0 4.187,0.16 6.343,0.488 2.157,0.328 4.176,0.809 6.055,1.433 l 0,-8.636 c -1.906,-0.543 -3.965,-0.977 -6.176,-1.289 -2.211,-0.313 -4.504,-0.473 -6.875,-0.473 -4.64,0 -8.715,0.668 -12.234,1.988 -3.524,1.325 -6.461,3.196 -8.82,5.606 -2.36,2.414 -4.133,5.308 -5.321,8.68 C 0.594,109.555 0,113.27 0,117.336 c 0,4.176 0.637,8.051 1.902,11.621 1.27,3.574 3.098,6.672 5.485,9.289 2.386,2.621 5.375,4.68 8.961,6.18 3.59,1.5 7.648,2.269 12.175,2.293 2.321,0 4.516,-0.157 6.59,-0.469 2.071,-0.316 3.942,-0.758 5.606,-1.332 l 0,-8.512 c -2.184,0.68 -4.215,1.16 -6.098,1.434 -1.883,0.269 -3.723,0.406 -5.523,0.406"
                   style="fill:#231f20;fill-opacity:1;fill-rule:nonzero;stroke:none"
                   id="path46"
                   inkscape:connector-curvature="0" /><path
                   d="m 52.805,130.594 9.699,0 0,-39.649 -9.699,0 0,39.649 z m -0.246,19.605 10.187,0 0,-10.519 -10.187,0 0,10.519"
                   style="fill:#231f20;fill-opacity:1;fill-rule:nonzero;stroke:none"
                   id="path48"
                   inkscape:connector-curvature="0" /><path
                   d="m 187.145,89.496 c -2.86,0 -5.442,0.281 -7.731,0.84 -2.293,0.559 -4.309,1.367 -6.055,2.418 -1.75,1.051 -3.234,2.328 -4.464,3.848 -1.227,1.511 -2.211,3.222 -2.946,5.132 -0.601,1.528 -1.027,3.219 -1.289,5.075 -0.262,1.855 -0.39,3.929 -0.39,6.222 l 0,32.246 10.027,0 0,-31.347 c 0,-3.879 0.465,-6.903 1.391,-9.086 1.039,-2.43 2.554,-4.184 4.546,-5.262 1.989,-1.074 4.336,-1.613 7.036,-1.613 2.703,0 5.05,0.539 7.039,1.613 1.992,1.078 3.507,2.832 4.546,5.262 0.922,2.183 1.391,5.207 1.391,9.086 l 0,31.347 10.024,0 0,-32.246 c 0,-2.293 -0.129,-4.367 -0.391,-6.222 -0.258,-1.856 -0.688,-3.547 -1.285,-5.075 -0.739,-1.91 -1.731,-3.621 -2.969,-5.132 -1.238,-1.52 -2.758,-2.797 -4.543,-3.848 -1.785,-1.051 -3.84,-1.859 -6.156,-2.418 -2.321,-0.559 -4.91,-0.84 -7.781,-0.84"
                   style="fill:#231f20;fill-opacity:1;fill-rule:nonzero;stroke:none"
                   id="path50"
                   inkscape:connector-curvature="0" /><path
                   d="m 250.09,106.238 c 0,1.387 -0.344,2.516 -1.024,3.375 -0.683,0.856 -1.609,1.563 -2.785,2.106 -1.172,0.551 -2.488,0.988 -3.945,1.328 -1.457,0.344 -2.996,0.68 -4.606,1.004 -2.128,0.465 -4.164,1.019 -6.097,1.66 -1.938,0.641 -3.641,1.531 -5.117,2.66 -1.469,1.133 -2.645,2.57 -3.52,4.317 -0.871,1.742 -1.308,3.925 -1.308,6.55 0,2.887 0.503,5.407 1.515,7.547 1.012,2.141 2.379,3.914 4.109,5.32 1.735,1.407 3.77,2.454 6.098,3.153 2.336,0.695 4.961,1.043 7.879,1.043 2.922,0 5.856,-0.285 8.801,-0.86 2.945,-0.574 5.484,-1.312 7.609,-2.207 l 0,-8.601 c -2.836,1.121 -5.558,1.933 -8.164,2.437 -2.601,0.504 -5.051,0.758 -7.344,0.758 -3.304,0 -5.847,-0.601 -7.632,-1.801 -1.786,-1.199 -2.68,-2.996 -2.68,-5.402 0,-1.387 0.293,-2.535 0.879,-3.437 0.586,-0.903 1.383,-1.645 2.394,-2.227 1.008,-0.59 2.168,-1.059 3.477,-1.414 1.309,-0.356 2.703,-0.684 4.176,-0.985 2.316,-0.488 4.535,-1.054 6.652,-1.699 2.109,-0.636 3.988,-1.535 5.621,-2.679 1.641,-1.145 2.934,-2.641 3.891,-4.481 0.957,-1.84 1.429,-4.195 1.429,-7.055 0,-2.949 -0.543,-5.5 -1.636,-7.66 -1.09,-2.152 -2.641,-3.929 -4.645,-5.336 -2.004,-1.406 -4.437,-2.445 -7.305,-3.129 -2.863,-0.683 -6,-1.027 -9.414,-1.027 -2.972,0 -5.894,0.297 -8.769,0.883 -2.887,0.582 -5.274,1.41 -7.188,2.476 l 0,8.469 c 2.704,-1.172 5.332,-2.027 7.903,-2.558 2.558,-0.528 5.207,-0.797 7.933,-0.797 1.582,0 3.141,0.133 4.668,0.39 1.532,0.258 2.899,0.7 4.114,1.329 1.211,0.628 2.187,1.476 2.925,2.558 0.739,1.078 1.106,2.406 1.106,3.992"
                   style="fill:#231f20;fill-opacity:1;fill-rule:nonzero;stroke:none"
                   id="path52"
                   inkscape:connector-curvature="0" /><path
                   d="m 81.625,62.309 c -0.762,0 -1.469,-0.121 -2.125,-0.36 -0.656,-0.242 -1.23,-0.605 -1.719,-1.094 -0.492,-0.48 -0.875,-1.078 -1.156,-1.796 -0.273,-0.711 -0.406,-1.539 -0.406,-2.485 0,-0.949 0.129,-1.773 0.39,-2.469 0.258,-0.687 0.625,-1.261 1.094,-1.718 0.477,-0.449 1.055,-0.782 1.735,-1 0.675,-0.219 1.425,-0.328 2.25,-0.328 0.226,0 0.468,0.007 0.718,0.031 0.25,0.019 0.504,0.051 0.766,0.094 0.258,0.05 0.508,0.101 0.75,0.156 0.238,0.062 0.453,0.129 0.64,0.203 l 0,-1.484 c -0.398,-0.157 -0.867,-0.274 -1.406,-0.36 -0.531,-0.082 -1.074,-0.125 -1.625,-0.125 -1.148,0 -2.164,0.156 -3.047,0.469 -0.875,0.32 -1.617,0.781 -2.218,1.375 -0.594,0.594 -1.047,1.316 -1.36,2.172 -0.304,0.863 -0.453,1.836 -0.453,2.922 0,1.062 0.16,2.039 0.485,2.937 0.32,0.895 0.789,1.664 1.406,2.313 0.613,0.644 1.351,1.144 2.218,1.5 0.876,0.351 1.852,0.531 2.938,0.531 0.289,0 0.578,-0.012 0.859,-0.031 0.282,-0.024 0.547,-0.059 0.797,-0.11 0.258,-0.043 0.5,-0.093 0.719,-0.156 0.219,-0.055 0.406,-0.117 0.563,-0.187 l 0,-1.485 c -0.407,0.145 -0.856,0.258 -1.344,0.344 -0.492,0.094 -0.981,0.141 -1.469,0.141 z"
                   style="fill:#4f4c4c;fill-opacity:1;fill-rule:nonzero;stroke:none"
                   id="path54"
                   inkscape:connector-curvature="0" /><path
                   d="m 90.324,58.465 c -0.367,0 -0.703,-0.074 -1.015,-0.219 -0.313,-0.148 -0.59,-0.344 -0.829,-0.594 -0.23,-0.242 -0.418,-0.527 -0.562,-0.859 -0.137,-0.336 -0.219,-0.688 -0.25,-1.063 l 4.922,0 c 0,0.383 -0.055,0.739 -0.156,1.063 -0.094,0.332 -0.243,0.625 -0.438,0.875 -0.187,0.25 -0.422,0.441 -0.703,0.578 -0.281,0.145 -0.605,0.219 -0.969,0.219 z m 0.86,-7.516 c 0.531,0 1.007,0.039 1.437,0.125 0.438,0.094 0.875,0.219 1.313,0.375 l 0,-1.328 c -0.356,-0.168 -0.789,-0.297 -1.297,-0.391 -0.512,-0.101 -1.063,-0.156 -1.657,-0.156 -0.699,0 -1.355,0.09 -1.968,0.266 -0.606,0.176 -1.137,0.461 -1.594,0.859 -0.461,0.395 -0.824,0.91 -1.094,1.547 -0.262,0.645 -0.39,1.414 -0.39,2.313 0,0.894 0.125,1.664 0.375,2.312 0.25,0.656 0.578,1.203 0.984,1.641 0.406,0.437 0.875,0.765 1.406,0.984 0.539,0.219 1.102,0.328 1.688,0.328 0.539,0 1.047,-0.094 1.515,-0.281 0.477,-0.18 0.891,-0.465 1.235,-0.859 0.351,-0.387 0.629,-0.887 0.828,-1.5 0.207,-0.618 0.312,-1.356 0.312,-2.219 0,-0.074 0,-0.141 0,-0.203 0,-0.063 -0.007,-0.196 -0.015,-0.391 l -6.688,0 c 0,-0.625 0.094,-1.156 0.281,-1.594 0.188,-0.429 0.442,-0.777 0.766,-1.047 0.332,-0.273 0.719,-0.468 1.156,-0.593 0.438,-0.125 0.907,-0.188 1.407,-0.188 z"
                   style="fill:#4f4c4c;fill-opacity:1;fill-rule:nonzero;stroke:none"
                   id="path56"
                   inkscape:connector-curvature="0" /><path
                   d="m 97.859,58.215 0.032,0 c 0.175,0.219 0.367,0.426 0.578,0.625 0.219,0.195 0.457,0.367 0.719,0.515 0.269,0.145 0.562,0.258 0.874,0.344 0.321,0.082 0.676,0.125 1.063,0.125 0.437,0 0.848,-0.062 1.234,-0.187 0.395,-0.125 0.735,-0.325 1.016,-0.594 0.289,-0.273 0.52,-0.633 0.687,-1.078 0.165,-0.438 0.25,-0.981 0.25,-1.625 l 0,-6.516 -1.578,0 0,6.266 c 0,0.844 -0.168,1.445 -0.5,1.812 -0.324,0.375 -0.793,0.563 -1.406,0.563 -0.555,0 -1.086,-0.156 -1.594,-0.469 -0.511,-0.305 -0.953,-0.719 -1.328,-1.25 l 0,-6.922 -1.594,0 0,9.735 1.235,0 0.312,-1.344 z"
                   style="fill:#4f4c4c;fill-opacity:1;fill-rule:nonzero;stroke:none"
                   id="path58"
                   inkscape:connector-curvature="0" /><path
                   d="m 111.898,49.809 c -0.136,-0.063 -0.343,-0.114 -0.625,-0.157 -0.281,-0.05 -0.617,-0.078 -1,-0.078 -0.511,0 -0.961,0.063 -1.343,0.188 -0.375,0.125 -0.688,0.3 -0.938,0.531 -0.242,0.238 -0.422,0.523 -0.547,0.859 -0.125,0.332 -0.187,0.707 -0.187,1.125 l 0,5.922 -1.875,0 0,1.36 1.875,0 0,2.671 1.594,0 0,-2.671 2.906,0 0,-1.36 -2.906,0 0,-5.672 c 0,-0.23 0.031,-0.445 0.093,-0.64 0.063,-0.188 0.16,-0.356 0.297,-0.5 0.145,-0.137 0.328,-0.246 0.547,-0.328 0.219,-0.075 0.484,-0.11 0.797,-0.11 0.207,0 0.426,0.016 0.656,0.047 0.238,0.039 0.457,0.086 0.656,0.141 l 0,-1.328 z"
                   style="fill:#4f4c4c;fill-opacity:1;fill-rule:nonzero;stroke:none"
                   id="path60"
                   inkscape:connector-curvature="0" /><path
                   d="m 118.762,58.277 -0.125,0 c -0.375,0 -0.746,-0.039 -1.11,-0.109 -0.355,-0.063 -0.695,-0.168 -1.015,-0.313 -0.313,-0.136 -0.602,-0.308 -0.86,-0.515 -0.25,-0.211 -0.464,-0.453 -0.64,-0.735 l 0,-6.781 -1.594,0 0,9.735 1.234,0 0.313,-1.547 0.031,0 c 0.156,0.258 0.348,0.5 0.578,0.718 0.227,0.219 0.485,0.407 0.766,0.563 0.289,0.164 0.609,0.297 0.953,0.391 0.344,0.093 0.703,0.14 1.078,0.14 0.063,0 0.129,-0.008 0.203,-0.015 0.071,0 0.133,0 0.188,0 l 0,-1.532 z"
                   style="fill:#4f4c4c;fill-opacity:1;fill-rule:nonzero;stroke:none"
                   id="path62"
                   inkscape:connector-curvature="0" /><path
                   d="m 126.855,54.684 c 0,0.601 -0.074,1.14 -0.218,1.609 -0.149,0.469 -0.356,0.863 -0.625,1.187 -0.262,0.321 -0.574,0.567 -0.938,0.735 -0.355,0.164 -0.75,0.25 -1.187,0.25 -0.43,0 -0.825,-0.086 -1.188,-0.25 -0.367,-0.168 -0.679,-0.414 -0.937,-0.735 -0.262,-0.324 -0.465,-0.718 -0.61,-1.187 -0.148,-0.469 -0.218,-1.008 -0.218,-1.609 0,-0.594 0.07,-1.125 0.218,-1.594 0.145,-0.469 0.348,-0.867 0.61,-1.188 0.269,-0.324 0.586,-0.57 0.953,-0.734 0.363,-0.168 0.758,-0.25 1.187,-0.25 0.426,0 0.817,0.082 1.172,0.25 0.364,0.164 0.676,0.41 0.938,0.734 0.269,0.321 0.476,0.719 0.625,1.188 0.144,0.469 0.218,1 0.218,1.594 z m 1.657,0 c 0,-0.762 -0.11,-1.461 -0.328,-2.094 -0.219,-0.625 -0.528,-1.164 -0.922,-1.61 -0.399,-0.449 -0.883,-0.796 -1.453,-1.046 -0.563,-0.239 -1.2,-0.36 -1.907,-0.36 -0.73,0 -1.382,0.121 -1.953,0.36 -0.562,0.25 -1.047,0.597 -1.453,1.046 -0.398,0.446 -0.703,0.985 -0.922,1.61 -0.211,0.633 -0.312,1.332 -0.312,2.094 0,0.769 0.109,1.468 0.328,2.093 0.219,0.633 0.523,1.176 0.922,1.625 0.406,0.457 0.894,0.805 1.468,1.047 0.571,0.25 1.208,0.375 1.907,0.375 0.718,0 1.363,-0.125 1.937,-0.375 0.571,-0.242 1.055,-0.59 1.453,-1.047 0.407,-0.449 0.711,-0.992 0.922,-1.625 0.207,-0.625 0.313,-1.324 0.313,-2.093 z"
                   style="fill:#4f4c4c;fill-opacity:1;fill-rule:nonzero;stroke:none"
                   id="path64"
                   inkscape:connector-curvature="0" /><path
                   d="m 134.934,59.918 c 0,-0.406 0.078,-0.742 0.234,-1 0.164,-0.262 0.391,-0.48 0.672,-0.656 0.281,-0.168 0.601,-0.309 0.969,-0.422 0.363,-0.106 0.742,-0.203 1.14,-0.297 0.531,-0.137 1.051,-0.281 1.563,-0.438 0.519,-0.156 0.984,-0.375 1.39,-0.656 0.407,-0.273 0.735,-0.633 0.985,-1.078 0.25,-0.449 0.375,-1.023 0.375,-1.719 0,-0.711 -0.137,-1.324 -0.407,-1.843 -0.261,-0.512 -0.625,-0.934 -1.093,-1.266 -0.469,-0.336 -1.032,-0.578 -1.688,-0.734 -0.648,-0.157 -1.355,-0.235 -2.125,-0.235 -0.355,0 -0.719,0.024 -1.094,0.063 -0.367,0.043 -0.718,0.105 -1.062,0.187 -0.336,0.071 -0.641,0.156 -0.922,0.25 -0.273,0.094 -0.484,0.188 -0.641,0.281 l 0,1.532 c 0.25,-0.125 0.524,-0.242 0.829,-0.344 0.312,-0.105 0.629,-0.195 0.953,-0.266 0.332,-0.062 0.664,-0.117 1,-0.156 0.332,-0.043 0.644,-0.062 0.937,-0.062 0.477,0 0.938,0.039 1.375,0.125 0.438,0.082 0.817,0.218 1.141,0.406 0.332,0.187 0.594,0.445 0.781,0.781 0.188,0.332 0.281,0.75 0.281,1.25 0,0.406 -0.086,0.738 -0.25,1 -0.168,0.27 -0.39,0.492 -0.672,0.672 -0.281,0.176 -0.605,0.316 -0.968,0.422 -0.367,0.113 -0.75,0.219 -1.157,0.312 -0.531,0.125 -1.054,0.258 -1.562,0.407 -0.512,0.156 -0.965,0.367 -1.359,0.64 -0.399,0.281 -0.719,0.633 -0.969,1.063 -0.242,0.437 -0.36,0.988 -0.36,1.656 0,0.695 0.118,1.297 0.36,1.797 0.25,0.5 0.586,0.91 1.015,1.234 0.426,0.332 0.922,0.578 1.485,0.735 0.57,0.156 1.176,0.234 1.812,0.234 0.727,0 1.41,-0.07 2.047,-0.203 0.633,-0.137 1.211,-0.32 1.735,-0.547 l 0,-1.547 c -0.563,0.238 -1.149,0.43 -1.75,0.578 -0.606,0.156 -1.25,0.235 -1.938,0.235 -0.523,0 -0.976,-0.059 -1.359,-0.172 -0.387,-0.106 -0.703,-0.262 -0.953,-0.469 -0.25,-0.211 -0.438,-0.465 -0.563,-0.766 -0.125,-0.293 -0.187,-0.621 -0.187,-0.984 z"
                   style="fill:#4f4c4c;fill-opacity:1;fill-rule:nonzero;stroke:none"
                   id="path66"
                   inkscape:connector-curvature="0" /><path
                   d="m 144.516,49.824 0,9.735 1.593,0 0,-9.735 -1.593,0 z m -0.047,12 0,1.781 1.672,0 0,-1.781 -1.672,0 z"
                   style="fill:#4f4c4c;fill-opacity:1;fill-rule:nonzero;stroke:none"
                   id="path68"
                   inkscape:connector-curvature="0" /><path
                   d="m 150.195,58.215 0.032,0 c 0.175,0.219 0.367,0.426 0.578,0.625 0.218,0.195 0.457,0.367 0.718,0.515 0.27,0.145 0.563,0.258 0.875,0.344 0.321,0.082 0.676,0.125 1.063,0.125 0.437,0 0.848,-0.062 1.234,-0.187 0.395,-0.125 0.735,-0.325 1.016,-0.594 0.289,-0.273 0.519,-0.633 0.687,-1.078 0.164,-0.438 0.25,-0.981 0.25,-1.625 l 0,-6.516 -1.578,0 0,6.266 c 0,0.844 -0.168,1.445 -0.5,1.812 -0.324,0.375 -0.793,0.563 -1.406,0.563 -0.555,0 -1.086,-0.156 -1.594,-0.469 -0.511,-0.305 -0.953,-0.719 -1.328,-1.25 l 0,-6.922 -1.594,0 0,9.735 1.235,0 0.312,-1.344 z"
                   style="fill:#4f4c4c;fill-opacity:1;fill-rule:nonzero;stroke:none"
                   id="path70"
                   inkscape:connector-curvature="0" /><path
                   d="m 160.203,54.637 c 0,-0.774 0.086,-1.403 0.266,-1.891 0.187,-0.48 0.422,-0.855 0.703,-1.125 0.289,-0.273 0.601,-0.461 0.937,-0.562 0.332,-0.094 0.649,-0.141 0.953,-0.141 0.489,0 0.946,0.098 1.376,0.297 0.437,0.195 0.816,0.469 1.14,0.812 l 0,5.094 c -0.086,0.125 -0.211,0.266 -0.375,0.422 -0.156,0.156 -0.34,0.301 -0.547,0.437 -0.211,0.133 -0.449,0.25 -0.718,0.344 -0.262,0.094 -0.547,0.141 -0.86,0.141 -0.469,0 -0.887,-0.102 -1.25,-0.297 -0.355,-0.188 -0.656,-0.449 -0.906,-0.781 -0.242,-0.336 -0.422,-0.735 -0.547,-1.203 -0.117,-0.469 -0.172,-0.985 -0.172,-1.547 z m 2.672,5.187 c 0.426,-0.012 0.797,-0.07 1.109,-0.172 0.313,-0.093 0.578,-0.218 0.797,-0.375 0.227,-0.156 0.41,-0.312 0.547,-0.468 0.133,-0.149 0.227,-0.262 0.281,-0.344 l 0.032,0 0.328,1.094 1.203,0 0,-10.313 c 0,-0.75 -0.125,-1.398 -0.375,-1.953 -0.242,-0.563 -0.586,-1.023 -1.031,-1.391 -0.45,-0.375 -0.985,-0.648 -1.61,-0.828 -0.625,-0.187 -1.32,-0.281 -2.078,-0.281 -0.637,0 -1.211,0.059 -1.719,0.172 -0.5,0.117 -0.898,0.25 -1.187,0.406 l 0,1.344 c 0.226,-0.094 0.453,-0.172 0.672,-0.235 0.218,-0.07 0.441,-0.128 0.672,-0.171 0.238,-0.039 0.476,-0.071 0.718,-0.094 0.25,-0.02 0.52,-0.031 0.813,-0.031 1.133,0 2.004,0.265 2.609,0.796 0.614,0.532 0.922,1.344 0.922,2.438 l 0,1.312 -0.031,0 c -0.344,-0.386 -0.75,-0.679 -1.219,-0.875 -0.461,-0.187 -0.984,-0.281 -1.578,-0.281 -0.273,0 -0.57,0.031 -0.891,0.094 -0.312,0.055 -0.625,0.152 -0.937,0.297 -0.313,0.156 -0.617,0.351 -0.906,0.594 -0.282,0.238 -0.532,0.539 -0.75,0.906 -0.219,0.363 -0.399,0.797 -0.532,1.297 -0.136,0.5 -0.203,1.078 -0.203,1.734 0,0.914 0.125,1.707 0.375,2.375 0.25,0.664 0.571,1.219 0.969,1.656 0.406,0.438 0.867,0.758 1.391,0.969 0.519,0.219 1.054,0.328 1.609,0.328 z"
                   style="fill:#4f4c4c;fill-opacity:1;fill-rule:nonzero;stroke:none"
                   id="path72"
                   inkscape:connector-curvature="0" /><path
                   d="m 173.484,49.574 c -0.511,0 -0.968,0.059 -1.375,0.172 -0.398,0.102 -0.75,0.254 -1.062,0.453 -0.305,0.196 -0.559,0.43 -0.766,0.703 -0.211,0.282 -0.375,0.582 -0.5,0.907 -0.093,0.25 -0.164,0.519 -0.203,0.812 -0.043,0.289 -0.062,0.613 -0.062,0.969 l 0,5.969 1.593,0 0,-5.954 c 0,-0.543 0.067,-0.996 0.203,-1.359 0.165,-0.406 0.43,-0.73 0.797,-0.969 0.364,-0.242 0.832,-0.359 1.407,-0.359 0.601,0 1.086,0.129 1.453,0.391 0.363,0.257 0.625,0.609 0.781,1.046 0.113,0.333 0.172,0.75 0.172,1.25 l 0,5.954 1.594,0 0,-5.985 c 0,-0.324 -0.024,-0.633 -0.063,-0.922 -0.031,-0.281 -0.09,-0.543 -0.172,-0.781 -0.125,-0.336 -0.297,-0.641 -0.515,-0.922 -0.211,-0.281 -0.477,-0.527 -0.797,-0.734 -0.313,-0.211 -0.68,-0.367 -1.094,-0.469 -0.406,-0.113 -0.871,-0.172 -1.391,-0.172 z"
                   style="fill:#4f4c4c;fill-opacity:1;fill-rule:nonzero;stroke:none"
                   id="path74"
                   inkscape:connector-curvature="0" /><path
                   d="m 179.957,64.668 1.594,0 0,-14.844 -1.594,0 0,14.844 z"
                   style="fill:#4f4c4c;fill-opacity:1;fill-rule:nonzero;stroke:none"
                   id="path76"
                   inkscape:connector-curvature="0" /><path
                   d="m 189.793,50.902 -0.031,0 c -0.137,-0.168 -0.305,-0.336 -0.5,-0.5 -0.2,-0.156 -0.43,-0.297 -0.688,-0.422 -0.262,-0.125 -0.547,-0.222 -0.859,-0.296 -0.305,-0.071 -0.625,-0.11 -0.969,-0.11 -0.48,0 -0.918,0.074 -1.312,0.219 -0.387,0.133 -0.719,0.332 -1,0.594 -0.282,0.269 -0.508,0.597 -0.672,0.984 -0.157,0.395 -0.235,0.836 -0.235,1.328 0,0.489 0.086,0.926 0.266,1.313 0.176,0.383 0.422,0.707 0.734,0.968 0.313,0.27 0.688,0.473 1.125,0.61 0.446,0.144 0.938,0.219 1.469,0.219 0.508,0 0.977,-0.043 1.406,-0.125 0.426,-0.086 0.805,-0.188 1.141,-0.313 l 0.047,0 0,0.672 c 0,0.269 -0.016,0.504 -0.047,0.703 -0.031,0.207 -0.09,0.391 -0.172,0.547 -0.18,0.332 -0.465,0.602 -0.859,0.812 -0.387,0.219 -0.914,0.329 -1.578,0.329 -0.493,0 -0.954,-0.047 -1.391,-0.141 -0.43,-0.086 -0.859,-0.211 -1.297,-0.375 l 0,1.328 c 0.164,0.082 0.359,0.16 0.578,0.234 0.227,0.071 0.461,0.133 0.703,0.188 0.25,0.051 0.508,0.086 0.782,0.109 0.269,0.032 0.546,0.047 0.828,0.047 0.976,0 1.781,-0.179 2.406,-0.531 0.625,-0.344 1.07,-0.805 1.344,-1.375 0.101,-0.219 0.176,-0.465 0.218,-0.734 0.051,-0.262 0.079,-0.547 0.079,-0.86 l 0,-6.5 -1.344,0 -0.172,1.078 z m -0.078,3.203 c -0.293,0.083 -0.641,0.161 -1.047,0.235 -0.406,0.07 -0.852,0.113 -1.328,0.125 -0.68,0 -1.211,-0.149 -1.594,-0.438 -0.387,-0.281 -0.578,-0.726 -0.578,-1.328 0,-0.293 0.047,-0.554 0.141,-0.781 0.101,-0.23 0.238,-0.418 0.406,-0.563 0.164,-0.148 0.363,-0.257 0.594,-0.328 0.226,-0.074 0.472,-0.109 0.734,-0.109 0.344,0 0.66,0.047 0.953,0.141 0.289,0.101 0.551,0.222 0.781,0.359 0.227,0.144 0.422,0.285 0.578,0.422 0.165,0.133 0.286,0.238 0.36,0.312 l 0,1.953 z"
                   style="fill:#4f4c4c;fill-opacity:1;fill-rule:nonzero;stroke:none"
                   id="path78"
                   inkscape:connector-curvature="0" /><path
                   d="m 199.086,58.277 -0.125,0 c -0.375,0 -0.746,-0.039 -1.109,-0.109 -0.356,-0.063 -0.696,-0.168 -1.016,-0.313 -0.313,-0.136 -0.602,-0.308 -0.859,-0.515 -0.25,-0.211 -0.465,-0.453 -0.641,-0.735 l 0,-6.781 -1.594,0 0,9.735 1.235,0 0.312,-1.547 0.031,0 c 0.157,0.258 0.348,0.5 0.578,0.718 0.227,0.219 0.485,0.407 0.766,0.563 0.289,0.164 0.609,0.297 0.953,0.391 0.344,0.093 0.703,0.14 1.078,0.14 0.063,0 0.129,-0.008 0.203,-0.015 0.071,0 0.133,0 0.188,0 l 0,-1.532 z"
                   style="fill:#4f4c4c;fill-opacity:1;fill-rule:nonzero;stroke:none"
                   id="path80"
                   inkscape:connector-curvature="0" /><path
                   d="m 204.832,54.59 c 0,-0.563 0.063,-1.074 0.188,-1.531 0.125,-0.45 0.304,-0.836 0.546,-1.157 0.239,-0.312 0.532,-0.558 0.875,-0.734 0.352,-0.168 0.754,-0.25 1.204,-0.25 0.332,0 0.632,0.039 0.906,0.125 0.281,0.094 0.523,0.207 0.734,0.344 0.219,0.144 0.406,0.289 0.563,0.437 0.156,0.156 0.273,0.301 0.359,0.438 l 0,5.093 c -0.324,0.333 -0.703,0.598 -1.141,0.797 -0.429,0.207 -0.89,0.313 -1.39,0.313 -0.305,0 -0.621,-0.059 -0.953,-0.172 -0.325,-0.117 -0.633,-0.324 -0.922,-0.625 -0.281,-0.293 -0.516,-0.688 -0.703,-1.188 -0.18,-0.492 -0.266,-1.121 -0.266,-1.89 z m -1.672,-0.016 c 0,0.676 0.067,1.274 0.203,1.797 0.133,0.52 0.313,0.973 0.532,1.359 0.218,0.395 0.472,0.723 0.765,0.985 0.289,0.269 0.594,0.484 0.906,0.64 0.321,0.165 0.645,0.286 0.969,0.36 0.32,0.07 0.629,0.109 0.922,0.109 0.594,0 1.109,-0.101 1.547,-0.297 0.437,-0.199 0.828,-0.492 1.172,-0.875 l 0.031,0 0,6.016 1.594,0 0,-14.844 -1.203,0 -0.328,1.094 -0.032,0 c -0.125,-0.168 -0.273,-0.328 -0.437,-0.484 -0.168,-0.157 -0.36,-0.305 -0.578,-0.438 -0.219,-0.125 -0.477,-0.223 -0.766,-0.297 -0.293,-0.082 -0.633,-0.125 -1.016,-0.125 -0.531,0 -1.058,0.09 -1.578,0.266 -0.511,0.176 -0.965,0.461 -1.359,0.859 -0.399,0.406 -0.719,0.926 -0.969,1.563 -0.25,0.633 -0.375,1.406 -0.375,2.312 z"
                   style="fill:#4f4c4c;fill-opacity:1;fill-rule:nonzero;stroke:none"
                   id="path82"
                   inkscape:connector-curvature="0" /><path
                   d="m 218.168,58.465 c -0.367,0 -0.703,-0.074 -1.016,-0.219 -0.312,-0.148 -0.59,-0.344 -0.828,-0.594 -0.23,-0.242 -0.418,-0.527 -0.562,-0.859 -0.137,-0.336 -0.219,-0.688 -0.25,-1.063 l 4.922,0 c 0,0.383 -0.055,0.739 -0.157,1.063 -0.093,0.332 -0.242,0.625 -0.437,0.875 -0.188,0.25 -0.422,0.441 -0.703,0.578 -0.282,0.145 -0.606,0.219 -0.969,0.219 z m 0.859,-7.516 c 0.532,0 1.008,0.039 1.438,0.125 0.437,0.094 0.875,0.219 1.312,0.375 l 0,-1.328 c -0.355,-0.168 -0.789,-0.297 -1.297,-0.391 -0.511,-0.101 -1.062,-0.156 -1.656,-0.156 -0.699,0 -1.355,0.09 -1.969,0.266 -0.605,0.176 -1.136,0.461 -1.593,0.859 -0.461,0.395 -0.824,0.91 -1.094,1.547 -0.262,0.645 -0.391,1.414 -0.391,2.313 0,0.894 0.125,1.664 0.375,2.312 0.25,0.656 0.578,1.203 0.985,1.641 0.406,0.437 0.875,0.765 1.406,0.984 0.539,0.219 1.102,0.328 1.687,0.328 0.54,0 1.047,-0.094 1.516,-0.281 0.477,-0.18 0.891,-0.465 1.234,-0.859 0.352,-0.387 0.629,-0.887 0.829,-1.5 0.207,-0.618 0.312,-1.356 0.312,-2.219 0,-0.074 0,-0.141 0,-0.203 0,-0.063 -0.008,-0.196 -0.016,-0.391 l -6.687,0 c 0,-0.625 0.094,-1.156 0.281,-1.594 0.188,-0.429 0.442,-0.777 0.766,-1.047 0.332,-0.273 0.719,-0.468 1.156,-0.593 0.438,-0.125 0.906,-0.188 1.406,-0.188 z"
                   style="fill:#4f4c4c;fill-opacity:1;fill-rule:nonzero;stroke:none"
                   id="path84"
                   inkscape:connector-curvature="0" /><path
                   d="m 227.953,63.543 1.672,0 0,-13.719 -1.672,0 0,13.719 z"
                   style="fill:#4f4c4c;fill-opacity:1;fill-rule:nonzero;stroke:none"
                   id="path86"
                   inkscape:connector-curvature="0" /><path
                   d="m 233.809,58.215 0.031,0 c 0.176,0.219 0.367,0.426 0.578,0.625 0.219,0.195 0.457,0.367 0.719,0.515 0.269,0.145 0.562,0.258 0.875,0.344 0.32,0.082 0.676,0.125 1.062,0.125 0.438,0 0.848,-0.062 1.235,-0.187 0.394,-0.125 0.734,-0.325 1.015,-0.594 0.289,-0.273 0.52,-0.633 0.688,-1.078 0.164,-0.438 0.25,-0.981 0.25,-1.625 l 0,-6.516 -1.578,0 0,6.266 c 0,0.844 -0.168,1.445 -0.5,1.812 -0.325,0.375 -0.793,0.563 -1.407,0.563 -0.554,0 -1.086,-0.156 -1.593,-0.469 -0.512,-0.305 -0.954,-0.719 -1.329,-1.25 l 0,-6.922 -1.593,0 0,9.735 1.234,0 0.313,-1.344 z"
                   style="fill:#4f4c4c;fill-opacity:1;fill-rule:nonzero;stroke:none"
                   id="path88"
                   inkscape:connector-curvature="0" /><path
                   d="m 246.031,51.434 c 0.227,0.707 0.539,1.613 0.938,2.718 l 1.937,5.407 1.656,0 -3.703,-9.735 -1.671,0 -3.704,9.735 1.641,0 1.922,-5.407 c 0.383,-1.062 0.695,-1.968 0.937,-2.718 l 0.047,0 z"
                   style="fill:#4f4c4c;fill-opacity:1;fill-rule:nonzero;stroke:none"
                   id="path90"
                   inkscape:connector-curvature="0" /><path
                   d="m 255.602,58.465 c -0.368,0 -0.704,-0.074 -1.016,-0.219 -0.313,-0.148 -0.59,-0.344 -0.828,-0.594 -0.231,-0.242 -0.418,-0.527 -0.563,-0.859 -0.136,-0.336 -0.218,-0.688 -0.25,-1.063 l 4.922,0 c 0,0.383 -0.055,0.739 -0.156,1.063 -0.094,0.332 -0.242,0.625 -0.438,0.875 -0.187,0.25 -0.421,0.441 -0.703,0.578 -0.281,0.145 -0.605,0.219 -0.968,0.219 z m 0.859,-7.516 c 0.531,0 1.008,0.039 1.437,0.125 0.438,0.094 0.875,0.219 1.313,0.375 l 0,-1.328 c -0.356,-0.168 -0.789,-0.297 -1.297,-0.391 -0.512,-0.101 -1.062,-0.156 -1.656,-0.156 -0.699,0 -1.356,0.09 -1.969,0.266 -0.605,0.176 -1.137,0.461 -1.594,0.859 -0.461,0.395 -0.824,0.91 -1.093,1.547 -0.262,0.645 -0.391,1.414 -0.391,2.313 0,0.894 0.125,1.664 0.375,2.312 0.25,0.656 0.578,1.203 0.984,1.641 0.407,0.437 0.875,0.765 1.407,0.984 0.539,0.219 1.101,0.328 1.687,0.328 0.539,0 1.047,-0.094 1.516,-0.281 0.476,-0.18 0.89,-0.465 1.234,-0.859 0.352,-0.387 0.629,-0.887 0.828,-1.5 0.207,-0.618 0.313,-1.356 0.313,-2.219 0,-0.074 0,-0.141 0,-0.203 0,-0.063 -0.008,-0.196 -0.016,-0.391 l -6.687,0 c 0,-0.625 0.093,-1.156 0.281,-1.594 0.187,-0.429 0.441,-0.777 0.765,-1.047 0.332,-0.273 0.719,-0.468 1.157,-0.593 0.437,-0.125 0.906,-0.188 1.406,-0.188 z"
                   style="fill:#4f4c4c;fill-opacity:1;fill-rule:nonzero;stroke:none"
                   id="path92"
                   inkscape:connector-curvature="0" /><path
                   d="m 262.625,56.965 c 0,-0.262 0.055,-0.481 0.172,-0.656 0.113,-0.168 0.269,-0.305 0.469,-0.407 0.195,-0.105 0.422,-0.195 0.672,-0.265 0.257,-0.063 0.523,-0.125 0.796,-0.188 0.375,-0.086 0.727,-0.179 1.063,-0.281 0.344,-0.094 0.656,-0.242 0.937,-0.438 0.282,-0.199 0.508,-0.468 0.688,-0.812 0.176,-0.336 0.266,-0.766 0.266,-1.297 0,-0.5 -0.102,-0.945 -0.297,-1.328 -0.188,-0.375 -0.461,-0.695 -0.813,-0.953 -0.344,-0.25 -0.762,-0.438 -1.25,-0.563 -0.48,-0.132 -1.012,-0.203 -1.594,-0.203 -0.355,0 -0.679,0.024 -0.968,0.063 -0.293,0.031 -0.555,0.078 -0.782,0.14 -0.218,0.051 -0.406,0.11 -0.562,0.172 -0.156,0.063 -0.289,0.117 -0.391,0.172 l 0,1.328 c 0.414,-0.156 0.821,-0.289 1.219,-0.39 0.406,-0.094 0.852,-0.141 1.344,-0.141 0.383,0 0.726,0.031 1.031,0.094 0.313,0.07 0.578,0.176 0.797,0.312 0.219,0.133 0.383,0.301 0.5,0.5 0.125,0.207 0.187,0.442 0.187,0.703 0,0.282 -0.058,0.508 -0.171,0.688 -0.106,0.176 -0.25,0.32 -0.438,0.437 -0.18,0.114 -0.391,0.207 -0.641,0.282 -0.242,0.07 -0.492,0.14 -0.75,0.203 -0.355,0.082 -0.714,0.172 -1.078,0.265 -0.355,0.102 -0.679,0.25 -0.969,0.438 -0.292,0.187 -0.531,0.437 -0.718,0.75 -0.18,0.32 -0.266,0.734 -0.266,1.234 0,0.508 0.086,0.953 0.266,1.328 0.187,0.375 0.437,0.68 0.75,0.922 0.32,0.25 0.691,0.438 1.109,0.563 0.414,0.125 0.852,0.187 1.313,0.187 0.539,0 1.039,-0.054 1.5,-0.156 0.468,-0.106 0.89,-0.234 1.265,-0.391 l 0,-1.359 c -0.406,0.164 -0.824,0.297 -1.25,0.391 -0.418,0.101 -0.851,0.156 -1.297,0.156 -0.375,0 -0.699,-0.039 -0.968,-0.11 -0.262,-0.074 -0.481,-0.179 -0.657,-0.312 -0.168,-0.137 -0.293,-0.297 -0.375,-0.484 -0.074,-0.18 -0.109,-0.375 -0.109,-0.594 z"
                   style="fill:#4f4c4c;fill-opacity:1;fill-rule:nonzero;stroke:none"
                   id="path94"
                   inkscape:connector-curvature="0" /><path
                   d="m 274.594,49.809 c -0.137,-0.063 -0.344,-0.114 -0.625,-0.157 -0.281,-0.05 -0.617,-0.078 -1,-0.078 -0.512,0 -0.961,0.063 -1.344,0.188 -0.375,0.125 -0.687,0.3 -0.937,0.531 -0.243,0.238 -0.422,0.523 -0.547,0.859 -0.125,0.332 -0.188,0.707 -0.188,1.125 l 0,5.922 -1.875,0 0,1.36 1.875,0 0,2.671 1.594,0 0,-2.671 2.906,0 0,-1.36 -2.906,0 0,-5.672 c 0,-0.23 0.031,-0.445 0.094,-0.64 0.062,-0.188 0.16,-0.356 0.297,-0.5 0.144,-0.137 0.328,-0.246 0.546,-0.328 0.219,-0.075 0.485,-0.11 0.797,-0.11 0.207,0 0.426,0.016 0.657,0.047 0.238,0.039 0.457,0.086 0.656,0.141 l 0,-1.328 z"
                   style="fill:#4f4c4c;fill-opacity:1;fill-rule:nonzero;stroke:none"
                   id="path96"
                   inkscape:connector-curvature="0" /><path
                   d="m 276.223,49.824 0,9.735 1.593,0 0,-9.735 -1.593,0 z m -0.047,12 0,1.781 1.672,0 0,-1.781 -1.672,0 z"
                   style="fill:#4f4c4c;fill-opacity:1;fill-rule:nonzero;stroke:none"
                   id="path98"
                   inkscape:connector-curvature="0" /><path
                   d="m 281.465,54.637 c 0,-0.774 0.086,-1.403 0.265,-1.891 0.188,-0.48 0.422,-0.855 0.704,-1.125 0.289,-0.273 0.601,-0.461 0.937,-0.562 0.332,-0.094 0.649,-0.141 0.953,-0.141 0.488,0 0.946,0.098 1.375,0.297 0.438,0.195 0.817,0.469 1.141,0.812 l 0,5.094 c -0.086,0.125 -0.211,0.266 -0.375,0.422 -0.156,0.156 -0.34,0.301 -0.547,0.437 -0.211,0.133 -0.449,0.25 -0.719,0.344 -0.261,0.094 -0.547,0.141 -0.859,0.141 -0.469,0 -0.887,-0.102 -1.25,-0.297 -0.356,-0.188 -0.656,-0.449 -0.906,-0.781 -0.243,-0.336 -0.422,-0.735 -0.547,-1.203 -0.117,-0.469 -0.172,-0.985 -0.172,-1.547 z m 2.672,5.187 c 0.425,-0.012 0.797,-0.07 1.109,-0.172 0.313,-0.093 0.578,-0.218 0.797,-0.375 0.227,-0.156 0.41,-0.312 0.547,-0.468 0.133,-0.149 0.226,-0.262 0.281,-0.344 l 0.031,0 0.328,1.094 1.204,0 0,-10.313 c 0,-0.75 -0.125,-1.398 -0.375,-1.953 -0.243,-0.563 -0.586,-1.023 -1.032,-1.391 -0.449,-0.375 -0.984,-0.648 -1.609,-0.828 -0.625,-0.187 -1.32,-0.281 -2.078,-0.281 -0.637,0 -1.211,0.059 -1.719,0.172 -0.5,0.117 -0.898,0.25 -1.187,0.406 l 0,1.344 c 0.226,-0.094 0.453,-0.172 0.671,-0.235 0.219,-0.07 0.442,-0.128 0.672,-0.171 0.239,-0.039 0.477,-0.071 0.719,-0.094 0.25,-0.02 0.52,-0.031 0.813,-0.031 1.132,0 2.003,0.265 2.609,0.796 0.613,0.532 0.922,1.344 0.922,2.438 l 0,1.312 -0.031,0 c -0.344,-0.386 -0.75,-0.679 -1.219,-0.875 -0.461,-0.187 -0.985,-0.281 -1.578,-0.281 -0.274,0 -0.571,0.031 -0.891,0.094 -0.312,0.055 -0.625,0.152 -0.937,0.297 -0.313,0.156 -0.618,0.351 -0.907,0.594 -0.281,0.238 -0.531,0.539 -0.75,0.906 -0.218,0.363 -0.398,0.797 -0.531,1.297 -0.137,0.5 -0.203,1.078 -0.203,1.734 0,0.914 0.125,1.707 0.375,2.375 0.25,0.664 0.57,1.219 0.969,1.656 0.406,0.438 0.867,0.758 1.39,0.969 0.52,0.219 1.055,0.328 1.61,0.328 z"
                   style="fill:#4f4c4c;fill-opacity:1;fill-rule:nonzero;stroke:none"
                   id="path100"
                   inkscape:connector-curvature="0" /><path
                   d="m 296.574,50.902 -0.031,0 c -0.137,-0.168 -0.305,-0.336 -0.5,-0.5 -0.199,-0.156 -0.43,-0.297 -0.688,-0.422 -0.261,-0.125 -0.546,-0.222 -0.859,-0.296 -0.305,-0.071 -0.625,-0.11 -0.969,-0.11 -0.48,0 -0.918,0.074 -1.312,0.219 -0.387,0.133 -0.719,0.332 -1,0.594 -0.281,0.269 -0.508,0.597 -0.672,0.984 -0.156,0.395 -0.234,0.836 -0.234,1.328 0,0.489 0.086,0.926 0.265,1.313 0.176,0.383 0.422,0.707 0.735,0.968 0.312,0.27 0.687,0.473 1.125,0.61 0.445,0.144 0.937,0.219 1.468,0.219 0.508,0 0.977,-0.043 1.407,-0.125 0.425,-0.086 0.804,-0.188 1.14,-0.313 l 0.047,0 0,0.672 c 0,0.269 -0.016,0.504 -0.047,0.703 -0.031,0.207 -0.09,0.391 -0.172,0.547 -0.179,0.332 -0.465,0.602 -0.859,0.812 -0.387,0.219 -0.914,0.329 -1.578,0.329 -0.492,0 -0.953,-0.047 -1.391,-0.141 -0.429,-0.086 -0.859,-0.211 -1.297,-0.375 l 0,1.328 c 0.164,0.082 0.36,0.16 0.578,0.234 0.227,0.071 0.461,0.133 0.704,0.188 0.25,0.051 0.507,0.086 0.781,0.109 0.269,0.032 0.547,0.047 0.828,0.047 0.977,0 1.781,-0.179 2.406,-0.531 0.625,-0.344 1.071,-0.805 1.344,-1.375 0.102,-0.219 0.176,-0.465 0.219,-0.734 0.05,-0.262 0.078,-0.547 0.078,-0.86 l 0,-6.5 -1.344,0 -0.172,1.078 z m -0.078,3.203 c -0.293,0.083 -0.641,0.161 -1.047,0.235 -0.406,0.07 -0.851,0.113 -1.328,0.125 -0.68,0 -1.211,-0.149 -1.594,-0.438 -0.386,-0.281 -0.578,-0.726 -0.578,-1.328 0,-0.293 0.047,-0.554 0.141,-0.781 0.101,-0.23 0.238,-0.418 0.406,-0.563 0.164,-0.148 0.363,-0.257 0.594,-0.328 0.226,-0.074 0.472,-0.109 0.734,-0.109 0.344,0 0.66,0.047 0.953,0.141 0.289,0.101 0.551,0.222 0.782,0.359 0.226,0.144 0.421,0.285 0.578,0.422 0.164,0.133 0.285,0.238 0.359,0.312 l 0,1.953 z"
                   style="fill:#4f4c4c;fill-opacity:1;fill-rule:nonzero;stroke:none"
                   id="path102"
                   inkscape:connector-curvature="0" /><path
                   d="m 304.715,59.824 c 0.469,0 0.914,-0.054 1.344,-0.156 0.437,-0.094 0.812,-0.23 1.125,-0.406 l 0,-1.328 c -0.438,0.164 -0.84,0.289 -1.204,0.375 -0.355,0.082 -0.718,0.125 -1.093,0.125 -0.399,0 -0.793,-0.071 -1.188,-0.204 -0.387,-0.125 -0.734,-0.339 -1.047,-0.64 -0.304,-0.293 -0.547,-0.684 -0.734,-1.172 -0.188,-0.492 -0.281,-1.102 -0.281,-1.828 0,-0.524 0.066,-1.008 0.203,-1.453 0.144,-0.449 0.351,-0.836 0.625,-1.157 0.281,-0.324 0.629,-0.578 1.047,-0.765 0.414,-0.18 0.894,-0.266 1.437,-0.266 0.395,0 0.797,0.039 1.203,0.125 0.407,0.094 0.801,0.219 1.188,0.375 l 0,-1.328 c -0.125,-0.074 -0.281,-0.148 -0.469,-0.219 -0.187,-0.062 -0.398,-0.117 -0.625,-0.172 -0.219,-0.05 -0.461,-0.085 -0.719,-0.109 -0.25,-0.031 -0.5,-0.047 -0.75,-0.047 -0.656,0 -1.277,0.102 -1.859,0.297 -0.586,0.195 -1.094,0.5 -1.531,0.906 -0.438,0.407 -0.789,0.922 -1.047,1.547 -0.25,0.633 -0.375,1.383 -0.375,2.25 0,0.645 0.066,1.223 0.203,1.735 0.133,0.507 0.316,0.957 0.547,1.343 0.238,0.395 0.508,0.727 0.812,1 0.313,0.27 0.645,0.493 1,0.672 0.352,0.176 0.719,0.301 1.094,0.375 0.375,0.082 0.738,0.125 1.094,0.125 z"
                   style="fill:#4f4c4c;fill-opacity:1;fill-rule:nonzero;stroke:none"
                   id="path104"
                   inkscape:connector-curvature="0" /><path
                   d="m 309.215,49.824 0,9.735 1.594,0 0,-9.735 -1.594,0 z m -0.047,12 0,1.781 1.672,0 0,-1.781 -1.672,0 z"
                   style="fill:#4f4c4c;fill-opacity:1;fill-rule:nonzero;stroke:none"
                   id="path106"
                   inkscape:connector-curvature="0" /><path
                   d="m 320.375,54.684 c 0,0.601 -0.074,1.14 -0.219,1.609 -0.148,0.469 -0.355,0.863 -0.625,1.187 -0.261,0.321 -0.574,0.567 -0.937,0.735 -0.356,0.164 -0.75,0.25 -1.188,0.25 -0.429,0 -0.824,-0.086 -1.187,-0.25 -0.367,-0.168 -0.68,-0.414 -0.938,-0.735 -0.261,-0.324 -0.465,-0.718 -0.609,-1.187 -0.149,-0.469 -0.219,-1.008 -0.219,-1.609 0,-0.594 0.07,-1.125 0.219,-1.594 0.144,-0.469 0.348,-0.867 0.609,-1.188 0.27,-0.324 0.586,-0.57 0.953,-0.734 0.364,-0.168 0.758,-0.25 1.188,-0.25 0.426,0 0.816,0.082 1.172,0.25 0.363,0.164 0.676,0.41 0.937,0.734 0.27,0.321 0.477,0.719 0.625,1.188 0.145,0.469 0.219,1 0.219,1.594 z m 1.656,0 c 0,-0.762 -0.109,-1.461 -0.328,-2.094 -0.219,-0.625 -0.527,-1.164 -0.922,-1.61 -0.398,-0.449 -0.883,-0.796 -1.453,-1.046 -0.562,-0.239 -1.199,-0.36 -1.906,-0.36 -0.731,0 -1.383,0.121 -1.953,0.36 -0.563,0.25 -1.047,0.597 -1.453,1.046 -0.399,0.446 -0.704,0.985 -0.922,1.61 -0.211,0.633 -0.313,1.332 -0.313,2.094 0,0.769 0.11,1.468 0.328,2.093 0.219,0.633 0.524,1.176 0.922,1.625 0.407,0.457 0.895,0.805 1.469,1.047 0.57,0.25 1.207,0.375 1.906,0.375 0.719,0 1.364,-0.125 1.938,-0.375 0.57,-0.242 1.054,-0.59 1.453,-1.047 0.406,-0.449 0.711,-0.992 0.922,-1.625 0.207,-0.625 0.312,-1.324 0.312,-2.093 z m -2.031,10.25 -1.656,-3.579 -1.328,0 1.265,3.579 1.719,0 z m -5.188,-5.375 z"
                   style="fill:#4f4c4c;fill-opacity:1;fill-rule:nonzero;stroke:none"
                   id="path108"
                   inkscape:connector-curvature="0" /></g><g
                 id="g110"><g
                   id="g112"
                   clip-path="url(#clipPath114)"><path
                     d="m 325.457,58.215 0.031,0 c 0.176,0.219 0.367,0.426 0.578,0.625 0.219,0.195 0.457,0.367 0.719,0.515 0.27,0.145 0.563,0.258 0.875,0.344 0.32,0.082 0.676,0.125 1.063,0.125 0.437,0 0.847,-0.062 1.234,-0.187 0.395,-0.125 0.734,-0.325 1.016,-0.594 0.289,-0.273 0.519,-0.633 0.687,-1.078 0.164,-0.438 0.25,-0.981 0.25,-1.625 l 0,-6.516 -1.578,0 0,6.266 c 0,0.844 -0.168,1.445 -0.5,1.812 -0.324,0.375 -0.793,0.563 -1.406,0.563 -0.555,0 -1.086,-0.156 -1.594,-0.469 -0.512,-0.305 -0.953,-0.719 -1.328,-1.25 l 0,-6.922 -1.594,0 0,9.735 1.235,0 0.312,-1.344 z"
                     style="fill:#4f4c4c;fill-opacity:1;fill-rule:nonzero;stroke:none"
                     id="path118"
                     inkscape:connector-curvature="0" /></g></g><g
                 id="g120"><path
                   d="m 78.578,34.465 c -0.367,0 -0.703,-0.074 -1.016,-0.219 -0.312,-0.148 -0.589,-0.344 -0.828,-0.594 -0.23,-0.242 -0.418,-0.527 -0.562,-0.859 -0.137,-0.336 -0.219,-0.688 -0.25,-1.063 l 4.922,0 c 0,0.383 -0.055,0.739 -0.156,1.063 -0.094,0.332 -0.243,0.625 -0.438,0.875 -0.188,0.25 -0.422,0.441 -0.703,0.578 -0.281,0.145 -0.606,0.219 -0.969,0.219 z m 0.86,-7.516 c 0.531,0 1.007,0.039 1.437,0.125 0.437,0.094 0.875,0.219 1.313,0.375 l 0,-1.328 c -0.356,-0.168 -0.79,-0.297 -1.297,-0.391 -0.512,-0.101 -1.063,-0.156 -1.657,-0.156 -0.699,0 -1.355,0.09 -1.968,0.266 -0.606,0.176 -1.137,0.461 -1.594,0.859 -0.461,0.395 -0.824,0.91 -1.094,1.547 -0.262,0.645 -0.39,1.414 -0.39,2.313 0,0.894 0.124,1.664 0.374,2.312 0.25,0.656 0.579,1.203 0.985,1.641 0.406,0.437 0.875,0.765 1.406,0.984 0.539,0.219 1.102,0.328 1.688,0.328 0.539,0 1.047,-0.094 1.515,-0.281 0.477,-0.18 0.891,-0.465 1.235,-0.859 0.351,-0.387 0.629,-0.887 0.828,-1.5 0.207,-0.618 0.312,-1.356 0.312,-2.219 0,-0.074 0,-0.141 0,-0.203 0,-0.063 -0.008,-0.196 -0.015,-0.391 l -6.688,0 c 0,-0.625 0.094,-1.156 0.281,-1.594 0.188,-0.429 0.442,-0.777 0.766,-1.047 0.332,-0.273 0.719,-0.468 1.156,-0.593 0.438,-0.125 0.907,-0.188 1.407,-0.188 z"
                   style="fill:#4f4c4c;fill-opacity:1;fill-rule:nonzero;stroke:none"
                   id="path122"
                   inkscape:connector-curvature="0" /><path
                   d="m 86.113,34.215 0.032,0 c 0.175,0.219 0.367,0.426 0.578,0.625 0.218,0.195 0.457,0.367 0.718,0.515 0.27,0.145 0.563,0.258 0.875,0.344 0.321,0.082 0.676,0.125 1.063,0.125 0.437,0 0.848,-0.062 1.234,-0.187 0.395,-0.125 0.735,-0.325 1.016,-0.594 0.289,-0.273 0.519,-0.633 0.687,-1.078 0.164,-0.438 0.25,-0.981 0.25,-1.625 l 0,-6.516 -1.578,0 0,6.266 c 0,0.844 -0.168,1.445 -0.5,1.812 -0.324,0.375 -0.793,0.563 -1.406,0.563 -0.555,0 -1.086,-0.156 -1.594,-0.469 -0.511,-0.305 -0.953,-0.719 -1.328,-1.25 l 0,-6.922 -1.594,0 0,9.735 1.235,0 0.312,-1.344 z"
                   style="fill:#4f4c4c;fill-opacity:1;fill-rule:nonzero;stroke:none"
                   id="path124"
                   inkscape:connector-curvature="0" /><path
                   d="m 104.305,25.824 -2.516,0 0,11.625 -4.422,0 0,2.094 11.36,0 0,-2.094 -4.422,0 0,-11.625 z"
                   style="fill:#4f4c4c;fill-opacity:1;fill-rule:nonzero;stroke:none"
                   id="path126"
                   inkscape:connector-curvature="0" /><path
                   d="m 113.52,27.527 c 0.468,0 0.957,0.047 1.468,0.141 0.52,0.094 1.039,0.227 1.563,0.406 l 0,-1.937 c -0.313,-0.137 -0.797,-0.262 -1.453,-0.375 -0.649,-0.125 -1.321,-0.188 -2.016,-0.188 -0.699,0 -1.367,0.09 -2,0.266 -0.637,0.176 -1.187,0.469 -1.656,0.875 -0.469,0.406 -0.844,0.926 -1.125,1.562 -0.274,0.645 -0.406,1.426 -0.406,2.344 0,0.906 0.125,1.695 0.375,2.375 0.257,0.676 0.609,1.234 1.046,1.672 0.438,0.445 0.938,0.781 1.5,1 0.571,0.227 1.157,0.344 1.75,0.344 0.633,0 1.219,-0.102 1.75,-0.297 0.532,-0.188 0.989,-0.492 1.375,-0.906 0.383,-0.407 0.68,-0.934 0.891,-1.579 0.219,-0.648 0.328,-1.414 0.328,-2.296 -0.012,-0.336 -0.023,-0.622 -0.031,-0.86 l -6.516,0 c 0.039,-0.461 0.145,-0.855 0.313,-1.187 0.164,-0.325 0.39,-0.586 0.672,-0.782 0.281,-0.199 0.601,-0.343 0.968,-0.437 0.364,-0.094 0.766,-0.141 1.204,-0.141 z m -0.985,6.578 c -0.305,0 -0.574,-0.058 -0.812,-0.171 -0.243,-0.106 -0.45,-0.258 -0.625,-0.454 -0.168,-0.199 -0.305,-0.429 -0.407,-0.687 -0.105,-0.262 -0.171,-0.539 -0.203,-0.828 l 3.907,0 c 0,0.289 -0.043,0.566 -0.125,0.828 -0.086,0.258 -0.204,0.488 -0.36,0.687 -0.148,0.196 -0.336,0.348 -0.562,0.454 -0.231,0.113 -0.5,0.171 -0.813,0.171 z"
                   style="fill:#4f4c4c;fill-opacity:1;fill-rule:nonzero;stroke:none"
                   id="path128"
                   inkscape:connector-curvature="0" /><path
                   d="m 125.688,26.043 c -0.305,-0.137 -0.68,-0.242 -1.126,-0.328 -0.437,-0.094 -0.906,-0.141 -1.406,-0.141 -0.718,0 -1.39,0.102 -2.015,0.297 -0.618,0.207 -1.157,0.52 -1.625,0.938 -0.461,0.414 -0.825,0.941 -1.094,1.578 -0.262,0.644 -0.391,1.394 -0.391,2.25 0,0.957 0.149,1.773 0.453,2.453 0.313,0.687 0.707,1.242 1.188,1.672 0.488,0.426 1.039,0.738 1.656,0.937 0.613,0.207 1.219,0.313 1.813,0.313 0.445,0 0.875,-0.043 1.281,-0.125 0.406,-0.075 0.781,-0.184 1.125,-0.328 l 0,-1.969 c -0.305,0.125 -0.625,0.222 -0.969,0.297 -0.336,0.082 -0.699,0.125 -1.094,0.125 -0.386,0 -0.757,-0.063 -1.109,-0.188 -0.355,-0.117 -0.672,-0.304 -0.953,-0.562 -0.274,-0.25 -0.492,-0.594 -0.656,-1.032 -0.157,-0.429 -0.235,-0.937 -0.235,-1.531 0,-0.437 0.063,-0.851 0.188,-1.234 0.125,-0.387 0.301,-0.719 0.531,-1 0.238,-0.274 0.539,-0.492 0.906,-0.656 0.364,-0.168 0.797,-0.25 1.297,-0.25 0.445,0 0.852,0.039 1.219,0.125 0.363,0.093 0.703,0.203 1.016,0.328 l 0,-1.969 z"
                   style="fill:#4f4c4c;fill-opacity:1;fill-rule:nonzero;stroke:none"
                   id="path130"
                   inkscape:connector-curvature="0" /><path
                   d="m 129.398,34.371 0.047,0 c 0.145,0.207 0.328,0.41 0.547,0.609 0.219,0.196 0.469,0.368 0.75,0.516 0.281,0.156 0.586,0.281 0.922,0.375 0.344,0.094 0.703,0.141 1.078,0.141 0.363,0 0.711,-0.043 1.047,-0.125 0.344,-0.086 0.656,-0.215 0.938,-0.391 0.281,-0.18 0.523,-0.406 0.734,-0.687 0.219,-0.274 0.391,-0.594 0.516,-0.969 0.07,-0.219 0.117,-0.453 0.14,-0.703 0.02,-0.25 0.031,-0.539 0.031,-0.86 l 0,-6.453 -2.421,0 0,6.078 c 0,0.258 -0.012,0.485 -0.032,0.672 -0.023,0.196 -0.062,0.367 -0.125,0.516 -0.117,0.312 -0.297,0.535 -0.547,0.672 -0.25,0.133 -0.554,0.203 -0.906,0.203 -0.48,0 -0.937,-0.117 -1.375,-0.344 -0.43,-0.219 -0.808,-0.539 -1.14,-0.953 l 0,-6.844 -2.438,0 0,9.938 2.016,0 0.218,-1.391 z"
                   style="fill:#4f4c4c;fill-opacity:1;fill-rule:nonzero;stroke:none"
                   id="path132"
                   inkscape:connector-curvature="0" /><path
                   d="m 145.148,30.793 c 0,0.519 -0.062,0.984 -0.187,1.391 -0.125,0.406 -0.297,0.742 -0.516,1.015 -0.218,0.27 -0.484,0.473 -0.797,0.61 -0.304,0.132 -0.636,0.203 -1,0.203 -0.355,0 -0.683,-0.071 -0.984,-0.203 -0.305,-0.137 -0.562,-0.34 -0.781,-0.61 -0.219,-0.273 -0.391,-0.609 -0.516,-1.015 -0.125,-0.407 -0.187,-0.872 -0.187,-1.391 0,-0.531 0.062,-1 0.187,-1.406 0.125,-0.399 0.297,-0.731 0.516,-1 0.226,-0.274 0.492,-0.481 0.797,-0.625 0.3,-0.137 0.632,-0.203 1,-0.203 0.363,0 0.691,0.066 0.984,0.203 0.301,0.144 0.563,0.351 0.781,0.625 0.219,0.269 0.391,0.601 0.516,1 0.125,0.406 0.187,0.875 0.187,1.406 z m 2.516,0 c 0,-0.781 -0.121,-1.496 -0.359,-2.141 -0.231,-0.648 -0.563,-1.199 -1,-1.656 -0.43,-0.449 -0.95,-0.797 -1.563,-1.047 -0.617,-0.25 -1.304,-0.375 -2.062,-0.375 -0.782,0 -1.485,0.125 -2.11,0.375 -0.617,0.25 -1.14,0.598 -1.578,1.047 -0.43,0.457 -0.758,1.008 -0.984,1.656 -0.219,0.645 -0.328,1.36 -0.328,2.141 0,0.769 0.113,1.477 0.343,2.125 0.227,0.644 0.555,1.195 0.985,1.656 0.437,0.457 0.961,0.813 1.578,1.063 0.625,0.25 1.312,0.375 2.062,0.375 0.782,0 1.477,-0.125 2.094,-0.375 0.625,-0.25 1.149,-0.606 1.578,-1.063 0.438,-0.461 0.77,-1.012 1,-1.656 0.227,-0.648 0.344,-1.356 0.344,-2.125 z"
                   style="fill:#4f4c4c;fill-opacity:1;fill-rule:nonzero;stroke:none"
                   id="path134"
                   inkscape:connector-curvature="0" /><path
                   d="m 149.289,40.668 2.422,0 0,-14.844 -2.422,0 0,14.844 z"
                   style="fill:#4f4c4c;fill-opacity:1;fill-rule:nonzero;stroke:none"
                   id="path136"
                   inkscape:connector-curvature="0" /><path
                   d="m 160.82,30.793 c 0,0.519 -0.062,0.984 -0.187,1.391 -0.125,0.406 -0.297,0.742 -0.516,1.015 -0.219,0.27 -0.484,0.473 -0.797,0.61 -0.304,0.132 -0.636,0.203 -1,0.203 -0.355,0 -0.683,-0.071 -0.984,-0.203 -0.305,-0.137 -0.563,-0.34 -0.781,-0.61 -0.219,-0.273 -0.391,-0.609 -0.516,-1.015 -0.125,-0.407 -0.187,-0.872 -0.187,-1.391 0,-0.531 0.062,-1 0.187,-1.406 0.125,-0.399 0.297,-0.731 0.516,-1 0.226,-0.274 0.492,-0.481 0.797,-0.625 0.3,-0.137 0.632,-0.203 1,-0.203 0.363,0 0.691,0.066 0.984,0.203 0.301,0.144 0.562,0.351 0.781,0.625 0.219,0.269 0.391,0.601 0.516,1 0.125,0.406 0.187,0.875 0.187,1.406 z m 2.516,0 c 0,-0.781 -0.121,-1.496 -0.359,-2.141 -0.231,-0.648 -0.563,-1.199 -1,-1.656 -0.43,-0.449 -0.95,-0.797 -1.563,-1.047 -0.617,-0.25 -1.305,-0.375 -2.062,-0.375 -0.782,0 -1.485,0.125 -2.11,0.375 -0.617,0.25 -1.14,0.598 -1.578,1.047 -0.43,0.457 -0.758,1.008 -0.984,1.656 -0.219,0.645 -0.328,1.36 -0.328,2.141 0,0.769 0.113,1.477 0.343,2.125 0.227,0.644 0.555,1.195 0.985,1.656 0.437,0.457 0.961,0.813 1.578,1.063 0.625,0.25 1.312,0.375 2.062,0.375 0.782,0 1.477,-0.125 2.094,-0.375 0.625,-0.25 1.148,-0.606 1.578,-1.063 0.438,-0.461 0.77,-1.012 1,-1.656 0.227,-0.648 0.344,-1.356 0.344,-2.125 z"
                   style="fill:#4f4c4c;fill-opacity:1;fill-rule:nonzero;stroke:none"
                   id="path138"
                   inkscape:connector-curvature="0" /><path
                   d="m 168.664,29.277 -2.562,-3.453 -2.782,0 3.922,5.063 -3.687,4.875 2.859,0 2.313,-3.282 2.359,3.282 2.875,0 -3.797,-4.86 3.891,-5.078 -2.828,0 -2.563,3.453 z"
                   style="fill:#4f4c4c;fill-opacity:1;fill-rule:nonzero;stroke:none"
                   id="path140"
                   inkscape:connector-curvature="0" /><path
                   d="m 174.922,35.762 2.437,0 0,-9.938 -2.437,0 0,9.938 z m 3.64,5.172 -1.687,-3.579 -1.891,0 1.219,3.579 2.359,0 z m -6.031,-5.188 z"
                   style="fill:#4f4c4c;fill-opacity:1;fill-rule:nonzero;stroke:none"
                   id="path142"
                   inkscape:connector-curvature="0" /><path
                   d="m 185.293,26.887 -0.031,0 c -0.137,-0.149 -0.305,-0.297 -0.5,-0.453 -0.188,-0.149 -0.407,-0.289 -0.657,-0.422 -0.242,-0.137 -0.511,-0.239 -0.812,-0.313 -0.305,-0.082 -0.633,-0.125 -0.984,-0.125 -0.469,0 -0.914,0.074 -1.329,0.219 -0.406,0.145 -0.757,0.352 -1.046,0.625 -0.293,0.281 -0.524,0.613 -0.688,1 -0.168,0.394 -0.25,0.836 -0.25,1.328 0,0.531 0.094,1.008 0.281,1.438 0.196,0.425 0.469,0.785 0.813,1.078 0.351,0.289 0.769,0.515 1.25,0.672 0.488,0.156 1.031,0.234 1.625,0.234 0.426,0 0.82,-0.031 1.187,-0.094 0.364,-0.054 0.68,-0.117 0.953,-0.187 l 0,0.39 c 0,0.239 -0.043,0.461 -0.125,0.672 -0.074,0.219 -0.199,0.41 -0.375,0.578 -0.179,0.164 -0.406,0.297 -0.687,0.391 -0.273,0.102 -0.609,0.156 -1.016,0.156 -0.492,0 -0.984,-0.058 -1.484,-0.172 -0.492,-0.105 -1.023,-0.265 -1.594,-0.484 l 0,1.906 c 0.5,0.219 1.024,0.383 1.578,0.5 0.563,0.114 1.157,0.176 1.782,0.188 0.718,0 1.347,-0.09 1.89,-0.266 0.539,-0.18 0.992,-0.422 1.36,-0.734 0.375,-0.313 0.648,-0.684 0.828,-1.11 0.176,-0.429 0.265,-0.886 0.265,-1.375 l 0,-3.75 c 0,-0.656 0.004,-1.226 0.016,-1.703 0.019,-0.469 0.035,-0.886 0.047,-1.25 l -2.188,0 -0.109,1.063 z m -0.188,3.172 c -0.23,0.05 -0.496,0.097 -0.796,0.14 -0.305,0.051 -0.61,0.078 -0.922,0.078 -0.594,0 -1.063,-0.121 -1.407,-0.359 -0.343,-0.23 -0.515,-0.59 -0.515,-1.078 0,-0.231 0.035,-0.43 0.109,-0.594 0.082,-0.168 0.192,-0.308 0.328,-0.422 0.133,-0.105 0.289,-0.183 0.469,-0.234 0.176,-0.055 0.363,-0.078 0.563,-0.078 0.238,0 0.468,0.031 0.687,0.093 0.219,0.063 0.422,0.141 0.609,0.235 0.188,0.101 0.352,0.219 0.5,0.344 0.145,0.125 0.27,0.242 0.375,0.359 l 0,1.516 z"
                   style="fill:#4f4c4c;fill-opacity:1;fill-rule:nonzero;stroke:none"
                   id="path144"
                   inkscape:connector-curvature="0" /><path
                   d="m 194.035,28.699 c 0,0.219 -0.062,0.395 -0.187,0.531 -0.118,0.133 -0.274,0.25 -0.469,0.344 -0.199,0.094 -0.43,0.172 -0.688,0.235 -0.25,0.07 -0.515,0.14 -0.796,0.203 -0.356,0.101 -0.7,0.218 -1.032,0.343 -0.324,0.125 -0.609,0.286 -0.859,0.485 -0.25,0.207 -0.453,0.469 -0.609,0.781 -0.149,0.313 -0.219,0.691 -0.219,1.141 0,0.55 0.097,1.031 0.297,1.437 0.207,0.414 0.476,0.754 0.812,1.016 0.332,0.269 0.723,0.469 1.172,0.594 0.445,0.132 0.922,0.203 1.422,0.203 0.613,0 1.187,-0.055 1.719,-0.157 0.531,-0.093 1.007,-0.218 1.437,-0.375 l 0,-1.984 c -0.219,0.07 -0.453,0.141 -0.703,0.203 -0.25,0.071 -0.508,0.129 -0.766,0.172 -0.25,0.051 -0.507,0.094 -0.765,0.125 -0.25,0.031 -0.492,0.047 -0.719,0.047 -0.281,0 -0.523,-0.031 -0.719,-0.094 -0.199,-0.054 -0.359,-0.125 -0.484,-0.219 -0.125,-0.093 -0.215,-0.203 -0.266,-0.328 -0.054,-0.117 -0.078,-0.234 -0.078,-0.359 0,-0.231 0.055,-0.418 0.172,-0.563 0.125,-0.136 0.289,-0.25 0.5,-0.343 0.207,-0.086 0.426,-0.157 0.656,-0.219 0.239,-0.055 0.469,-0.109 0.688,-0.172 0.344,-0.086 0.679,-0.184 1.015,-0.297 0.344,-0.117 0.649,-0.277 0.922,-0.484 0.282,-0.211 0.504,-0.481 0.672,-0.813 0.176,-0.336 0.266,-0.757 0.266,-1.265 0,-0.563 -0.106,-1.055 -0.313,-1.469 -0.211,-0.418 -0.508,-0.766 -0.89,-1.047 -0.375,-0.273 -0.828,-0.469 -1.36,-0.594 -0.531,-0.132 -1.117,-0.203 -1.75,-0.203 -0.625,0 -1.195,0.055 -1.703,0.156 -0.5,0.094 -0.914,0.211 -1.234,0.36 l 0,1.953 c 0.531,-0.199 1.019,-0.336 1.469,-0.406 0.457,-0.063 0.878,-0.094 1.265,-0.094 0.301,0 0.582,0.019 0.844,0.062 0.258,0.04 0.484,0.11 0.672,0.204 0.187,0.101 0.332,0.226 0.437,0.375 0.114,0.144 0.172,0.316 0.172,0.515 z"
                   style="fill:#4f4c4c;fill-opacity:1;fill-rule:nonzero;stroke:none"
                   id="path146"
                   inkscape:connector-curvature="0" /><path
                   d="m 202.785,30.59 c 0,-0.563 0.063,-1.074 0.188,-1.531 0.125,-0.45 0.304,-0.836 0.547,-1.157 0.238,-0.312 0.531,-0.558 0.875,-0.734 0.351,-0.168 0.753,-0.25 1.203,-0.25 0.332,0 0.632,0.039 0.906,0.125 0.281,0.094 0.523,0.207 0.734,0.344 0.219,0.144 0.407,0.289 0.563,0.437 0.156,0.156 0.273,0.301 0.359,0.438 l 0,5.093 c -0.324,0.333 -0.703,0.598 -1.14,0.797 -0.43,0.207 -0.891,0.313 -1.391,0.313 -0.305,0 -0.621,-0.059 -0.953,-0.172 -0.324,-0.117 -0.633,-0.324 -0.922,-0.625 -0.281,-0.293 -0.516,-0.688 -0.703,-1.188 -0.18,-0.492 -0.266,-1.121 -0.266,-1.89 z m -1.672,-0.016 c 0,0.676 0.067,1.274 0.203,1.797 0.133,0.52 0.313,0.973 0.532,1.359 0.218,0.395 0.472,0.723 0.765,0.985 0.289,0.269 0.594,0.484 0.907,0.64 0.32,0.165 0.644,0.286 0.968,0.36 0.321,0.07 0.629,0.109 0.922,0.109 0.594,0 1.11,-0.101 1.547,-0.297 0.438,-0.199 0.828,-0.492 1.172,-0.875 l 0.031,0 0,6.016 1.594,0 0,-14.844 -1.203,0 -0.328,1.094 -0.032,0 c -0.125,-0.168 -0.273,-0.328 -0.437,-0.484 -0.168,-0.157 -0.359,-0.305 -0.578,-0.438 -0.219,-0.125 -0.477,-0.223 -0.766,-0.297 -0.293,-0.082 -0.633,-0.125 -1.015,-0.125 -0.532,0 -1.059,0.09 -1.579,0.266 -0.511,0.176 -0.964,0.461 -1.359,0.859 -0.398,0.406 -0.719,0.926 -0.969,1.563 -0.25,0.633 -0.375,1.406 -0.375,2.312 z"
                   style="fill:#4f4c4c;fill-opacity:1;fill-rule:nonzero;stroke:none"
                   id="path148"
                   inkscape:connector-curvature="0" /><path
                   d="m 217.996,26.902 -0.031,0 c -0.137,-0.168 -0.305,-0.336 -0.5,-0.5 -0.199,-0.156 -0.43,-0.297 -0.688,-0.422 -0.261,-0.125 -0.547,-0.222 -0.859,-0.296 -0.305,-0.071 -0.625,-0.11 -0.969,-0.11 -0.48,0 -0.918,0.074 -1.312,0.219 -0.387,0.133 -0.719,0.332 -1,0.594 -0.282,0.269 -0.508,0.597 -0.672,0.984 -0.156,0.395 -0.235,0.836 -0.235,1.328 0,0.489 0.086,0.926 0.266,1.313 0.176,0.383 0.422,0.707 0.734,0.968 0.313,0.27 0.688,0.473 1.125,0.61 0.446,0.144 0.938,0.219 1.469,0.219 0.508,0 0.977,-0.043 1.406,-0.125 0.426,-0.086 0.805,-0.188 1.141,-0.313 l 0.047,0 0,0.672 c 0,0.269 -0.016,0.504 -0.047,0.703 -0.031,0.207 -0.09,0.391 -0.172,0.547 -0.179,0.332 -0.465,0.602 -0.859,0.812 -0.387,0.219 -0.914,0.329 -1.578,0.329 -0.492,0 -0.953,-0.047 -1.391,-0.141 -0.43,-0.086 -0.859,-0.211 -1.297,-0.375 l 0,1.328 c 0.164,0.082 0.36,0.16 0.578,0.234 0.227,0.071 0.461,0.133 0.703,0.188 0.25,0.051 0.508,0.086 0.782,0.109 0.269,0.032 0.547,0.047 0.828,0.047 0.976,0 1.781,-0.179 2.406,-0.531 0.625,-0.344 1.07,-0.805 1.344,-1.375 0.101,-0.219 0.176,-0.465 0.219,-0.734 0.05,-0.262 0.078,-0.547 0.078,-0.86 l 0,-6.5 -1.344,0 -0.172,1.078 z m -0.078,3.203 c -0.293,0.083 -0.641,0.161 -1.047,0.235 -0.406,0.07 -0.851,0.113 -1.328,0.125 -0.68,0 -1.211,-0.149 -1.594,-0.438 -0.387,-0.281 -0.578,-0.726 -0.578,-1.328 0,-0.293 0.047,-0.554 0.141,-0.781 0.101,-0.23 0.238,-0.418 0.406,-0.563 0.164,-0.148 0.363,-0.257 0.594,-0.328 0.226,-0.074 0.472,-0.109 0.734,-0.109 0.344,0 0.66,0.047 0.953,0.141 0.289,0.101 0.551,0.222 0.781,0.359 0.227,0.144 0.422,0.285 0.579,0.422 0.164,0.133 0.285,0.238 0.359,0.312 l 0,1.953 z"
                   style="fill:#4f4c4c;fill-opacity:1;fill-rule:nonzero;stroke:none"
                   id="path150"
                   inkscape:connector-curvature="0" /><path
                   d="m 74.859,15.543 2.516,0 0,-13.719 -2.516,0 0,13.719 z"
                   style="fill:#4f4c4c;fill-opacity:1;fill-rule:nonzero;stroke:none"
                   id="path152"
                   inkscape:connector-curvature="0" /><path
                   d="m 81.941,10.371 0.047,0 c 0.145,0.207 0.328,0.41 0.547,0.609 0.219,0.196 0.469,0.368 0.75,0.516 0.281,0.156 0.586,0.281 0.922,0.375 0.344,0.094 0.703,0.141 1.078,0.141 0.363,0 0.711,-0.043 1.047,-0.125 0.344,-0.086 0.656,-0.215 0.938,-0.391 0.281,-0.18 0.523,-0.406 0.734,-0.687 0.219,-0.274 0.391,-0.594 0.516,-0.969 0.07,-0.219 0.117,-0.453 0.14,-0.703 0.02,-0.25 0.031,-0.539 0.031,-0.86 l 0,-6.453 -2.421,0 0,6.078 c 0,0.258 -0.012,0.485 -0.032,0.672 -0.023,0.196 -0.062,0.367 -0.125,0.516 -0.117,0.312 -0.297,0.535 -0.547,0.672 -0.25,0.133 -0.554,0.203 -0.906,0.203 -0.48,0 -0.937,-0.117 -1.375,-0.344 -0.43,-0.219 -0.808,-0.539 -1.14,-0.953 l 0,-6.844 -2.438,0 0,9.938 2.016,0 0.218,-1.391 z"
                   style="fill:#4f4c4c;fill-opacity:1;fill-rule:nonzero;stroke:none"
                   id="path154"
                   inkscape:connector-curvature="0" /><path
                   d="m 96.961,14.699 c -0.273,0.071 -0.547,0.129 -0.828,0.172 -0.281,0.039 -0.555,0.063 -0.813,0.063 -0.273,0 -0.515,-0.032 -0.734,-0.094 -0.211,-0.063 -0.387,-0.172 -0.531,-0.328 -0.149,-0.149 -0.258,-0.34 -0.328,-0.578 -0.075,-0.243 -0.11,-0.532 -0.11,-0.875 l 0,-1.297 2.75,0 0,-2 -2.75,0 0,-7.938 -2.437,0 0,7.938 -1.672,0 0,2 1.672,0 0,1.172 c 0,0.695 0.097,1.296 0.297,1.796 0.195,0.508 0.468,0.926 0.812,1.25 0.352,0.321 0.766,0.563 1.234,0.719 0.469,0.156 0.977,0.235 1.532,0.235 0.343,0 0.679,-0.032 1.015,-0.094 0.344,-0.055 0.641,-0.121 0.891,-0.203 l 0,-1.938 z"
                   style="fill:#4f4c4c;fill-opacity:1;fill-rule:nonzero;stroke:none"
                   id="path156"
                   inkscape:connector-curvature="0" /><path
                   d="m 103.957,6.793 c 0,0.519 -0.062,0.984 -0.187,1.391 -0.125,0.406 -0.297,0.742 -0.516,1.015 -0.219,0.27 -0.484,0.473 -0.797,0.61 -0.305,0.132 -0.637,0.203 -1,0.203 -0.355,0 -0.684,-0.071 -0.984,-0.203 C 100.168,9.672 99.91,9.469 99.691,9.199 99.473,8.926 99.301,8.59 99.176,8.184 99.051,7.777 98.988,7.312 98.988,6.793 c 0,-0.531 0.063,-1 0.188,-1.406 0.125,-0.399 0.297,-0.731 0.515,-1 0.227,-0.274 0.493,-0.481 0.797,-0.625 0.301,-0.137 0.633,-0.203 1,-0.203 0.364,0 0.692,0.066 0.985,0.203 0.3,0.144 0.562,0.351 0.781,0.625 0.219,0.269 0.391,0.601 0.516,1 0.125,0.406 0.187,0.875 0.187,1.406 z m 2.516,0 c 0,-0.781 -0.121,-1.496 -0.36,-2.141 -0.23,-0.648 -0.562,-1.199 -1,-1.656 -0.429,-0.449 -0.949,-0.797 -1.562,-1.047 -0.617,-0.25 -1.305,-0.375 -2.063,-0.375 -0.781,0 -1.484,0.125 -2.109,0.375 -0.617,0.25 -1.141,0.598 -1.578,1.047 -0.43,0.457 -0.758,1.008 -0.985,1.656 -0.218,0.645 -0.328,1.36 -0.328,2.141 0,0.769 0.114,1.477 0.344,2.125 0.227,0.644 0.555,1.195 0.984,1.656 0.438,0.457 0.961,0.813 1.579,1.063 0.625,0.25 1.312,0.375 2.062,0.375 0.781,0 1.477,-0.125 2.094,-0.375 0.625,-0.25 1.148,-0.606 1.578,-1.063 0.437,-0.461 0.769,-1.012 1,-1.656 0.226,-0.648 0.344,-1.356 0.344,-2.125 z"
                   style="fill:#4f4c4c;fill-opacity:1;fill-rule:nonzero;stroke:none"
                   id="path158"
                   inkscape:connector-curvature="0" /><path
                   d="m 113.891,9.84 -0.203,0 c -0.743,0 -1.399,-0.117 -1.969,-0.344 -0.563,-0.219 -0.996,-0.558 -1.297,-1.016 l 0,-6.656 -2.438,0 0,9.938 2.016,0 0.219,-1.391 0.047,0 c 0.289,0.508 0.687,0.91 1.187,1.203 0.5,0.289 1.102,0.438 1.813,0.438 0.238,0 0.445,-0.016 0.625,-0.047 l 0,-2.125 z"
                   style="fill:#4f4c4c;fill-opacity:1;fill-rule:nonzero;stroke:none"
                   id="path160"
                   inkscape:connector-curvature="0" /><path
                   d="m 127.496,7.871 c 0,0.219 -0.008,0.414 -0.016,0.594 -0.011,0.187 -0.039,0.347 -0.078,0.484 -0.074,0.301 -0.218,0.539 -0.437,0.719 -0.219,0.187 -0.527,0.285 -0.922,0.297 -0.211,0 -0.43,-0.031 -0.656,-0.094 -0.231,-0.062 -0.453,-0.152 -0.672,-0.266 -0.219,-0.105 -0.434,-0.242 -0.641,-0.406 -0.199,-0.156 -0.383,-0.336 -0.547,-0.531 l 0,-6.844 -2.422,0 0,6.047 c 0,0.219 -0.011,0.414 -0.031,0.594 -0.012,0.187 -0.031,0.347 -0.062,0.484 -0.074,0.301 -0.219,0.539 -0.438,0.719 -0.219,0.187 -0.527,0.285 -0.922,0.297 -0.218,0 -0.445,-0.031 -0.672,-0.094 -0.218,-0.062 -0.445,-0.152 -0.671,-0.266 -0.219,-0.105 -0.43,-0.242 -0.625,-0.406 -0.2,-0.156 -0.383,-0.336 -0.547,-0.531 l 0,-6.844 -2.438,0 0,9.938 2.016,0 0.219,-1.391 0.046,0 c 0.145,0.207 0.329,0.41 0.547,0.609 0.219,0.196 0.461,0.368 0.735,0.516 0.281,0.156 0.586,0.281 0.922,0.375 0.332,0.094 0.679,0.141 1.046,0.141 0.657,0 1.243,-0.149 1.766,-0.438 0.52,-0.293 0.922,-0.746 1.203,-1.359 l 0.031,0 c 0.196,0.258 0.411,0.5 0.641,0.719 0.238,0.218 0.5,0.406 0.781,0.562 0.289,0.164 0.602,0.289 0.938,0.375 0.332,0.094 0.687,0.141 1.062,0.141 0.707,-0.012 1.301,-0.164 1.782,-0.453 0.488,-0.293 0.863,-0.688 1.125,-1.188 0.062,-0.137 0.113,-0.281 0.156,-0.437 0.051,-0.149 0.094,-0.321 0.125,-0.516 0.031,-0.188 0.051,-0.402 0.062,-0.641 0.02,-0.23 0.032,-0.496 0.032,-0.797 l 0,-6.156 -2.438,0 0,6.047 z"
                   style="fill:#4f4c4c;fill-opacity:1;fill-rule:nonzero;stroke:none"
                   id="path162"
                   inkscape:connector-curvature="0" /><path
                   d="m 137.805,2.887 -0.032,0 c -0.136,-0.149 -0.304,-0.297 -0.5,-0.453 -0.187,-0.149 -0.406,-0.289 -0.656,-0.422 -0.242,-0.137 -0.512,-0.239 -0.812,-0.313 -0.305,-0.082 -0.633,-0.125 -0.985,-0.125 -0.468,0 -0.914,0.074 -1.328,0.219 -0.406,0.145 -0.758,0.352 -1.047,0.625 -0.293,0.281 -0.523,0.613 -0.687,1 -0.168,0.394 -0.25,0.836 -0.25,1.328 0,0.531 0.094,1.008 0.281,1.438 0.195,0.425 0.469,0.785 0.813,1.078 0.351,0.289 0.769,0.515 1.25,0.672 0.488,0.156 1.031,0.234 1.625,0.234 0.425,0 0.82,-0.031 1.187,-0.094 0.363,-0.054 0.68,-0.117 0.953,-0.187 l 0,0.39 c 0,0.239 -0.043,0.461 -0.125,0.672 -0.074,0.219 -0.199,0.41 -0.375,0.578 -0.179,0.164 -0.406,0.297 -0.687,0.391 -0.274,0.102 -0.61,0.156 -1.016,0.156 -0.492,0 -0.984,-0.058 -1.484,-0.172 -0.492,-0.105 -1.024,-0.265 -1.594,-0.484 l 0,1.906 c 0.5,0.219 1.023,0.383 1.578,0.5 0.563,0.114 1.156,0.176 1.781,0.188 0.719,0 1.348,-0.09 1.891,-0.266 0.539,-0.18 0.992,-0.422 1.359,-0.734 0.375,-0.313 0.649,-0.684 0.828,-1.11 0.176,-0.429 0.266,-0.886 0.266,-1.375 l 0,-3.75 c 0,-0.656 0.004,-1.226 0.016,-1.703 0.019,-0.469 0.035,-0.886 0.047,-1.25 l -2.188,0 -0.109,1.063 z m -0.188,3.172 c -0.23,0.05 -0.496,0.097 -0.797,0.14 -0.304,0.051 -0.609,0.078 -0.922,0.078 -0.593,0 -1.062,-0.121 -1.406,-0.359 -0.344,-0.23 -0.515,-0.59 -0.515,-1.078 0,-0.231 0.035,-0.43 0.109,-0.594 0.082,-0.168 0.191,-0.308 0.328,-0.422 0.133,-0.105 0.289,-0.183 0.469,-0.234 0.176,-0.055 0.363,-0.078 0.562,-0.078 0.239,0 0.469,0.031 0.688,0.093 0.219,0.063 0.422,0.141 0.609,0.235 0.188,0.101 0.352,0.219 0.5,0.344 0.145,0.125 0.27,0.242 0.375,0.359 l 0,1.516 z"
                   style="fill:#4f4c4c;fill-opacity:1;fill-rule:nonzero;stroke:none"
                   id="path164"
                   inkscape:connector-curvature="0" /><path
                   d="m 149.293,2.043 c -0.305,-0.137 -0.68,-0.242 -1.125,-0.328 -0.438,-0.094 -0.906,-0.141 -1.406,-0.141 -0.719,0 -1.391,0.102 -2.016,0.297 -0.617,0.207 -1.156,0.52 -1.625,0.938 -0.461,0.414 -0.824,0.941 -1.094,1.578 -0.261,0.644 -0.39,1.394 -0.39,2.25 0,0.957 0.148,1.773 0.453,2.453 0.312,0.687 0.707,1.242 1.187,1.672 0.489,0.426 1.039,0.738 1.657,0.937 0.613,0.207 1.218,0.313 1.812,0.313 0.445,0 0.875,-0.043 1.281,-0.125 0.407,-0.075 0.782,-0.184 1.125,-0.328 l 0,-1.969 c -0.304,0.125 -0.625,0.222 -0.968,0.297 -0.336,0.082 -0.7,0.125 -1.094,0.125 -0.387,0 -0.758,-0.063 -1.11,-0.188 -0.355,-0.117 -0.671,-0.304 -0.953,-0.562 -0.273,-0.25 -0.492,-0.594 -0.656,-1.032 -0.156,-0.429 -0.234,-0.937 -0.234,-1.531 0,-0.437 0.062,-0.851 0.187,-1.234 0.125,-0.387 0.301,-0.719 0.531,-1 0.239,-0.274 0.54,-0.492 0.907,-0.656 0.363,-0.168 0.797,-0.25 1.297,-0.25 0.445,0 0.851,0.039 1.218,0.125 0.364,0.093 0.703,0.203 1.016,0.328 l 0,-1.969 z"
                   style="fill:#4f4c4c;fill-opacity:1;fill-rule:nonzero;stroke:none"
                   id="path166"
                   inkscape:connector-curvature="0" /><path
                   d="m 150.828,11.762 2.438,0 0,-9.938 -2.438,0 0,9.938 z m -0.062,4.906 2.562,0 0,-2.625 -2.562,0 0,2.625 z"
                   style="fill:#4f4c4c;fill-opacity:1;fill-rule:nonzero;stroke:none"
                   id="path168"
                   inkscape:connector-curvature="0" /><path
                   d="m 162.324,6.793 c 0,0.519 -0.062,0.984 -0.187,1.391 -0.125,0.406 -0.297,0.742 -0.516,1.015 -0.219,0.27 -0.484,0.473 -0.797,0.61 -0.304,0.132 -0.636,0.203 -1,0.203 -0.355,0 -0.683,-0.071 -0.984,-0.203 -0.305,-0.137 -0.563,-0.34 -0.781,-0.61 -0.219,-0.273 -0.391,-0.609 -0.516,-1.015 -0.125,-0.407 -0.188,-0.872 -0.188,-1.391 0,-0.531 0.063,-1 0.188,-1.406 0.125,-0.399 0.297,-0.731 0.516,-1 0.226,-0.274 0.492,-0.481 0.796,-0.625 0.301,-0.137 0.633,-0.203 1,-0.203 0.364,0 0.692,0.066 0.985,0.203 0.301,0.144 0.562,0.351 0.781,0.625 0.219,0.269 0.391,0.601 0.516,1 0.125,0.406 0.187,0.875 0.187,1.406 z m 2.516,0 c 0,-0.781 -0.121,-1.496 -0.36,-2.141 -0.23,-0.648 -0.562,-1.199 -1,-1.656 -0.429,-0.449 -0.949,-0.797 -1.562,-1.047 -0.617,-0.25 -1.305,-0.375 -2.063,-0.375 -0.781,0 -1.484,0.125 -2.109,0.375 -0.617,0.25 -1.141,0.598 -1.578,1.047 -0.43,0.457 -0.758,1.008 -0.984,1.656 -0.219,0.645 -0.329,1.36 -0.329,2.141 0,0.769 0.114,1.477 0.344,2.125 0.227,0.644 0.555,1.195 0.985,1.656 0.437,0.457 0.961,0.813 1.578,1.063 0.625,0.25 1.312,0.375 2.062,0.375 0.781,0 1.477,-0.125 2.094,-0.375 0.625,-0.25 1.148,-0.606 1.578,-1.063 0.438,-0.461 0.77,-1.012 1,-1.656 0.227,-0.648 0.344,-1.356 0.344,-2.125 z m -2.781,10.141 -1.688,-3.579 -1.891,0 1.219,3.579 2.36,0 z m -6.032,-5.188 z"
                   style="fill:#4f4c4c;fill-opacity:1;fill-rule:nonzero;stroke:none"
                   id="path170"
                   inkscape:connector-curvature="0" /><path
                   d="m 168.59,10.371 0.047,0 c 0.144,0.207 0.328,0.41 0.547,0.609 0.218,0.196 0.468,0.368 0.75,0.516 0.281,0.156 0.586,0.281 0.921,0.375 0.344,0.094 0.704,0.141 1.079,0.141 0.363,0 0.711,-0.043 1.046,-0.125 0.344,-0.086 0.657,-0.215 0.938,-0.391 0.281,-0.18 0.523,-0.406 0.734,-0.687 0.219,-0.274 0.391,-0.594 0.516,-0.969 0.07,-0.219 0.117,-0.453 0.141,-0.703 0.019,-0.25 0.031,-0.539 0.031,-0.86 l 0,-6.453 -2.422,0 0,6.078 c 0,0.258 -0.012,0.485 -0.031,0.672 -0.024,0.196 -0.063,0.367 -0.125,0.516 -0.117,0.312 -0.297,0.535 -0.547,0.672 -0.25,0.133 -0.555,0.203 -0.906,0.203 -0.481,0 -0.938,-0.117 -1.375,-0.344 -0.43,-0.219 -0.809,-0.539 -1.141,-0.953 l 0,-6.844 -2.438,0 0,9.938 2.016,0 0.219,-1.391 z"
                   style="fill:#4f4c4c;fill-opacity:1;fill-rule:nonzero;stroke:none"
                   id="path172"
                   inkscape:connector-curvature="0" /><path
                   d="m 131.094,148.504 0,-10.277 -17.367,0 0,-47.754 -12.204,0 0,47.754 -17.441,0 0,10.277 47.012,0"
                   style="fill:#ffffff;fill-opacity:1;fill-rule:nonzero;stroke:none"
                   id="path174"
                   inkscape:connector-curvature="0" /><path
                   d="m 131.094,138.215 11.379,0 0,-47.742 -11.379,0 0,47.742 z"
                   style="fill:#ffffff;fill-opacity:1;fill-rule:nonzero;stroke:none"
                   id="path176"
                   inkscape:connector-curvature="0" /></g></g></g></g></g></g></g></svg>